<svg width="60" height="60" viewBox="0 0 60 60" fill="none" xmlns="http://www.w3.org/2000/svg">
<path d="M47.5 2.5H12.5C9.18601 2.50397 6.00889 3.8222 3.66555 6.16555C1.3222 8.50889 0.00396964 11.686 0 15L0 45C0.00396964 48.314 1.3222 51.4911 3.66555 53.8345C6.00889 56.1778 9.18601 57.496 12.5 57.5H47.5C50.814 57.496 53.9911 56.1778 56.3345 53.8345C58.6778 51.4911 59.996 48.314 60 45V15C59.996 11.686 58.6778 8.50889 56.3345 6.16555C53.9911 3.8222 50.814 2.50397 47.5 2.5ZM12.5 7.5H47.5C49.4891 7.5 51.3968 8.29018 52.8033 9.6967C54.2098 11.1032 55 13.0109 55 15V17.5H5V15C5 13.0109 5.79018 11.1032 7.1967 9.6967C8.60322 8.29018 10.5109 7.5 12.5 7.5ZM47.5 52.5H12.5C10.5109 52.5 8.60322 51.7098 7.1967 50.3033C5.79018 48.8968 5 46.9891 5 45V22.5H55V45C55 46.9891 54.2098 48.8968 52.8033 50.3033C51.3968 51.7098 49.4891 52.5 47.5 52.5ZM47.5 32.5C47.5 33.163 47.2366 33.7989 46.7678 34.2678C46.2989 34.7366 45.663 35 45 35H15C14.337 35 13.7011 34.7366 13.2322 34.2678C12.7634 33.7989 12.5 33.163 12.5 32.5C12.5 31.837 12.7634 31.2011 13.2322 30.7322C13.7011 30.2634 14.337 30 15 30H45C45.663 30 46.2989 30.2634 46.7678 30.7322C47.2366 31.2011 47.5 31.837 47.5 32.5ZM37.5 42.5C37.5 43.163 37.2366 43.7989 36.7678 44.2678C36.2989 44.7366 35.663 45 35 45H15C14.337 45 13.7011 44.7366 13.2322 44.2678C12.7634 43.7989 12.5 43.163 12.5 42.5C12.5 41.837 12.7634 41.2011 13.2322 40.7322C13.7011 40.2634 14.337 40 15 40H35C35.663 40 36.2989 40.2634 36.7678 40.7322C37.2366 41.2011 37.5 41.837 37.5 42.5ZM7.5 12.5C7.5 12.0055 7.64662 11.5222 7.92133 11.1111C8.19603 10.7 8.58648 10.3795 9.04329 10.1903C9.50011 10.0011 10.0028 9.95157 10.4877 10.048C10.9727 10.1445 11.4181 10.3826 11.7678 10.7322C12.1174 11.0819 12.3555 11.5273 12.452 12.0123C12.5484 12.4972 12.4989 12.9999 12.3097 13.4567C12.1205 13.9135 11.8 14.304 11.3889 14.5787C10.9778 14.8534 10.4945 15 10 15C9.33696 15 8.70107 14.7366 8.23223 14.2678C7.76339 13.7989 7.5 13.163 7.5 12.5ZM15 12.5C15 12.0055 15.1466 11.5222 15.4213 11.1111C15.696 10.7 16.0865 10.3795 16.5433 10.1903C17.0001 10.0011 17.5028 9.95157 17.9877 10.048C18.4727 10.1445 18.9181 10.3826 19.2678 10.7322C19.6174 11.0819 19.8555 11.5273 19.952 12.0123C20.0484 12.4972 19.9989 12.9999 19.8097 13.4567C19.6205 13.9135 19.3 14.304 18.8889 14.5787C18.4778 14.8534 17.9945 15 17.5 15C16.837 15 16.2011 14.7366 15.7322 14.2678C15.2634 13.7989 15 13.163 15 12.5ZM22.5 12.5C22.5 12.0055 22.6466 11.5222 22.9213 11.1111C23.196 10.7 23.5865 10.3795 24.0433 10.1903C24.5001 10.0011 25.0028 9.95157 25.4877 10.048C25.9727 10.1445 26.4181 10.3826 26.7678 10.7322C27.1174 11.0819 27.3555 11.5273 27.452 12.0123C27.5484 12.4972 27.4989 12.9999 27.3097 13.4567C27.1205 13.9135 26.8 14.304 26.3889 14.5787C25.9778 14.8534 25.4945 15 25 15C24.337 15 23.7011 14.7366 23.2322 14.2678C22.7634 13.7989 22.5 13.163 22.5 12.5Z" fill="#434343"/>
</svg>
