<svg width="635" height="434" fill="none" xmlns="http://www.w3.org/2000/svg"><path d="M247.696 222.517c-13.826-7.592-31.033-6.068-45.93-.878-14.897 5.191-28.396 13.695-42.862 19.984-44.206 19.22-97.486 16.121-139.16-8.094-3.942 9.159.286 19.636 4.93 28.46 4.645 8.825 9.939 18.389 8.027 28.174-2.447 12.522-15.588 20.029-20.912 31.626-5.055 11.008-2.342 23.935 1.536 35.41 3.877 11.475 8.91 23.035 8.25 35.128-.658 12.094-9.453 24.881-21.575 24.891 17.965 2.789 36.284 5.579 54.238 2.721 17.954-2.858 35.814-12.344 44.15-28.486 4.167-8.068 5.773-17.344 10.558-25.062 8.151-13.146 23.793-19.328 38.552-23.987 14.759-4.66 30.553-9.148 40.944-20.608 9.902-10.92 13.038-26.131 18.283-39.902a127.47 127.47 0 0144.171-57.549" fill="#4368FF"/><path d="M231.677 165.305c4.853-2.256 10.812-2.995 15.751-.899 4.938 2.096 8.305 7.469 6.708 12.224-.724 2.155-2.373 4.275-1.73 6.453.494 1.676 2.219 2.782 3.913 3.569 1.694.786 3.547 1.448 4.773 2.775 1.225 1.327 1.48 3.611-.05 4.64-.505.339-1.135.5-1.624.857a2.582 2.582 0 00-.796 2.885 6.078 6.078 0 001.95 2.562c1.737 1.497 4.033 3.21 3.494 5.335a3.743 3.743 0 01-2.528 2.363 12.59 12.59 0 01-3.712.489l-51.268 1.614a19.44 19.44 0 01-5.062-.283 5.988 5.988 0 01-3.975-2.668c-.982-1.815-.337-4.052.875-5.747 1.213-1.695 2.929-3.033 4.347-4.589 1.417-1.557 2.577-3.5 2.328-5.512-.201-1.611-1.264-3.003-2.027-4.466-.763-1.464-1.207-3.292-.218-4.639 1.393-1.897 4.737-1.725 6.321-3.493 1.195-1.334.964-3.255 1.083-4.975.286-4.138 3.154-8.046 7.236-9.861a14.265 14.265 0 0112.962.882l1.249.484z" fill="#2F2E41"/><path d="M264.074 425.04l8.03-2.41-5.485-32.089-11.851 3.557 9.306 30.942z" fill="#A0616A"/><path d="M264.364 433.431l25.891-7.772-.099-.327a10.501 10.501 0 00-5.092-6.233 10.532 10.532 0 00-8.012-.81h-.001l-15.813 4.747 3.126 10.395z" fill="#2F2E41"/><path d="M188.302 425.312l8.384-.001 3.989-32.309-12.374.001.001 32.309z" fill="#A0616A"/><path d="M186.164 433.431l27.034-.001v-.341a10.497 10.497 0 00-3.082-7.434 10.54 10.54 0 00-3.413-2.279 10.538 10.538 0 00-4.027-.8h-.001l-16.511.001v10.854zm13.777-32.556a3.078 3.078 0 003.037-2.588l12.449-77.585a2.393 2.393 0 013.573-1.685c.45.263.801.665 1.001 1.146l32.253 77.572a3.086 3.086 0 003.815 1.738l11.649-3.88a3.064 3.064 0 002.029-3.594l-26.431-116.848a3.09 3.09 0 00-2.306-2.318l-35.448-8.22a3.116 3.116 0 00-2.535.525c-23.341 16.944-21.369 72.301-17.019 132.41a3.079 3.079 0 002.937 2.852l10.861.472.135.003z" fill="#2F2E41"/><path d="M229.78 209.775c-9.277 0-16.797-7.513-16.797-16.781 0-9.268 7.52-16.781 16.797-16.781 9.276 0 16.797 7.513 16.797 16.781 0 9.268-7.521 16.781-16.797 16.781z" fill="#A0616A"/><path d="M229.055 279.968a27.322 27.322 0 0011.642-2.688l.125-.058.049-.129 15.066-38.997.286-6.775a16.237 16.237 0 00-10.5-15.882 16.272 16.272 0 00-6.659-1.022l-15.994.9a16.276 16.276 0 00-10.869 5.031 16.243 16.243 0 00-4.475 11.101c-.415.797-3.366 7.032 2.416 12.889.216 1.334 2.239 15.2-5.393 22.825l-.215.215.188.238c.121.154 9.923 12.35 24.333 12.352z" fill="#3F3D56"/><path d="M206.595 282.91a6.879 6.879 0 01-4.118-4.108 6.864 6.864 0 01.509-5.791l-15.975-18.477 12.593-1.638 13.24 17.798a6.902 6.902 0 012.306 8.881 6.917 6.917 0 01-8.555 3.335z" fill="#A0616A"/><path d="M196.607 268.649c.6 0 1.187-.176 1.688-.506l7.901-5.177a3.067 3.067 0 00.957-4.143l-5.72-9.601a4.276 4.276 0 01-.404-3.484 4.286 4.286 0 012.335-2.619l16.432-7.36a9.789 9.789 0 004.679-4.467 9.776 9.776 0 00.869-6.406 9.721 9.721 0 00-5.336-6.786 9.746 9.746 0 00-8.637.121l-24.929 12.762a13.103 13.103 0 00-6.887 14.194 13.108 13.108 0 002.233 5.135l12.324 17.06a3.066 3.066 0 002.495 1.277z" fill="#3F3D56"/><path d="M246.963 190.609c-5.304-.426-9.708-5.72-9.157-11.008a8.879 8.879 0 01-2.084 5.975 8.902 8.902 0 01-5.535 3.075c-2.433.268-5.101-.468-7.218.759-2.346 1.358-3.097 4.657-5.54 5.83-2.362 1.133-5.36-.413-6.527-2.756-1.167-2.343-.88-5.159-.107-7.659a21.626 21.626 0 015.827-9.348 21.662 21.662 0 0130.206.483c2.231 2.241 4.002 5.098 4.289 8.245.287 3.148-1.174 6.563-4.004 7.977l-.15-1.573z" fill="#2F2E41"/><path d="M286.041 144.125a6.867 6.867 0 00-2.124 10.319l-13.102 20.61 12.698-.217 10.495-19.538a6.908 6.908 0 00.984-9.123 6.916 6.916 0 00-8.951-2.051z" fill="#A0616A"/><path d="M275.48 158.8l-16.874 39.834-17.691 29.97a9.685 9.685 0 001.773 12.044 9.7 9.7 0 003.78 2.16 9.764 9.764 0 006.753-.444 9.747 9.747 0 004.839-4.727l34.097-72.787a3.078 3.078 0 00.033-2.532 3.067 3.067 0 00-1.879-1.698l-11.056-3.548a3.075 3.075 0 00-2.518.28 3.052 3.052 0 00-1.257 1.448z" fill="#3F3D56"/></svg>