<svg width="125" height="33" fill="none" xmlns="http://www.w3.org/2000/svg"><path d="M0 9.966l4.271-.267a3.26 3.26 0 00.566 1.586 2.369 2.369 0 001.983.87 2.193 2.193 0 001.482-.45 1.357 1.357 0 00.519-1.046 1.327 1.327 0 00-.496-1.01c-.33-.29-1.097-.568-2.3-.831-1.967-.443-3.372-1.03-4.213-1.762A3.557 3.557 0 01.545 4.25a3.811 3.811 0 01.65-2.114A4.309 4.309 0 013.146.58C4.016.193 5.206 0 6.718 0c1.858 0 3.274.345 4.248 1.035.975.69 1.555 1.788 1.74 3.296l-4.233.246a2.264 2.264 0 00-.708-1.426 2.268 2.268 0 00-1.49-.446 1.79 1.79 0 00-1.18.333 1.018 1.018 0 00-.398.806.814.814 0 00.328.626c.21.193.712.37 1.505.533 1.962.423 3.368.852 4.219 1.284a4.433 4.433 0 011.853 1.61c.388.649.59 1.393.58 2.15a4.593 4.593 0 01-.774 2.574 4.808 4.808 0 01-2.16 1.789 8.68 8.68 0 01-3.498.611c-2.474 0-4.186-.476-5.135-1.429A5.623 5.623 0 010 9.966zm14.875-2.447c0-2.37.661-4.216 1.983-5.536C18.181.663 20.021.002 22.38 0c2.419 0 4.282.65 5.59 1.948 1.31 1.299 1.963 3.116 1.961 5.453 0 1.698-.29 3.09-.87 4.177a6.112 6.112 0 01-2.48 2.536c-1.078.603-2.424.905-4.038.907-1.614.002-2.968-.259-4.06-.782a6.12 6.12 0 01-2.61-2.479c-.664-1.13-.997-2.544-.997-4.24zm4.492.018c0 1.467.272 2.52.817 3.16a2.766 2.766 0 002.224.962 2.768 2.768 0 002.239-.934c.528-.626.791-1.751.791-3.377 0-1.368-.275-2.367-.826-2.997a2.833 2.833 0 00-2.247-.948 2.735 2.735 0 00-2.178.945c-.547.65-.82 1.712-.82 3.189zM32.348.247h4.492v10.948h7.005v3.589H32.348V.246zm22.47 0h4.48v8.655a7.227 7.227 0 01-.404 2.43 5.244 5.244 0 01-1.258 2 5 5 0 01-1.798 1.202 9.026 9.026 0 01-3.143.487 19.263 19.263 0 01-2.32-.15 6.017 6.017 0 01-2.096-.58 5.219 5.219 0 01-1.534-1.247 4.584 4.584 0 01-.957-1.672 8.649 8.649 0 01-.417-2.455V.247h4.48v8.86a2.518 2.518 0 00.66 1.856 2.834 2.834 0 003.645 0 2.524 2.524 0 00.662-1.867V.246zm6.43 0h13.65v3.588h-4.582v10.949h-4.495V3.835H61.25V.246zm15.859 0h4.5v21.517h-4.5V.246zm7.156 7.272c0-2.37.66-4.216 1.98-5.536C87.564.663 89.4.002 91.754 0c2.43 0 4.297.65 5.602 1.948 1.305 1.299 1.958 3.116 1.96 5.453 0 1.698-.285 3.09-.855 4.177a6.111 6.111 0 01-2.482 2.536c-1.079.603-2.425.905-4.04.907-1.614.002-2.967-.259-4.059-.782a6.12 6.12 0 01-2.61-2.479c-.67-1.13-1.006-2.544-1.006-4.24zm4.489.02c0 1.467.272 2.52.818 3.16a3.094 3.094 0 004.465.02c.522-.626.783-1.751.783-3.376 0-1.369-.276-2.368-.827-2.998a2.832 2.832 0 00-2.244-.948 2.726 2.726 0 00-2.172.951c-.55.65-.825 1.712-.823 3.189v.003zM101.777.247h4.19l5.471 8.039V.246h4.234v14.538h-4.234l-5.451-7.986v7.986h-4.21V.246zM36.083 27.712l4.416-.29c.046.588.246 1.154.58 1.64a2.456 2.456 0 002.05.914 2.262 2.262 0 001.534-.467 1.398 1.398 0 00.536-1.081 1.383 1.383 0 00-.513-1.046c-.34-.308-1.134-.598-2.377-.87-2.036-.458-3.486-1.067-4.35-1.826a3.671 3.671 0 01-1.314-2.899 3.93 3.93 0 01.673-2.188 4.45 4.45 0 012.03-1.62c.899-.387 2.131-.58 3.697-.58 1.92 0 3.384.356 4.393 1.069s1.608 1.85 1.798 3.409l-4.379.258a2.028 2.028 0 00-2.273-1.94 1.859 1.859 0 00-1.22.346 1.056 1.056 0 00-.413.834.834.834 0 00.328.655c.22.194.74.378 1.557.554 2.034.439 3.489.881 4.364 1.328a4.57 4.57 0 011.917 1.667c.402.67.61 1.44.6 2.223a4.764 4.764 0 01-.8 2.667 5 5 0 01-2.236 1.85 8.992 8.992 0 01-3.619.631c-2.555 0-4.325-.492-5.309-1.475a5.81 5.81 0 01-1.67-3.763zm14.916-10.059h14.115v3.71h-4.735v11.323h-4.64V21.364H51v-3.71zm26.096 0h4.538v8.955a7.717 7.717 0 01-.406 2.516 5.467 5.467 0 01-1.276 2.07 5.092 5.092 0 01-1.82 1.246 9.038 9.038 0 01-3.19.501 19.798 19.798 0 01-2.343-.153 6.062 6.062 0 01-2.123-.609 5.329 5.329 0 01-1.562-1.299 4.807 4.807 0 01-.969-1.739 9.136 9.136 0 01-.42-2.542v-8.946h4.537v9.17a2.648 2.648 0 00.667 1.921 2.83 2.83 0 003.695 0 2.635 2.635 0 00.666-1.93l.006-9.16zm7.676 0h6.9a8.27 8.27 0 013.295.554c.813.35 1.526.895 2.076 1.589a6.573 6.573 0 011.189 2.411c.25.946.375 1.92.37 2.9 0 1.605-.183 2.85-.55 3.736a6.16 6.16 0 01-1.522 2.226 4.961 4.961 0 01-2.091 1.194c-.9.257-1.83.395-2.766.412H84.77V17.653zm4.639 3.404v8.22h1.137c.966 0 1.656-.108 2.07-.324a2.18 2.18 0 00.968-1.125c.233-.535.348-1.405.348-2.609 0-1.591-.26-2.684-.78-3.27-.519-.585-1.38-.87-2.583-.87l-1.16-.023zm11.813-3.404h4.654v15.033h-4.654V17.653zm7.4 7.537c0-2.452.684-4.363 2.053-5.73 1.369-1.369 3.272-2.058 5.709-2.068 2.502 0 4.429.672 5.782 2.015 1.353 1.343 2.03 3.224 2.03 5.644 0 1.757-.296 3.197-.887 4.322a6.303 6.303 0 01-2.564 2.623c-1.117.627-2.51.94-4.178.94-1.668 0-3.071-.27-4.207-.81a6.353 6.353 0 01-2.7-2.564c-.692-1.156-1.038-2.617-1.038-4.384v.012zm4.639.02c0 1.52.283 2.61.847 3.273a3.196 3.196 0 002.305 1 3.192 3.192 0 002.314-.98c.545-.649.818-1.814.818-3.495 0-1.417-.285-2.45-.856-3.102a2.928 2.928 0 00-2.319-.98 2.825 2.825 0 00-2.256.994c-.563.653-.845 1.746-.847 3.279l-.006.011z" fill="#fff"/></svg>