<svg width="482" height="324" fill="none" xmlns="http://www.w3.org/2000/svg"><path d="M0 38.724l16.576-1.036c.18 2.21.937 4.335 2.194 6.161a9.193 9.193 0 007.698 3.38 8.502 8.502 0 005.75-1.746 5.27 5.27 0 002.014-4.067 5.164 5.164 0 00-1.924-3.92c-1.283-1.133-4.257-2.21-8.924-3.232-7.637-1.72-13.087-4.002-16.35-6.848a13.82 13.82 0 01-4.918-10.904 14.821 14.821 0 012.52-8.21 16.725 16.725 0 017.574-6.05C15.586.752 20.207 0 26.074 0c7.21 0 12.705 1.34 16.486 4.021 3.781 2.68 6.032 6.95 6.752 12.807l-16.43.957a8.8 8.8 0 00-2.746-5.541 8.795 8.795 0 00-5.784-1.735 6.938 6.938 0 00-4.58 1.295 3.953 3.953 0 00-1.542 3.132 3.168 3.168 0 001.272 2.433c.818.75 2.765 1.441 5.84 2.072 7.615 1.645 13.073 3.308 16.374 4.99a17.21 17.21 0 017.19 6.251 15.905 15.905 0 012.251 8.358 17.865 17.865 0 01-3.004 10.002 18.662 18.662 0 01-8.384 6.95 33.656 33.656 0 01-13.571 2.376c-9.603 0-16.246-1.85-19.93-5.553A21.86 21.86 0 010 38.725zm57.73-9.506c0-9.214 2.565-16.385 7.697-21.514C70.558 2.576 77.7.008 86.853 0c9.385 0 16.617 2.523 21.696 7.57 5.079 5.045 7.615 12.108 7.607 21.186 0 6.6-1.125 12.01-3.376 16.231a23.73 23.73 0 01-9.621 9.856c-4.187 2.342-9.412 3.518-15.676 3.525-6.264.008-11.516-1.006-15.755-3.041a23.765 23.765 0 01-10.128-9.63c-2.58-4.393-3.87-9.886-3.87-16.48zm17.43.067c0 5.7 1.058 9.792 3.174 12.278a10.737 10.737 0 008.631 3.74 10.726 10.726 0 008.688-3.627c2.048-2.434 3.072-6.808 3.072-13.123 0-5.316-1.07-9.198-3.207-11.646a10.994 10.994 0 00-8.722-3.684 10.604 10.604 0 00-8.45 3.672c-2.124 2.524-3.185 6.654-3.185 12.39zM125.542.957h17.432V43.5h27.188v13.945h-44.62V.957zm87.202 0h17.386v33.634a28.103 28.103 0 01-1.564 9.439 20.372 20.372 0 01-4.884 7.771 19.397 19.397 0 01-6.977 4.675 35 35 0 01-12.198 1.892 74.67 74.67 0 01-9.003-.586 23.334 23.334 0 01-8.136-2.252 20.252 20.252 0 01-5.953-4.844 17.816 17.816 0 01-3.714-6.499 33.624 33.624 0 01-1.62-9.54V.957h17.386V35.39a9.793 9.793 0 002.566 7.21 10.988 10.988 0 0014.145 0 9.796 9.796 0 002.566-7.255V.957zm24.96 0h52.969v13.945h-17.78v42.543H255.45V14.902h-17.746V.957zm61.544 0h17.465v83.61h-17.465V.957zm27.773 28.26c0-9.213 2.562-16.384 7.686-21.513C339.83 2.576 346.957.008 356.087 0c9.43 0 16.678 2.523 21.741 7.57 5.064 5.045 7.6 12.108 7.608 21.186 0 6.6-1.107 12.01-3.32 16.231a23.733 23.733 0 01-9.633 9.856c-4.186 2.342-9.411 3.518-15.676 3.525-6.264.008-11.515-1.006-15.754-3.041a23.763 23.763 0 01-10.128-9.63c-2.603-4.393-3.905-9.886-3.905-16.48zm17.42.08c0 5.7 1.058 9.792 3.173 12.277a12.017 12.017 0 008.649 3.738 11.995 11.995 0 008.681-3.66c2.026-2.432 3.039-6.806 3.039-13.121 0-5.317-1.069-9.199-3.207-11.647a11 11 0 00-8.71-3.683 10.567 10.567 0 00-8.429 3.694c-2.138 2.524-3.203 6.654-3.196 12.39v.012zM394.99.957h16.261l21.235 31.234V.957h16.429v56.488h-16.429l-21.157-31.032v31.032H394.99V.957zM140.036 107.68l17.138-1.126c.18 2.286.956 4.484 2.251 6.375a9.527 9.527 0 007.956 3.548 8.767 8.767 0 005.953-1.813 5.434 5.434 0 002.082-4.201 5.371 5.371 0 00-1.992-4.067c-1.317-1.194-4.4-2.32-9.228-3.379-7.899-1.779-13.526-4.145-16.879-7.096a14.265 14.265 0 01-5.098-11.264 15.285 15.285 0 012.611-8.504 17.27 17.27 0 017.877-6.296c3.488-1.502 8.271-2.253 14.348-2.253 7.449 0 13.132 1.386 17.048 4.157 3.917 2.77 6.242 7.186 6.978 13.246l-16.993 1.002a7.883 7.883 0 00-8.822-7.535 7.208 7.208 0 00-4.738 1.34 4.093 4.093 0 00-1.598 3.244 3.255 3.255 0 001.272 2.546c.855.75 2.869 1.468 6.043 2.151 7.892 1.705 13.537 3.424 16.936 5.159a17.74 17.74 0 017.438 6.476 16.412 16.412 0 012.33 8.64 18.54 18.54 0 01-3.106 10.362 19.407 19.407 0 01-8.677 7.186 34.842 34.842 0 01-14.044 2.456c-9.918 0-16.786-1.911-20.604-5.733a22.59 22.59 0 01-6.482-14.621zm57.887-39.084h54.78v14.417h-18.376v43.996h-18.005V83.013h-18.399V68.596zm101.279 0h17.611v34.793a30.004 30.004 0 01-1.575 9.777 21.248 21.248 0 01-4.952 8.042 19.724 19.724 0 01-7.067 4.843A35.01 35.01 0 01290.841 128a76.785 76.785 0 01-9.093-.597 23.521 23.521 0 01-8.237-2.365 20.771 20.771 0 01-6.066-5.046 18.688 18.688 0 01-3.758-6.759 35.505 35.505 0 01-1.632-9.878v-34.76h17.611v35.627a10.294 10.294 0 002.588 7.468 10.976 10.976 0 0014.337 0 10.224 10.224 0 002.588-7.501l.023-35.593zm29.787 0h26.783a32.07 32.07 0 0112.784 2.15 20.714 20.714 0 018.057 6.173 25.556 25.556 0 014.614 9.372 43.338 43.338 0 011.44 11.263c0 6.24-.712 11.08-2.138 14.519a23.938 23.938 0 01-5.908 8.651 19.24 19.24 0 01-8.113 4.64 41.899 41.899 0 01-10.736 1.6h-26.783V68.596zm18.006 13.223v31.944h4.411c3.751 0 6.429-.421 8.035-1.262a8.463 8.463 0 003.758-4.37c.901-2.08 1.351-5.459 1.351-10.137 0-6.184-1.013-10.43-3.027-12.706-2.015-2.275-5.357-3.379-10.027-3.379l-4.501-.09zm45.845-13.223h18.062v58.413H392.84V68.596zm28.719 29.285c0-9.529 2.655-16.952 7.967-22.268 5.312-5.317 12.697-7.994 22.158-8.031 9.708 0 17.187 2.61 22.439 7.828C479.374 80.63 482 87.94 482 97.34c0 6.826-1.148 12.424-3.443 16.794a24.456 24.456 0 01-9.948 10.194c-4.337 2.433-9.742 3.649-16.216 3.649-6.475 0-11.918-1.047-16.329-3.142a24.673 24.673 0 01-10.477-9.968c-2.685-4.491-4.028-10.168-4.028-17.031v.045zm18.005.079c0 5.902 1.095 10.141 3.286 12.717a12.374 12.374 0 008.946 3.884 12.376 12.376 0 008.98-3.806c2.116-2.523 3.174-7.051 3.174-13.584 0-5.504-1.107-9.521-3.32-12.052a11.382 11.382 0 00-9.003-3.807 10.94 10.94 0 00-8.755 3.864c-2.183 2.538-3.278 6.784-3.286 12.739l-.022.045z" fill="#fff"/><path d="M97.983 136.971v15.467H40.182v-14.522h-1.676v185.346h1.676V290.08h57.801v33.182h1.676V136.971h-1.676zm0 17.145v25.515H40.182v-25.515h57.801zm-57.801 79.9v-25.514h57.801v25.514H40.182zm57.801 1.679v25.514H40.182v-25.514h57.801zm-57.801-28.871v-25.515h57.801v25.515H40.182zm0 81.578v-25.515h57.801v25.515H40.182z" fill="#55546C"/><path d="M21.956 140.653v2.319s-1.653.662-1.653 3.312c0 2.649-1.323 12.585-1.323 12.585s2.314 1.988 4.298 1.325a8.066 8.066 0 002.976-1.656l.331-10.267-1.323-2.65v-4.636l-3.306-.332z" fill="#6C63FF"/><path d="M26.254 137.673s-3.637-1.988-4.299 0c-.66 1.987-2.645 6.292 0 6.624 2.646.331 5.29-1.988 5.29-1.988l-.991-4.636z" fill="#FFB8B8"/><path d="M44.155 151.088s-1.99 2.634.898 28.33c2.889 25.696 1.224 44.406 6.708 44.149 0 0-1.431 5.572 3.228 5.778 4.66.205 6.79.529 7.152-.758.363-1.287.93-7.242-.335-7.183 0 0 .079 1.69.608-5.11.528-6.8-.968-38.913.944-43.237l7.478 15.318s.335 7.183 1.758 10.505c1.423 3.321 4.438 22.659 4.438 22.659l-.284 2.977s10.203 1.217 10.546-.493c.343-1.71.225-4.245-.236-5.07-.462-.826-.462-.826.303-2.555a5.134 5.134 0 00.225-4.245c-.48-1.248-1.76-28.713-1.76-28.713s-2.4-33.341-7.541-34.795c-5.141-1.453-34.13 2.443-34.13 2.443z" fill="#55546C"/><path d="M53.145 226.043l-3.1 6.074s-5.36-1.655-4.08 3.155a84.291 84.291 0 0015.388-.932s2.148.747 2.511-.54c.363-1.288-1.32-5.655-2.586-5.596-1.265.059-8.133-2.161-8.133-2.161zm24.388-2.834s-3.02 7.763-1.735 8.127c1.285.363 12.754 1.521 13.617 1.904.863.383 5.101.608 5.405-1.947.304-2.555-2.267-3.281-2.267-3.281s-4.68-.629-6.142-4.795c-1.462-4.166-8.878-.008-8.878-.008z" fill="#55546C"/><path d="M48.896 88.098c4.878 0 8.833-3.96 8.833-8.847 0-4.886-3.955-8.847-8.833-8.847s-8.833 3.96-8.833 8.847c0 4.886 3.955 8.847 8.833 8.847z" fill="#FFB8B8"/><path d="M44.248 83.442s2.324 12.106 1.394 14.434c-.93 2.329 13.016-.93 13.016-.93s-2.789-12.107-2.324-14.901c.465-2.794-12.086 1.397-12.086 1.397z" fill="#FFB8B8"/><path d="M48.628 68.323a4.984 4.984 0 00-2.21.098 5.76 5.76 0 00-1.57 1.032 18.375 18.375 0 01-2.684 1.782c-.79.34-1.5.839-2.09 1.466a4.45 4.45 0 00-.589 1.118 13.416 13.416 0 00-.703 7.29c.05.348.155.686.31 1.001.483.892 1.55 1.243 2.449 1.71 1.707.888 3 2.383 4.4 3.703a8.6 8.6 0 001.739 1.342c1.997 1.091 4.438.735 6.68.35a1.202 1.202 0 001.201-1.218l1.77-7.972c.32-1.18.473-2.401.453-3.625-.123-1.936-1.17-4.616-2.587-5.99-1.652-1.603-4.41-1.858-6.57-2.087z" fill="#55546C"/><path d="M42.126 98.591s.66-4.637 4.629-4.968a32.666 32.666 0 006.613-1.325c.33 0 4.629.332 6.613 2.319 0 0 1.322 1.987 1.984.662.661-1.325.661-1.987 1.984-1.325 1.322.663 1.322-1.987 3.637-1.656 2.314.332 8.266 15.236 8.266 15.236l-1.984 2.318s-2.645 17.885 1.984 25.502c4.63 7.618 6.613 15.898 1.984 17.554-4.629 1.656-37.033 16.56-35.71 7.286 1.322-9.273.33-23.846-.992-24.177-1.323-.332-8.597-26.496-8.597-26.496a10.293 10.293 0 015.951-7.618c5.29-2.318 3.638-3.312 3.638-3.312z" fill="#CFD2FF"/><path d="M85.211 48.58s-5.75.663-5.75 3.312c0 2.65-4.6 12.586-4.6 12.586s8.05 1.987 14.95 1.325c6.901-.663 10.352-1.656 10.352-1.656l1.15-10.268-4.6-2.65L85.21 48.58z" fill="#6C63FF"/><path d="M85.772 71.764v-6.293s-6.944-13.91-1.323-13.91 6.282 12.586 6.282 12.586v8.942l-4.96-1.325z" fill="#FFB8B8"/><path d="M65.933 93.623l1.653-1.325s2.976 0 3.306-.662c.331-.662 1.984-.662 3.307-1.325 1.323-.662-.33-1.656 1.323-2.318 1.653-.663 1.653 0 1.653-1.656s4.298-3.312 4.629-5.3c.33-1.987 3.637-11.26 3.637-11.26l6.282 1.987-1.653 11.923s0 5.962-2.976 9.936c-2.975 3.975-9.588 13.911-12.895 14.242-3.307.331-8.266-14.242-8.266-14.242zM34.52 107.865l-1.983 1.656s-.661 7.286-.661 7.617c0 .332.66 4.306 0 4.637-.662.331-1.984 6.955-1.654 7.287v.993l-4.629 7.286v6.956l10.912-6.956s6.282-.662 5.29-6.292c-.992-5.631-7.274-23.184-7.274-23.184z" fill="#CFD2FF"/></svg>