<svg width="412" height="311" fill="none" xmlns="http://www.w3.org/2000/svg"><g clip-path="url(#clip0)"><path d="M239.061 304.1a45.188 45.188 0 01-9.882 5.803c-.917.395-1.839.762-2.777 1.097h-47.867c-.194-.362-.382-.73-.576-1.097-3.883-7.482-7.405-15.254-8.403-23.706-1.198-10.147 2.16-21.639 10.462-26.624a15.932 15.932 0 013.434-1.547c.495-.165.999-.296 1.509-.412a16.728 16.728 0 019.385.47c3.035 1.051 5.754 2.953 7.879 5.51s3.579 5.677 4.213 9.039a20.729 20.729 0 01-.609 10.092c7.038-7.767 5.723-20.361 3.297-30.886-2.43-10.526-5.376-22.242-.428-31.698 2.747-5.26 7.583-8.524 13.005-9.84.169-.039.337-.077.5-.11 6.464-1.409 13.185-.142 18.82 3.549 10.375 7.032 15.7 20.377 17.428 33.442 2.788 21.029-3.379 44.494-19.39 56.918z" fill="#F2F2F2"/><path d="M188.717 264.317c3.832 8.374 5.055 17.855 3.486 27.036-1.184 6.731-3.792 13.079-7.624 18.55-.26.373-.525.74-.795 1.097h-1.89c.29-.357.575-.724.846-1.097 3.479-4.666 6.002-10.072 7.402-15.862a45.55 45.55 0 00.721-17.734c-1.098-6.637-3.637-12.901-7.41-18.281.494-.165.999-.296 1.508-.412a44.71 44.71 0 013.756 6.703zm45.793 6.072a50.984 50.984 0 01-3.073 13.504 42.3 42.3 0 01-6.004 10.553c-5.06 6.555-11.756 11.486-19.028 14.766-.53.241-1.065.472-1.605.691a54.46 54.46 0 01-2.839 1.097h-5.162a64.69 64.69 0 003.628-1.097 58.117 58.117 0 008.312-3.527c6.828-3.483 12.756-8.717 17.265-15.243 4.836-7.185 6.972-15.824 7.339-24.605.387-9.396-.749-18.962-2.742-28.106a123.636 123.636 0 00-9.209-27.002.91.91 0 01-.052-.627.84.84 0 01.363-.492.644.644 0 01.5-.11.558.558 0 01.23.128.631.631 0 01.157.223c.504 1.059.999 2.117 1.473 3.187a126.025 126.025 0 018.678 28.017c1.748 9.347 2.686 19.127 1.769 28.643z" fill="#fff"/><path d="M21.643 155.226c-4.233 0-8.372-1.351-11.891-3.883-3.52-2.531-6.264-6.129-7.884-10.338a24.678 24.678 0 01-1.217-13.311c.825-4.468 2.864-8.573 5.857-11.795 2.994-3.222 6.807-5.416 10.96-6.305a20.001 20.001 0 0112.365 1.311c3.911 1.744 7.254 4.697 9.606 8.485 2.352 3.788 3.607 8.242 3.607 12.799-.006 6.107-2.263 11.963-6.276 16.282-4.013 4.318-9.453 6.748-15.127 6.755zm0-44.977c-4.032 0-7.973 1.286-11.325 3.697-3.352 2.411-5.965 5.838-7.508 9.847a23.498 23.498 0 00-1.16 12.676c.787 4.256 2.728 8.165 5.579 11.234 2.85 3.068 6.483 5.158 10.437 6.004 3.954.847 8.053.412 11.777-1.248 3.725-1.661 6.909-4.473 9.149-8.081 2.24-3.608 3.435-7.85 3.435-12.189-.006-5.817-2.156-11.394-5.977-15.507-3.822-4.113-9.003-6.427-14.407-6.433zm86.632-29.071c-4.233 0-8.37-1.351-11.89-3.882-3.52-2.532-6.264-6.13-7.884-10.339a24.675 24.675 0 01-1.218-13.31c.826-4.469 2.865-8.574 5.858-11.796 2.993-3.221 6.807-5.415 10.959-6.304a19.996 19.996 0 0112.366 1.31c3.911 1.744 7.254 4.697 9.606 8.485 2.352 3.789 3.607 8.243 3.607 12.8-.007 6.107-2.264 11.962-6.276 16.281-4.013 4.319-9.453 6.748-15.128 6.755zm0-44.977c-4.031 0-7.972 1.287-11.324 3.698-3.352 2.41-5.965 5.837-7.508 9.846a23.498 23.498 0 00-1.16 12.676c.787 4.256 2.728 8.166 5.579 11.234 2.85 3.068 6.483 5.158 10.437 6.005 3.954.846 8.052.412 11.777-1.249 3.725-1.66 6.908-4.473 9.148-8.08 2.24-3.609 3.436-7.85 3.436-12.19-.006-5.817-2.156-11.393-5.977-15.507-3.822-4.113-9.003-6.426-14.408-6.433zm92.749 9.873c-4.234 0-8.372-1.351-11.892-3.882-3.519-2.532-6.263-6.13-7.883-10.34a24.683 24.683 0 01-1.218-13.31c.826-4.468 2.865-8.573 5.858-11.795 2.993-3.221 6.807-5.415 10.959-6.304a19.996 19.996 0 0112.366 1.31c3.911 1.744 7.254 4.697 9.606 8.485 2.352 3.789 3.607 8.243 3.607 12.799-.007 6.108-2.264 11.963-6.276 16.282-4.013 4.319-9.453 6.748-15.127 6.755zm0-44.977c-4.032 0-7.973 1.287-11.325 3.698-3.353 2.41-5.965 5.837-7.508 9.846a23.494 23.494 0 00-1.16 12.676c.787 4.256 2.728 8.166 5.579 11.234 2.85 3.068 6.483 5.158 10.437 6.005 3.954.846 8.052.412 11.777-1.249 3.725-1.66 6.909-4.473 9.148-8.08 2.24-3.609 3.436-7.85 3.436-12.19-.006-5.817-2.156-11.393-5.977-15.507-3.822-4.113-9.003-6.426-14.407-6.433zm98.863 81.178c-4.233 0-8.371-1.351-11.891-3.882-3.52-2.532-6.263-6.13-7.883-10.339a24.673 24.673 0 01-1.218-13.31c.826-4.469 2.864-8.574 5.857-11.796 2.994-3.221 6.807-5.415 10.959-6.304a20 20 0 0112.367 1.31c3.911 1.744 7.253 4.697 9.605 8.485 2.352 3.789 3.607 8.243 3.607 12.8-.006 6.107-2.263 11.962-6.276 16.281-4.012 4.319-9.453 6.748-15.127 6.755zm0-44.977c-4.032 0-7.973 1.287-11.325 3.698-3.352 2.41-5.965 5.837-7.508 9.846a23.503 23.503 0 00-1.16 12.676c.787 4.256 2.728 8.166 5.579 11.234 2.851 3.068 6.483 5.158 10.437 6.005 3.954.846 8.053.412 11.777-1.249 3.725-1.66 6.909-4.473 9.149-8.08 2.24-3.609 3.435-7.85 3.435-12.19-.006-5.817-2.156-11.394-5.977-15.507-3.822-4.113-9.003-6.426-14.407-6.433zm90.71 100.376c-4.233 0-8.372-1.351-11.891-3.883-3.52-2.531-6.263-6.129-7.883-10.338a24.676 24.676 0 01-1.218-13.311c.825-4.468 2.864-8.573 5.857-11.795 2.994-3.222 6.807-5.416 10.959-6.305a20 20 0 0112.367 1.311c3.91 1.744 7.253 4.697 9.605 8.485 2.352 3.788 3.607 8.242 3.607 12.799-.006 6.107-2.263 11.963-6.276 16.282-4.012 4.318-9.453 6.748-15.127 6.755zm0-44.977c-4.032 0-7.973 1.286-11.325 3.697-3.352 2.411-5.965 5.838-7.508 9.847a23.502 23.502 0 00-1.16 12.676c.787 4.256 2.728 8.165 5.579 11.234 2.851 3.068 6.483 5.158 10.437 6.004 3.954.847 8.053.412 11.777-1.248 3.725-1.661 6.909-4.473 9.149-8.081 2.239-3.608 3.435-7.85 3.435-12.189-.006-5.817-2.156-11.394-5.977-15.507-3.822-4.113-9.003-6.427-14.407-6.433z" fill="#3F3D56"/><path d="M120.506 51.832l2.548-.548s-2.14 2.578-2.548 2.742a11.89 11.89 0 000 1.646c-4.892 22.598-22.932 12.615-22.932 12.615 6.574.165 7.135-2.742 7.135-2.742-3.822-.604-4.587-3.291-4.587-3.291.343.194.741.246 1.117.145s.704-.348.922-.694c-4.128-1.152-3.568-5.485-3.568-5.485.736.572 1.596.93 2.497 1.042-.458-.603-4.331-5.595-1.987-8.172 0 0 2.854 5.485 10.345 5.978l.51-.11a4.61 4.61 0 01-.102-1.206c0-1.528.563-2.992 1.567-4.073 1.003-1.08 2.364-1.686 3.784-1.686 3.567 0 4.331 2.194 4.331 2.194l2.548-1.646c-.051 0-.306 2.743-1.58 3.291z" fill="#3F3D56"/><path d="M283.238 295.989l5.611 2.96 13.276-21.881-8.28-4.369-10.607 23.29z" fill="#FFB8B8"/><path d="M282.705 293.263l11.048 5.829a7.942 7.942 0 012.432 1.998 8.613 8.613 0 011.536 2.848 9.046 9.046 0 01-.379 6.447l-.112.246-18.088-9.544 3.563-7.824z" fill="#2F2E41"/><path d="M338.833 306.306h6.248l2.972-25.937h-9.221l.001 25.937z" fill="#FFB8B8"/><path d="M337.239 301.917h12.305c1.029 0 2.049.218 3 .642a7.829 7.829 0 012.544 1.829 8.514 8.514 0 011.7 2.738 9.006 9.006 0 01.597 3.23v.274l-20.145.001-.001-8.714z" fill="#2F2E41"/><path d="M325.413 127.301c6.913 0 12.516-6.031 12.516-13.472 0-7.44-5.603-13.471-12.516-13.471s-12.517 6.031-12.517 13.471c0 7.441 5.604 13.472 12.517 13.472z" fill="#FFB8B8"/><path d="M337.877 297.751a2.208 2.208 0 01-1.585-.686 2.557 2.557 0 01-.704-1.674l-4.838-69.31a.86.86 0 00-.174-.496.765.765 0 00-.42-.279.717.717 0 00-.49.055.792.792 0 00-.357.366l-30.949 63.594a2.359 2.359 0 01-1.328 1.199 2.162 2.162 0 01-1.729-.136l-8.628-4.644a2.425 2.425 0 01-1.146-1.421 2.648 2.648 0 01.115-1.879l18.468-40.277 12.232-30.17c4.721-10.01 9.735-15.168 15.327-15.77 5.737-.617 11.864 3.629 18.734 12.981l.056.077-.001.097-1.02 84.665a2.565 2.565 0 01-.596 1.663 2.229 2.229 0 01-1.483.791l-9.26 1.243c-.075.008-.15.011-.224.011z" fill="#2F2E41"/><path d="M312.202 216.865a5.678 5.678 0 001.701-1.78 6.16 6.16 0 00.842-2.387 6.325 6.325 0 00-.176-2.547 6.03 6.03 0 00-1.16-2.227l1.887-53.674-9.172 1.23-.774 52.217c-.943 1.036-1.5 2.408-1.566 3.857a6.225 6.225 0 001.209 4.003c.844 1.13 2.045 1.887 3.373 2.128a5.179 5.179 0 003.836-.82z" fill="#FFB8B8"/><path d="M318.006 163.74l-12.319-1.507a2.344 2.344 0 01-.99-.363 2.548 2.548 0 01-.76-.773 2.753 2.753 0 01-.392-1.044 2.843 2.843 0 01.047-1.125l3.181-12.855c.214-1.929 1.13-3.688 2.546-4.891 1.417-1.203 3.22-1.752 5.012-1.527 1.793.225 3.429 1.206 4.551 2.727 1.122 1.522 1.637 3.46 1.433 5.39l.421 13.253c.012.379-.052.757-.188 1.107a2.646 2.646 0 01-.6.923 2.41 2.41 0 01-.902.57c-.335.118-.69.157-1.04.115z" fill="#4368FF"/><path d="M371.068 129.952a6.327 6.327 0 00-.122.899l-21.891 13.593-5.321-3.297-5.672 7.993 8.892 6.822a3.882 3.882 0 002.466.814 3.905 3.905 0 002.426-.942l22.573-19.168a4.986 4.986 0 003.181.179 5.303 5.303 0 002.711-1.798 5.973 5.973 0 001.281-3.139 6.134 6.134 0 00-.603-3.366 5.558 5.558 0 00-2.274-2.4 5.015 5.015 0 00-3.139-.583 5.187 5.187 0 00-2.89 1.44 5.862 5.862 0 00-1.618 2.953z" fill="#FFB8B8"/><path d="M348.323 145.088l-7.075 9.87a2.345 2.345 0 01-.748.677 2.152 2.152 0 01-1.907.112 2.277 2.277 0 01-.812-.585l-8.01-8.952c-1.33-1.116-2.195-2.755-2.404-4.556-.209-1.802.255-3.619 1.289-5.053 1.035-1.434 2.555-2.368 4.228-2.597 1.674-.229 3.363.266 4.697 1.376l10.046 6.046c.288.174.537.412.732.698.194.286.329.614.395.962.066.347.062.706-.012 1.052a2.573 2.573 0 01-.419.95z" fill="#4368FF"/><path d="M354.094 213.402l-13.583-71.212c-.645-3.384-2.485-6.368-5.131-8.323-2.647-1.956-5.895-2.731-9.061-2.163l-4.53.813c-1.574.282-3.08.895-4.434 1.804a12.571 12.571 0 00-3.454 3.493 19.03 19.03 0 00-2.905 7.455 19.62 19.62 0 00.37 8.073l7.498 28.882-5.564 30.942a2.34 2.34 0 00.043 1.033c.091.335.256.643.479.896.224.253.501.446.808.56.307.115.635.149.956.1a145.531 145.531 0 0112.651-1.375l2.857-11.862 1.162 11.674c6.479-.196 13.511.146 19.312 1.768.336.097.689.099 1.026.008.337-.091.646-.274.899-.53s.441-.578.546-.934c.106-.357.125-.736.055-1.102z" fill="#4368FF"/><path d="M330.229 110.832c3.217 2.37 7.441 4.806 10.726 2.282 2.158-1.657 2.838-4.725 1.963-7.418-1.574-4.843-5.896-6.974-10.03-8.609-5.373-2.124-11.224-3.814-16.771-2.293-5.547 1.522-10.45 7.303-9.449 13.369.806 4.878 5.081 8.938 4.474 13.849-.611 4.944-5.775 7.545-10.335 8.429-4.56.883-9.663 1.167-12.94 4.692-4.18 4.498-3.136 12.536.798 17.284 3.933 4.747 9.869 6.9 15.621 8.363 7.621 1.938 15.863 2.957 23.101-.26 7.238-3.217 12.871-11.877 10.774-19.998-.886-3.43-2.972-6.329-4.988-9.152-2.017-2.822-4.058-5.773-4.827-9.236-.641-2.885-.167-6.236 1.611-8.4a2.52 2.52 0 00.581-1.369 2.589 2.589 0 00-.278-1.476l-.031-.057z" fill="#2F2E41"/><path d="M206.853 11.64c1.426.005 2.792.617 3.8 1.702s1.577 2.556 1.581 4.09v11.582c-.004 1.534-.573 3.004-1.581 4.09-1.008 1.085-2.374 1.696-3.8 1.7h-10.76c-1.426-.004-2.792-.615-3.8-1.7-1.008-1.086-1.576-2.556-1.581-4.09V17.431c.005-1.534.573-3.005 1.581-4.09s2.374-1.697 3.8-1.701h10.76zm0-2.315h-10.76c-1.996.006-3.908.862-5.32 2.381-1.411 1.52-2.207 3.578-2.212 5.726v11.582c.005 2.148.801 4.206 2.212 5.726 1.412 1.519 3.324 2.375 5.32 2.381h10.76c1.996-.006 3.909-.862 5.32-2.382 1.412-1.519 2.207-3.577 2.213-5.725V17.431c-.006-2.148-.801-4.207-2.213-5.726-1.411-1.519-3.324-2.375-5.32-2.381z" fill="#3F3D56"/><path d="M208.468 17.432a1.558 1.558 0 01-1.138-.51 1.807 1.807 0 01-.47-1.225c.001-.46.171-.9.473-1.225a1.554 1.554 0 011.138-.507c.427 0 .836.182 1.138.507.302.325.472.765.473 1.225 0 .459-.169.9-.47 1.225a1.558 1.558 0 01-1.138.51h-.006zm-6.995 1.158a4.09 4.09 0 012.391.78 4.578 4.578 0 011.586 2.08 4.97 4.97 0 01.245 2.677 4.751 4.751 0 01-1.178 2.372 4.22 4.22 0 01-2.204 1.268 4.021 4.021 0 01-2.487-.264 4.388 4.388 0 01-1.932-1.706 4.888 4.888 0 01-.725-2.574c0-1.229.453-2.407 1.26-3.276.807-.87 1.902-1.357 3.044-1.357zm0-2.316a6.137 6.137 0 00-3.587 1.17 6.866 6.866 0 00-2.378 3.12 7.44 7.44 0 00-.367 4.014 7.127 7.127 0 001.767 3.559 6.328 6.328 0 003.305 1.901 6.034 6.034 0 003.731-.395 6.585 6.585 0 002.897-2.56 7.327 7.327 0 001.088-3.86c0-1.843-.68-3.61-1.891-4.914-1.211-1.303-2.853-2.035-4.565-2.035z" fill="#3F3D56"/><path d="M83.151 303.722l-6.08-1.542 2.631-25.98 8.976 2.276-5.527 25.246z" fill="#FFB8B8"/><path d="M83.313 310.46l-19.608-4.972.059-.267a8.764 8.764 0 011.268-2.997 8.108 8.108 0 012.238-2.245 7.508 7.508 0 012.866-1.153 7.3 7.3 0 013.057.115l11.977 3.037-1.857 8.482z" fill="#2F2E41"/><path d="M106.849 303.941h-6.248l-2.972-25.937h9.221l-.001 25.937z" fill="#FFB8B8"/><path d="M108.442 310.46l-20.145-.001v-.274c0-1.108.203-2.206.597-3.23a8.513 8.513 0 011.7-2.738 7.836 7.836 0 012.543-1.829 7.364 7.364 0 013-.643h.001l12.304.001v8.714z" fill="#2F2E41"/><path d="M140.592 201.363a6.208 6.208 0 00.773-2.414 6.33 6.33 0 00-.249-2.539 5.992 5.992 0 00-1.223-2.188 5.476 5.476 0 00-1.969-1.426l-18.292-49.926-10.177 6.65 21.18 46.985a6.348 6.348 0 00.218 4.202c.548 1.325 1.528 2.388 2.756 2.987a5.144 5.144 0 003.902.263c1.287-.43 2.383-1.353 3.081-2.594z" fill="#FFB8B8"/><path d="M123.52 151.127l-11.627 4.632a2.299 2.299 0 01-2.038-.165 2.504 2.504 0 01-.787-.741 2.748 2.748 0 01-.429-1.027l-2.546-13.018a7.854 7.854 0 01.225-5.602c.761-1.761 2.14-3.126 3.834-3.795a6.373 6.373 0 015.204.227c1.639.814 2.911 2.294 3.537 4.116l5.927 11.625a2.813 2.813 0 01.147 2.194 2.675 2.675 0 01-.566.947c-.25.268-.551.475-.881.607z" fill="#4368FF"/><path d="M106.434 294.63l-.092-.001-8.856-.382a2.214 2.214 0 01-1.577-.764 2.562 2.562 0 01-.624-1.736l.68-52.656a.859.859 0 00-.205-.572.742.742 0 00-.515-.261.729.729 0 00-.54.194.843.843 0 00-.265.541l-5.138 52.714a2.563 2.563 0 01-.612 1.433 2.257 2.257 0 01-1.291.745l-.03.005-8.314-.703c-.328.053-.663.03-.981-.069a2.253 2.253 0 01-.864-.504 2.457 2.457 0 01-.589-.847 2.63 2.63 0 01-.205-1.035l.497-89.284 40.794 2.779-8.994 88.204a2.538 2.538 0 01-.751 1.567c-.42.405-.964.63-1.528.632z" fill="#2F2E41"/><path d="M98.977 123.506c6.913 0 12.517-6.032 12.517-13.472 0-7.44-5.604-13.472-12.517-13.472-6.912 0-12.516 6.032-12.516 13.472 0 7.44 5.604 13.472 12.516 13.472z" fill="#FFB8B8"/><path d="M115.679 208.158c-.057 0-.115-.002-.173-.007l-37.702-2.969a2.233 2.233 0 01-1.53-.8 2.579 2.579 0 01-.596-1.713l.994-50.959a24.548 24.548 0 011.549-9.135 23.182 23.182 0 014.78-7.73 21.272 21.272 0 017.231-5.064 20.01 20.01 0 018.503-1.572c2.904.104 5.758.845 8.387 2.177 2.629 1.333 4.977 3.228 6.902 5.571a23.46 23.46 0 014.291 8.056 24.626 24.626 0 01.98 9.226c-.659 7.853-1.183 42.163-1.328 52.491a2.568 2.568 0 01-.682 1.718 2.213 2.213 0 01-1.606.71z" fill="#4368FF"/><path d="M48.49 125.163c.063.296.103.597.122.9l21.891 13.593 5.321-3.297 5.673 7.993-8.893 6.822a3.879 3.879 0 01-2.466.813 3.903 3.903 0 01-2.425-.941l-22.574-19.168a4.992 4.992 0 01-3.18.179 5.31 5.31 0 01-2.712-1.799 5.98 5.98 0 01-1.281-3.139 6.135 6.135 0 01.603-3.366 5.56 5.56 0 012.275-2.4 5.02 5.02 0 013.138-.583 5.19 5.19 0 012.89 1.44 5.863 5.863 0 011.618 2.953z" fill="#FFB8B8"/><path d="M70.805 138.297c.065-.347.2-.675.395-.962.194-.286.444-.524.731-.697l10.046-6.046c1.335-1.108 3.023-1.601 4.696-1.372 1.672.23 3.191 1.163 4.225 2.597 1.033 1.433 1.497 3.249 1.289 5.049-.208 1.8-1.07 3.439-2.4 4.556l-8.009 8.952a2.3 2.3 0 01-.812.585 2.15 2.15 0 01-1.907-.113 2.341 2.341 0 01-.748-.677l-7.075-9.869a2.552 2.552 0 01-.42-.951 2.65 2.65 0 01-.011-1.052z" fill="#4368FF"/><path d="M105.445 120.7a10.789 10.789 0 01-5.497-1.571c-1.68-1.016-3.093-2.472-4.108-4.235-.11-.185-.712-1.138-1.41-2.24-1.96-3.098-2.42-3.835-2.459-3.944-.53-1.473-2.214-2.042-3.533-2.26-.246-.04-.496-.076-.746-.113-1.858-.267-3.779-.544-4.832-2.742-.773-1.613-2.036-8.18-1.066-9.785 1.217-2.013 3.552-1.36 5.811-.727 1.446.404 2.94.822 4.131.555 5.162-1.156 11.013-2.466 16.179.921 4.113 2.695 6.586 7.785 6.456 13.283-.141 5.905-2.533 10.565-6.4 12.468l-.805.252-.453.06c-.421.052-.844.078-1.268.078z" fill="#2F2E41"/><path d="M391.346 99.717c-3.223 0-6.348 1.194-8.849 3.381-2.502 2.187-4.228 5.234-4.888 8.629a16.137 16.137 0 001.26 10.016c1.475 3.083 3.892 5.527 6.844 6.919a14.378 14.378 0 01.244-3.466l1.805-8.235a6.126 6.126 0 01-.451-2.387c0-2.239 1.203-3.912 2.707-3.912 1.278 0 1.892 1.032 1.892 2.266 0 1.383-.821 3.446-1.241 5.362a2.52 2.52 0 00-.014 1.083c.074.357.225.691.441.974.216.282.49.507.801.654.312.148.651.215.99.195 2.657 0 4.449-3.675 4.449-8.032 0-3.311-2.074-5.786-5.84-5.786-4.254 0-6.911 3.419-6.911 7.236a4.575 4.575 0 00.927 2.961.74.74 0 01.228.386.79.79 0 01-.027.457c-.069.276-.219.944-.288 1.214a.543.543 0 01-.087.225.496.496 0 01-.174.158.453.453 0 01-.441-.005c-1.961-.864-2.876-3.17-2.876-5.773 0-4.29 3.365-9.435 10.032-9.435 5.357 0 8.884 4.174 8.884 8.652 0 5.928-3.064 10.352-7.575 10.352-1.516 0-2.939-.883-3.427-1.881 0 0-.815 3.48-.99 4.154a13.004 13.004 0 01-1.41 3.237c1.93.614 3.961.774 5.954.468a13.45 13.45 0 005.596-2.236 14.626 14.626 0 004.226-4.538 15.827 15.827 0 002.093-6.017c.289-2.144.145-4.33-.42-6.41a15.49 15.49 0 00-2.856-5.642 14.174 14.174 0 00-4.776-3.854 13.194 13.194 0 00-5.832-1.37zM312.309 50.17l-18.053-5.978a1.724 1.724 0 00-1.415.071c-.22.112-.417.269-.58.463a2.03 2.03 0 00-.371.667l-5.566 19.473a2.285 2.285 0 00.156 1.578 2.04 2.04 0 001.122 1.03l18.047 5.975c.48.138.992.066 1.423-.2.432-.266.749-.704.882-1.22l5.567-19.473a2.007 2.007 0 00-.127-1.475 1.855 1.855 0 00-.455-.577 1.694 1.694 0 00-.63-.334zm-18.743 15.036l-3.099-1.026 2.965-10.37 3.098 1.026-2.964 10.37zm1.973-12.424l-.022-.007a1.802 1.802 0 01-1.033-.93 2.027 2.027 0 01-.121-1.444c.139-.48.448-.88.861-1.114a1.65 1.65 0 011.34-.136c.446.148.819.48 1.038.923.219.444.266.962.13 1.443-.135.48-.442.883-.854 1.12a1.65 1.65 0 01-1.339.145zm9.352 16.175l-3.098-1.026 1.62-5.67c.389-1.36.203-2.437-.918-2.808a1.654 1.654 0 00-1.075.02 1.79 1.79 0 00-.866.685 2.416 2.416 0 00-.341.783l-1.689 5.907-3.099-1.026 2.965-10.37 3.098 1.026-.412 1.443a3.21 3.21 0 011.541-.864 3.06 3.06 0 011.735.104c2.035.673 3.161 2.626 2.272 5.737l-1.733 6.059z" fill="#3F3D56"/><path fill-rule="evenodd" clip-rule="evenodd" d="M35.635 132.279a15.91 15.91 0 00-2.21-8.119c-1.441-2.423-3.498-4.351-5.926-5.556a13.106 13.106 0 00-7.775-1.239c-2.649.394-5.137 1.598-7.17 3.467-2.033 1.87-3.525 4.327-4.3 7.081a16.163 16.163 0 00-.077 8.459c.727 2.77 2.175 5.258 4.174 7.169 1.999 1.911 4.465 3.166 7.106 3.616v-10.523h-3.554v-4.355h3.554v-3.318c0-3.774 2.09-5.86 5.285-5.86 1.05.016 2.096.114 3.133.294v3.707h-1.766c-1.737 0-2.28 1.16-2.28 2.353v2.825h3.88l-.62 4.354h-3.26v10.524c3.291-.561 6.289-2.368 8.453-5.095 2.164-2.728 3.353-6.197 3.353-9.784z" fill="#3F3D56"/><path d="M411.761 310.451a.578.578 0 01-.15.388.492.492 0 01-.36.161H.51a.492.492 0 01-.36-.161.57.57 0 01-.15-.388.57.57 0 01.15-.387.492.492 0 01.36-.161h410.74c.135 0 .264.058.36.161a.578.578 0 01.15.387z" fill="#3F3D56"/></g><defs><clipPath id="clip0"><path fill="#fff" d="M0 0h412v311H0z"/></clipPath></defs></svg>