<svg width="412" height="311" fill="none" xmlns="http://www.w3.org/2000/svg"><g clip-path="url(#clip0)"><path d="M237.253 15.136c3.532 7.52-3.951 9.65-12.523 13.682-8.572 4.03-14.987 8.436-18.518.915-3.532-7.52-6.397-22.447 5.729-28.149 12.545-5.899 21.781 6.032 25.312 13.552z" fill="#2F2E41"/><path d="M219.764 29.926c6.373 0 11.54-5.17 11.54-11.548 0-6.377-5.167-11.547-11.54-11.547-6.373 0-11.539 5.17-11.539 11.547 0 6.378 5.166 11.548 11.539 11.548z" fill="#FFB8B8"/><path d="M276.934 69.59a71.674 71.674 0 00-2.777-3.418c-5.981-6.907-12.343-11.256-19.348-11.721h-.009l-.104-.01-13.958 13.616-4.746 4.627.104.254 2.56 6.38h44.865a110.657 110.657 0 00-6.587-9.728zm-69.719-46.563l4.131-1.942-.575-5.963 2.762 4.935 1.974-.929-.335-3.478 1.611 2.878 14.67-6.898a12.21 12.21 0 00-16.251-5.865l-2.126 1a12.221 12.221 0 00-6.296 6.917 12.236 12.236 0 00.435 9.345z" fill="#2F2E41"/><path d="M302.822 232.637H61.872a7.763 7.763 0 01-7.753-7.758V79.997a5.692 5.692 0 015.68-5.684h244.998a5.788 5.788 0 015.777 5.782v144.784a7.768 7.768 0 01-7.752 7.758z" fill="#F2F2F2"/><path d="M69.39 224.879h225.915a7.518 7.518 0 007.518-7.523V94.386a7.525 7.525 0 00-2.202-5.319 7.516 7.516 0 00-5.316-2.203H69.389a7.515 7.515 0 00-5.315 2.203 7.525 7.525 0 00-2.202 5.32v122.969a7.517 7.517 0 007.517 7.523z" fill="#fff"/><path d="M310.467 79.553H54.011v-3.95a7.795 7.795 0 012.282-5.5 7.784 7.784 0 015.498-2.28h240.895a7.794 7.794 0 017.781 7.781v3.949z" fill="#4368FF"/><path d="M68.15 75.713a2.013 2.013 0 10-.001-4.026 2.013 2.013 0 00.001 4.026zm7.64 0a2.013 2.013 0 10-.002-4.026 2.013 2.013 0 00.002 4.026zm7.638 0a2.013 2.013 0 10-.001-4.026 2.013 2.013 0 00.001 4.026z" fill="#fff"/><path d="M189.396 198.211h-20.203a4.465 4.465 0 01-3.155-1.31 4.478 4.478 0 01-1.309-3.157v-20.217a4.468 4.468 0 014.464-4.466h20.203a4.468 4.468 0 014.463 4.466v20.217a4.473 4.473 0 01-4.463 4.467zm-20.203-28.21a3.529 3.529 0 00-3.524 3.526v20.217a3.529 3.529 0 003.524 3.527h20.203a3.532 3.532 0 003.524-3.527v-20.217a3.53 3.53 0 00-3.524-3.526h-20.203z" fill="#CCC"/><path d="M185.403 192.569h-12.216a1.412 1.412 0 01-1.41-1.411v-15.045a1.414 1.414 0 011.41-1.41h8.851c.321 0 .633.11.883.311l3.364 2.705a1.396 1.396 0 01.527 1.1v12.339a1.41 1.41 0 01-1.409 1.411zm-12.216-16.926a.47.47 0 00-.47.47v15.045a.472.472 0 00.47.471h12.216a.47.47 0 00.469-.471v-12.339a.464.464 0 00-.175-.367l-3.365-2.705a.469.469 0 00-.294-.104h-8.851z" fill="#CCC"/><path d="M183.054 181.285h-7.518a.471.471 0 010-.94h7.518a.47.47 0 110 .94zm0 2.821h-7.518a.471.471 0 010-.94h7.518a.47.47 0 110 .94zm0 2.821h-7.518a.471.471 0 010-.94h7.518a.47.47 0 110 .94zm54.266 11.284h-20.203a4.474 4.474 0 01-4.464-4.467v-20.217a4.466 4.466 0 014.464-4.466h20.203a4.473 4.473 0 014.463 4.466v20.217a4.47 4.47 0 01-4.463 4.467zm-20.203-28.21a3.529 3.529 0 00-3.524 3.526v20.217a3.529 3.529 0 003.524 3.527h20.203a3.532 3.532 0 003.524-3.527v-20.217a3.53 3.53 0 00-3.524-3.526h-20.203z" fill="#CCC"/><path d="M233.795 188.808H220.64a1.414 1.414 0 01-1.41-1.411v-7.523a1.416 1.416 0 011.41-1.41h13.155a1.41 1.41 0 011.41 1.41v7.523a1.415 1.415 0 01-1.41 1.411zm-13.155-9.404a.47.47 0 00-.47.47v7.523a.47.47 0 00.47.47h13.155a.465.465 0 00.332-.138.465.465 0 00.138-.332v-7.523a.47.47 0 00-.47-.47H220.64z" fill="#CCC"/><path d="M227.218 184.876a1.4 1.4 0 01-.747-.213l-7.02-4.39a.47.47 0 01.499-.797l7.019 4.39a.476.476 0 00.498 0l7.019-4.39a.47.47 0 01.499.797l-7.02 4.39a1.4 1.4 0 01-.747.213zm-85.745 13.335H121.27a4.473 4.473 0 01-4.463-4.467v-20.217a4.468 4.468 0 014.463-4.466h20.203a4.468 4.468 0 014.464 4.466v20.217a4.474 4.474 0 01-4.464 4.467zm-20.203-28.21a3.53 3.53 0 00-3.524 3.526v20.217a3.532 3.532 0 003.524 3.527h20.203a3.529 3.529 0 003.524-3.527v-20.217a3.533 3.533 0 00-3.524-3.526H121.27z" fill="#CCC"/><path d="M137.949 188.808h-13.156a1.416 1.416 0 01-1.409-1.411v-7.523a1.41 1.41 0 011.409-1.41h13.156a1.41 1.41 0 011.409 1.41v7.523a1.41 1.41 0 01-1.409 1.411zm-13.156-9.404a.471.471 0 00-.47.47v7.523a.474.474 0 00.47.47h13.156a.474.474 0 00.47-.47v-7.523a.471.471 0 00-.47-.47h-13.156z" fill="#CCC"/><path d="M135.863 188.808h-9.454a.943.943 0 01-.94-.941c0-.165.043-.327.126-.47l2.848-4.937a.938.938 0 011.627 0l1.84 3.189 1.065-1.847a.946.946 0 011.284-.345.94.94 0 01.344.345l2.074 3.595a.935.935 0 010 .941.946.946 0 01-.814.47zm0-.941l-2.074-3.595-1.472 2.552a.465.465 0 01-.407.235.47.47 0 01-.407-.235l-2.246-3.893-2.848 4.936h9.454zm.676-5.642a.94.94 0 100-1.88.94.94 0 000 1.88z" fill="#CCC"/><path d="M361.222 304.736h-5.76l-2.74-22.233h8.501l-.001 22.233z" fill="#FFB8B8"/><path d="M362.691 310.323h-18.573v-.235a7.248 7.248 0 012.117-5.116 7.233 7.233 0 015.112-2.118h11.344v7.469z" fill="#2F2E41"/><path d="M384.714 304.736h-5.76l-2.74-22.233h8.501l-.001 22.233z" fill="#FFB8B8"/><path d="M386.183 310.323H367.61v-.235a7.23 7.23 0 012.118-5.116 7.233 7.233 0 015.111-2.118h11.345l-.001 7.469zm-3.195-15.225l-5.335-1.624a2.119 2.119 0 01-1.016-.676 2.12 2.12 0 01-.471-1.126l-4.974-47.17a.227.227 0 00-.225-.21.218.218 0 00-.24.192l-8.331 45.7a2.108 2.108 0 01-.897 1.374 2.109 2.109 0 01-1.609.318l-6.818-1.405a2.127 2.127 0 01-1.683-2.216l5.068-74.903 34.362-3.71-5.106 83.561a2.117 2.117 0 01-2.725 1.895z" fill="#2F2E41"/><path d="M382.955 148.124c6.373 0 11.539-5.17 11.539-11.548 0-6.377-5.166-11.547-11.539-11.547-6.373 0-11.54 5.17-11.54 11.547 0 6.378 5.167 11.548 11.54 11.548z" fill="#FFB8B8"/><path d="M356.403 213.792l7.451-46.946a17.8 17.8 0 018.051-12.245 17.773 17.773 0 0114.504-2.048 17.738 17.738 0 0110.179 7.752 17.758 17.758 0 012.319 12.589l-7.795 41.925-34.709-1.027z" fill="#4368FF"/><path d="M386.14 222.192a4.719 4.719 0 002.091-3.409 4.742 4.742 0 00-1.27-3.794l7.704-14.928-8.676.927-5.985 14.034a4.752 4.752 0 006.136 7.17z" fill="#FFB8B8"/><path d="M387.79 212.356a2.115 2.115 0 01-1.14-.541l-2.948-2.725a2.13 2.13 0 01-.513-2.377l5.891-13.972-.836-27.608a6.812 6.812 0 012.626-4.51 6.814 6.814 0 017.558-.461 6.82 6.82 0 013.313 6.814l1.429 17.354a21.813 21.813 0 01-4.199 14.762l-9.186 12.428a2.124 2.124 0 01-1.995.836z" fill="#4368FF"/><path d="M316.501 130.285a4.727 4.727 0 006.308 3.564l10.734 12.92 2.53-8.356-10.581-10.987a4.748 4.748 0 00-8.408-.468 4.756 4.756 0 00-.583 3.327z" fill="#FFB8B8"/><path d="M324.91 135.64c.221-.37.55-.662.942-.84l3.657-1.653a2.123 2.123 0 012.387.453l10.561 10.876 25.731 9.994a6.81 6.81 0 013.127 4.178 6.804 6.804 0 01-.744 5.167 6.81 6.81 0 01-9.341 2.375l-16.527-5.45a21.797 21.797 0 01-11.947-9.625l-7.854-13.311a2.124 2.124 0 01-.195-1.714c.049-.158.117-.309.203-.45z" fill="#4368FF"/><path opacity=".1" d="M392.315 176.618l-.47 15.045-8.656 15.05 7.227-16.772 1.899-13.323z" fill="#000"/><path d="M381.633 138.746a3.016 3.016 0 01-3.303-2.21 4.6 4.6 0 00-1.159-2.164 4.597 4.597 0 00-2.107-1.256c-2.117-.484-4.704.513-6.255-1.092a3.115 3.115 0 01-.741-2.747c.286-1.56 1.401-2.738 2.614-3.68a15.99 15.99 0 018.864-3.315 31.883 31.883 0 014.99.248c1.732.11 3.446.423 5.105.934a12.014 12.014 0 017.518 8.783 13.887 13.887 0 01-2.846 11.345 14.9 14.9 0 01-5.714 4.353 2.227 2.227 0 01-1.694.086c-1.389-.553-1.162-2.275-.529-3.424.678-1.23 1.721-2.42 1.176-3.916a2.963 2.963 0 00-1.469-1.583c-1.381-.705-2.926-.538-4.411-.366l-.039.004z" fill="#2F2E41"/><path d="M312.645 145.267h-142.83a7.756 7.756 0 01-5.479-2.274 7.77 7.77 0 01-2.274-5.483v-30.561a7.77 7.77 0 012.274-5.483 7.758 7.758 0 015.479-2.274h142.83a7.758 7.758 0 015.479 2.274 7.77 7.77 0 012.274 5.483v30.561a7.77 7.77 0 01-2.274 5.483 7.756 7.756 0 01-5.479 2.274z" fill="#fff"/><path d="M312.645 145.503H169.814a8 8 0 01-7.987-7.993v-30.561a7.996 7.996 0 017.987-7.992h142.831a7.994 7.994 0 015.645 2.343 8.005 8.005 0 012.342 5.649v30.561a8.004 8.004 0 01-7.987 7.993zM169.814 99.897a7.056 7.056 0 00-7.047 7.052v30.561a7.061 7.061 0 007.047 7.052h142.831a7.054 7.054 0 007.047-7.052v-30.561a7.061 7.061 0 00-7.047-7.052H169.814z" fill="#3F3D56"/><path d="M295.261 137.745H187.199a7.756 7.756 0 01-5.48-2.275 7.772 7.772 0 01-2.273-5.483v-15.985a7.772 7.772 0 012.273-5.483 7.756 7.756 0 015.48-2.275h108.062a7.764 7.764 0 017.752 7.758v15.985a7.764 7.764 0 01-7.752 7.758z" fill="#F2F2F2"/><path d="M210.453 129.129c5.12 0 9.271-4.154 9.271-9.278 0-5.123-4.151-9.277-9.271-9.277-5.121 0-9.271 4.154-9.271 9.277 0 5.124 4.15 9.278 9.271 9.278z" fill="#FF6584"/><path d="M288.546 136.809l-13.086-10.983-12.861-10.793a1.875 1.875 0 00-2.42.004L247.36 125.88l-3.131 2.649-4.721-3.963-14.348-12.041a1.88 1.88 0 00-2.42.005l-14.301 12.096-14.526 12.287a.468.468 0 00.304.829l29.781-.057 9.427-.018-.092.078 28.1-.054 26.812-.052a.472.472 0 00.453-.592.47.47 0 00-.152-.238z" fill="#3F3D56"/><path d="M411.235 311h-90.209a.471.471 0 010-.94h90.209a.468.468 0 01.332.802.47.47 0 01-.332.138z" fill="#CCC"/><path d="M283.808 62.02a5.28 5.28 0 00-3.407-2.398 4.833 4.833 0 00-.779-.098l-35.797-32.028a4.238 4.238 0 00-2.646-1.264 3.585 3.585 0 00-.596-.02 4.253 4.253 0 00-3.777 2.724 4.265 4.265 0 00.976 4.555l13.706 11.956 22.505 19.63a5.298 5.298 0 004.707 5.03 5.209 5.209 0 002.843-.47 5.365 5.365 0 001.969-1.58 5.312 5.312 0 00.296-6.037zm-61.229 30.866l-.334-13.568-.282-11.26-.193-7.88-.38-15.361a4.248 4.248 0 00-2.885-3.646 4.248 4.248 0 00-4.849 1.63 4.21 4.21 0 00-.733 2.843l.837 22.413.418 11.26.536 14.364a5.272 5.272 0 00-1.012 2.707 5.314 5.314 0 009.563 3.594 5.314 5.314 0 00-.686-7.096z" fill="#FFB8B8"/><path d="M254.81 54.45l-3.322-9.003-5.375-14.584a7.518 7.518 0 00-4.933-4.632 7.505 7.505 0 00-6.22.856l-18.103 11.49a7.566 7.566 0 00-2.476 10.227 129.677 129.677 0 007.39 11.373c2.11 2.873 6.038 3.178 6.719 7.88h13.348l13.512-12.14-.54-1.466z" fill="#CCC"/><path d="M47.53 164.488c6.013 0 10.887-4.877 10.887-10.894s-4.874-10.895-10.886-10.895c-6.013 0-10.887 4.878-10.887 10.895 0 6.017 4.874 10.894 10.887 10.894zm26.728-18.393a4.887 4.887 0 011.364 5.938 4.878 4.878 0 01-1.248 1.613c-.122.103-.25.199-.382.289l.737 24.892a3.787 3.787 0 01-2.605 3.699l-.045.01-20.198 2.152a4.173 4.173 0 01-4.127-2.184 4.186 4.186 0 013.318-6.144l14.397-1.269 2.49-21.557a4.682 4.682 0 01-.456-.465 4.884 4.884 0 01.223-6.547 4.876 4.876 0 016.532-.427zM65.46 305.218h5.436l2.585-20.976H65.46v20.976z" fill="#A0616A"/><path d="M64.075 303.442h10.702a6.816 6.816 0 016.302 4.213c.342.828.519 1.715.519 2.612v.221l-17.522.001v-7.047z" fill="#2F2E41"/><path d="M11.448 297.699l4.67 2.782 12.945-16.699-6.892-4.106-10.723 18.023z" fill="#A0616A"/><path d="M11.165 295.464l9.195 5.479a6.817 6.817 0 013.123 4.186 6.833 6.833 0 01-.751 5.169l-.114.191-15.055-8.97 3.602-6.055zm61.014 2.345h-6.085a1.988 1.988 0 01-1.984-1.785l-6.135-57.707a.666.666 0 00-1.267-.203l-11.067 24.523-19.594 31.972a2.005 2.005 0 01-2.504.783l-7.827-3.446a2 2 0 01-1.178-2.056c.032-.281.124-.552.269-.795l18.012-30.181 5.524-25.429c-1.737-11.027 5.71-27.422 5.786-27.587l.037-.08 20.517-8.025.103.126c8.09 26.571 13.021 55.166 9.38 98.061a2.01 2.01 0 01-1.987 1.829z" fill="#2F2E41"/><path d="M43.34 208.505l-.096-.201c-.046-.096-4.608-9.725-8.125-20.016a15.188 15.188 0 011.052-12.164 15.333 15.333 0 019.779-7.525 15.34 15.34 0 0110.618 1.287 15.358 15.358 0 017.201 7.914c2.79 6.98 1.9 14.431 1.064 20.291l-.016.117-.107.051-21.37 10.246z" fill="#3F3D56"/><path d="M60.73 147.44H43.444v-7.541c3.795-1.508 7.508-2.791 9.752 0 1.999 0 3.915.795 5.328 2.209a7.543 7.543 0 012.207 5.332z" fill="#2F2E41"/><path d="M42.487 138.569c-10.335 0-13.227 12.962-13.227 20.276 0 4.078 1.843 5.537 4.74 6.03l1.022-5.459 2.396 5.694c.813.004 1.668-.012 2.554-.028l.813-1.674 1.81 1.644c7.255.011 13.119 1.069 13.119-6.207 0-7.314-2.537-20.276-13.227-20.276z" fill="#2F2E41"/><path d="M90.678 311H.47a.47.47 0 010-.94h90.209a.47.47 0 110 .94z" fill="#CCC"/><path d="M92.374 156.316H72.171a4.466 4.466 0 01-4.463-4.466v-20.217a4.474 4.474 0 014.463-4.467h20.203a4.472 4.472 0 014.464 4.467v20.217a4.466 4.466 0 01-4.464 4.466z" fill="#fff"/><path d="M92.374 156.316H72.171a4.466 4.466 0 01-4.463-4.466v-20.217a4.474 4.474 0 014.463-4.467h20.203a4.472 4.472 0 014.464 4.467v20.217a4.466 4.466 0 01-4.464 4.466zm-20.203-28.209a3.53 3.53 0 00-3.524 3.526v20.217a3.53 3.53 0 003.524 3.526h20.203a3.527 3.527 0 003.524-3.526v-20.217a3.53 3.53 0 00-3.524-3.526H72.171z" fill="#3F3D56"/><path d="M88.851 148.089H75.696a1.415 1.415 0 01-1.41-1.411v-9.873a1.412 1.412 0 011.41-1.411h3.703a1.405 1.405 0 011.2.671l1.033 1.68h7.22a1.411 1.411 0 011.41 1.41v7.523a1.412 1.412 0 01-1.41 1.411z" fill="#4368FF"/><path d="M88.423 153.077a4.884 4.884 0 01-2.821 7.004 4.378 4.378 0 01-.464.118l-8.974 23.228a3.786 3.786 0 01-3.835 2.397l-.045-.008-19.45-5.859a4.186 4.186 0 01-.723-7.719 4.166 4.166 0 011.576-.456 4.168 4.168 0 011.63.185l13.762 4.421 10.654-18.901a4.657 4.657 0 01-.24-.606 4.885 4.885 0 012.745-5.947 4.874 4.874 0 016.185 2.143z" fill="#A0616A"/></g><defs><clipPath id="clip0"><path fill="#fff" d="M0 0h411.705v311H0z"/></clipPath></defs></svg>