<svg width="635" height="434" viewBox="0 0 635 434" fill="none" xmlns="http://www.w3.org/2000/svg">
<path d="M247.696 222.517C233.87 214.925 216.663 216.449 201.766 221.639C186.869 226.83 173.37 235.334 158.904 241.623C114.698 260.843 61.4179 257.744 19.7432 233.529C15.8017 242.688 20.03 253.165 24.6747 261.989C29.3193 270.814 34.6129 280.378 32.7009 290.163C30.2542 302.685 17.1132 310.192 11.7887 321.789C6.73427 332.797 9.44717 345.724 13.3248 357.199C17.2024 368.674 22.2344 380.234 21.5755 392.327C20.9166 404.421 12.1224 417.208 -1.52588e-05 417.218C17.9651 420.007 36.2836 422.797 54.2378 419.939C72.1919 417.081 90.0515 407.595 98.3878 391.453C102.555 383.385 104.161 374.109 108.946 366.391C117.097 353.245 132.739 347.063 147.498 342.404C162.257 337.744 178.051 333.256 188.442 321.796C198.344 310.876 201.48 295.665 206.725 281.894C215.56 258.843 230.905 238.85 250.896 224.345" fill="#4368FF"/>
<path d="M231.677 165.305C236.53 163.049 242.489 162.31 247.428 164.406C252.366 166.502 255.733 171.875 254.136 176.63C253.412 178.785 251.763 180.905 252.406 183.083C252.9 184.759 254.625 185.865 256.319 186.652C258.013 187.438 259.866 188.1 261.092 189.427C262.317 190.754 262.572 193.038 261.042 194.067C260.537 194.406 259.907 194.567 259.418 194.924C259.002 195.262 258.701 195.722 258.558 196.239C258.415 196.756 258.438 197.305 258.622 197.809C259.03 198.822 259.703 199.708 260.572 200.371C262.309 201.868 264.605 203.581 264.066 205.706C263.866 206.274 263.531 206.786 263.091 207.197C262.651 207.608 262.118 207.907 261.538 208.069C260.332 208.416 259.081 208.581 257.826 208.558L206.558 210.172C204.866 210.299 203.164 210.204 201.496 209.889C200.686 209.742 199.914 209.428 199.23 208.969C198.546 208.51 197.965 207.915 197.521 207.221C196.539 205.406 197.184 203.169 198.396 201.474C199.609 199.779 201.325 198.441 202.743 196.885C204.16 195.328 205.32 193.385 205.071 191.373C204.87 189.762 203.807 188.37 203.044 186.907C202.281 185.443 201.837 183.615 202.826 182.268C204.219 180.371 207.563 180.543 209.147 178.775C210.342 177.441 210.111 175.52 210.23 173.8C210.516 169.662 213.384 165.754 217.466 163.939C219.542 163.049 221.8 162.665 224.053 162.818C226.307 162.971 228.492 163.658 230.428 164.821L231.677 165.305Z" fill="#2F2E41"/>
<path d="M264.074 425.04L272.104 422.63L266.619 390.541L254.768 394.098L264.074 425.04Z" fill="#A0616A"/>
<path d="M264.364 433.431L290.255 425.659L290.156 425.332C289.759 424.01 289.105 422.779 288.231 421.709C287.357 420.64 286.281 419.753 285.064 419.099C283.847 418.445 282.513 418.037 281.139 417.898C279.764 417.759 278.375 417.892 277.052 418.289L277.051 418.289L261.238 423.036L264.364 433.431Z" fill="#2F2E41"/>
<path d="M188.302 425.312L196.686 425.311L200.675 393.002L188.301 393.003L188.302 425.312Z" fill="#A0616A"/>
<path d="M186.164 433.431L213.198 433.43V433.089C213.198 431.708 212.926 430.341 212.397 429.066C211.868 427.79 211.093 426.631 210.116 425.655C209.139 424.679 207.979 423.905 206.703 423.376C205.426 422.848 204.058 422.576 202.676 422.576H202.675L186.164 422.577L186.164 433.431Z" fill="#2F2E41"/>
<path d="M199.941 400.875C200.672 400.874 201.38 400.614 201.936 400.139C202.493 399.665 202.862 399.008 202.978 398.287L215.427 320.702C215.51 320.188 215.758 319.715 216.134 319.355C216.509 318.994 216.993 318.767 217.51 318.706C218.027 318.645 218.551 318.754 219 319.017C219.45 319.28 219.801 319.682 220.001 320.163L252.254 397.735C252.554 398.451 253.114 399.028 253.821 399.35C254.528 399.672 255.331 399.716 256.069 399.473L267.718 395.593C268.444 395.354 269.054 394.853 269.429 394.188C269.804 393.523 269.917 392.743 269.747 391.999L243.316 275.151C243.186 274.588 242.902 274.072 242.494 273.663C242.086 273.253 241.572 272.966 241.01 272.833L205.562 264.613C205.127 264.514 204.675 264.509 204.237 264.6C203.8 264.691 203.387 264.874 203.027 265.138C179.686 282.082 181.658 337.439 186.008 397.548C186.062 398.3 186.391 399.007 186.933 399.532C187.474 400.058 188.19 400.367 188.945 400.4L199.806 400.872C199.851 400.873 199.896 400.875 199.941 400.875Z" fill="#2F2E41"/>
<path d="M229.78 209.775C220.503 209.775 212.983 202.262 212.983 192.994C212.983 183.726 220.503 176.213 229.78 176.213C239.056 176.213 246.577 183.726 246.577 192.994C246.577 202.262 239.056 209.775 229.78 209.775Z" fill="#A0616A"/>
<path d="M229.055 279.968C233.086 279.942 237.062 279.024 240.697 277.28L240.822 277.222L240.871 277.093L255.937 238.096L256.223 231.321C256.319 229.055 255.939 226.794 255.108 224.684C254.276 222.574 253.011 220.661 251.395 219.068C249.779 217.476 247.846 216.24 245.723 215.439C243.599 214.637 241.331 214.29 239.064 214.417L223.07 215.317C218.938 215.552 215.052 217.351 212.201 220.348C209.35 223.345 207.75 227.315 207.726 231.449C207.311 232.246 204.36 238.481 210.142 244.338C210.358 245.672 212.381 259.538 204.749 267.163L204.534 267.378L204.722 267.616C204.843 267.77 214.645 279.966 229.055 279.968Z" fill="#3F3D56"/>
<path d="M206.595 282.91C205.65 282.568 204.791 282.022 204.08 281.313C203.368 280.603 202.821 279.746 202.477 278.802C202.133 277.858 202 276.851 202.088 275.85C202.176 274.85 202.483 273.881 202.986 273.011L187.011 254.534L199.604 252.896L212.844 270.694C214.25 271.635 215.261 273.059 215.686 274.696C216.111 276.333 215.921 278.069 215.15 279.575C214.38 281.08 213.084 282.252 211.507 282.866C209.93 283.481 208.182 283.497 206.595 282.91Z" fill="#A0616A"/>
<path d="M196.607 268.649C197.207 268.649 197.794 268.473 198.295 268.143L206.196 262.966C206.86 262.533 207.331 261.859 207.509 261.087C207.688 260.314 207.56 259.503 207.153 258.823L201.433 249.222C201.123 248.703 200.928 248.124 200.858 247.523C200.788 246.923 200.847 246.314 201.029 245.738C201.211 245.162 201.514 244.63 201.916 244.179C202.319 243.728 202.812 243.367 203.364 243.119L219.796 235.759C221.817 234.843 223.467 233.268 224.475 231.292C225.483 229.317 225.789 227.058 225.344 224.886C225.037 223.421 224.396 222.046 223.47 220.869C222.544 219.693 221.36 218.745 220.008 218.1C218.656 217.455 217.173 217.131 215.675 217.152C214.177 217.173 212.704 217.539 211.371 218.221L186.442 230.983C184.76 231.844 183.284 233.058 182.116 234.542C180.947 236.026 180.114 237.744 179.672 239.58C179.23 241.415 179.19 243.324 179.555 245.177C179.921 247.029 180.682 248.781 181.788 250.312L194.112 267.372C194.396 267.767 194.771 268.089 195.205 268.311C195.639 268.533 196.119 268.649 196.607 268.649Z" fill="#3F3D56"/>
<path d="M246.963 190.609C241.659 190.183 237.255 184.889 237.806 179.601C237.869 181.781 237.127 183.907 235.722 185.576C234.317 187.244 232.347 188.339 230.187 188.651C227.754 188.919 225.086 188.183 222.969 189.41C220.623 190.768 219.872 194.067 217.429 195.24C215.067 196.373 212.069 194.827 210.902 192.484C209.735 190.141 210.022 187.325 210.795 184.825C211.897 181.259 213.905 178.039 216.622 175.477C219.339 172.916 222.674 171.101 226.301 170.208C229.929 169.316 233.726 169.377 237.323 170.384C240.92 171.392 244.194 173.313 246.828 175.96C249.059 178.201 250.83 181.058 251.117 184.205C251.404 187.353 249.943 190.768 247.113 192.182L246.963 190.609Z" fill="#2F2E41"/>
<path d="M286.041 144.125C285.156 144.601 284.386 145.266 283.786 146.072C283.186 146.878 282.77 147.806 282.568 148.789C282.365 149.773 282.381 150.789 282.614 151.766C282.848 152.743 283.292 153.658 283.917 154.444L270.815 175.054L283.513 174.837L294.008 155.299C295.261 154.162 296.054 152.605 296.235 150.924C296.416 149.243 295.974 147.553 294.992 146.176C294.01 144.799 292.556 143.829 290.906 143.451C289.257 143.073 287.525 143.313 286.041 144.125V144.125Z" fill="#A0616A"/>
<path d="M275.48 158.8L258.606 198.634L240.915 228.604C240.168 229.869 239.719 231.287 239.601 232.751C239.483 234.215 239.7 235.687 240.235 237.055C240.77 238.423 241.609 239.652 242.688 240.648C243.768 241.645 245.061 242.384 246.468 242.808C248.7 243.47 251.095 243.312 253.221 242.364C255.347 241.416 257.064 239.739 258.06 237.637L292.157 164.85C292.342 164.455 292.441 164.024 292.447 163.588C292.452 163.151 292.365 162.718 292.19 162.318C292.016 161.918 291.758 161.56 291.434 161.267C291.109 160.974 290.727 160.753 290.311 160.62L279.255 157.072C279.046 157.004 278.83 156.959 278.611 156.937C277.958 156.871 277.301 157.017 276.737 157.352C276.173 157.688 275.732 158.195 275.48 158.8Z" fill="#3F3D56"/>
</svg>
