<svg width="482" height="324" viewBox="0 0 482 324" fill="none" xmlns="http://www.w3.org/2000/svg">
<path d="M0 38.7244L16.5761 37.6881C16.7562 39.8987 17.5129 42.0232 18.7705 43.8493C19.6927 44.9845 20.8721 45.8832 22.2107 46.4708C23.5494 47.0585 25.0087 47.3182 26.4677 47.2284C28.5329 47.366 30.5773 46.7453 32.2181 45.4826C32.8352 44.9978 33.3364 44.3811 33.6849 43.6776C34.0334 42.9741 34.2205 42.2015 34.2324 41.4164C34.2176 40.6619 34.0376 39.9199 33.7052 39.2426C33.3727 38.5654 32.8958 37.9694 32.3081 37.4967C31.0253 36.3628 28.0506 35.2852 23.3843 34.264C15.7471 32.5444 10.2967 30.2616 7.03329 27.4157C5.44994 26.0831 4.18597 24.4115 3.33478 22.5243C2.48359 20.6371 2.06694 18.5825 2.11561 16.5125C2.12705 13.5863 3.00419 10.729 4.63635 8.3013C6.50918 5.58123 9.14429 3.47669 12.2098 2.25273C15.5858 0.750909 20.2071 0 26.0738 0C33.2834 0 38.7788 1.34037 42.5599 4.02112C46.341 6.70187 48.5916 10.9708 49.3118 16.8279L32.882 17.7853C32.6672 15.6662 31.6916 13.6972 30.1363 12.2436C28.4729 11.0007 26.4242 10.3863 24.3521 10.509C22.7206 10.3872 21.0985 10.8459 19.772 11.8043C19.2927 12.1733 18.9045 12.6475 18.6372 13.1904C18.3699 13.7333 18.2307 14.3304 18.2303 14.9356C18.2461 15.4107 18.3687 15.8761 18.5888 16.2973C18.8089 16.7185 19.121 17.0846 19.5019 17.3685C20.3197 18.1194 22.2665 18.8103 25.3424 19.441C32.9571 21.0855 38.4149 22.7488 41.7159 24.4308C44.6527 25.7958 47.1452 27.9626 48.9067 30.6822C50.415 33.2059 51.1941 36.0991 51.1574 39.0398C51.1744 42.5991 50.128 46.0822 48.1527 49.0419C46.1105 52.141 43.1916 54.5606 39.7691 55.9916C35.4572 57.7113 30.8367 58.5204 26.1976 58.3682C16.5948 58.3682 9.95164 56.5172 6.26807 52.8152C2.53692 49.0371 0.308632 44.0278 0 38.7244ZM57.7293 29.2179C57.7293 20.0042 60.295 12.833 65.4265 7.70433C70.558 2.57562 77.7001 0.00750909 86.8527 0C96.238 0 103.47 2.52306 108.549 7.56917C113.628 12.6153 116.164 19.6776 116.156 28.7561C116.156 35.3566 115.031 40.7669 112.78 44.987C110.617 49.152 107.269 52.5816 103.159 54.8427C98.9725 57.1855 93.7472 58.3607 87.4829 58.3682C81.2186 58.3757 75.9671 57.362 71.7283 55.327C67.4644 53.2054 63.9358 49.8502 61.6004 45.6966C59.0196 41.3038 57.7293 35.8109 57.7293 29.2179ZM75.1606 29.2855C75.1606 34.9849 76.2184 39.0773 78.334 41.5628C79.3948 42.8009 80.7233 43.7811 82.2187 44.429C83.7142 45.0769 85.3374 45.3756 86.9653 45.3024C88.5934 45.3981 90.222 45.1212 91.7273 44.4927C93.2326 43.8643 94.5751 42.9008 95.6528 41.6755C97.7009 39.2425 98.7249 34.8685 98.7249 28.5533C98.7249 23.2369 97.6559 19.3547 95.5177 16.9067C94.4299 15.6814 93.0823 14.7148 91.5734 14.0776C90.0645 13.4403 88.4324 13.1485 86.7965 13.2235C85.2026 13.1605 83.6151 13.4579 82.152 14.0936C80.6888 14.7293 79.3877 15.687 78.3453 16.8955C76.2221 19.4185 75.1606 23.5485 75.1606 29.2855ZM125.541 0.957409H142.973V43.5002H170.161V57.4446H125.541V0.957409ZM212.743 0.957409H230.129V34.5906C230.151 37.8033 229.622 40.9959 228.565 44.0296C227.549 46.9584 225.879 49.6165 223.681 51.8015C221.724 53.8507 219.343 55.4462 216.704 56.4759C212.782 57.8244 208.652 58.4651 204.506 58.3682C201.496 58.3546 198.489 58.159 195.503 57.7825C192.677 57.5326 189.92 56.7692 187.367 55.5297C185.092 54.3096 183.072 52.6656 181.414 50.6864C179.73 48.8079 178.464 46.5926 177.7 44.1873C176.703 41.102 176.157 37.8886 176.08 34.647V0.957409H193.466V35.3904C193.388 36.7028 193.575 38.0176 194.016 39.2561C194.457 40.4946 195.142 41.6316 196.032 42.5991C198.013 44.265 200.517 45.1784 203.105 45.1784C205.692 45.1784 208.196 44.265 210.177 42.5991C211.072 41.6258 211.76 40.4814 212.201 39.2348C212.642 37.9882 212.827 36.6651 212.743 35.3453V0.957409ZM237.703 0.957409H290.672V14.9018H272.892V57.4446H255.449V14.9018H237.703V0.957409ZM299.247 0.957409H316.712V84.5674H299.247V0.957409ZM327.02 29.2179C327.02 20.0042 329.582 12.833 334.706 7.70433C339.83 2.57562 346.957 0.00750909 356.087 0C365.517 0 372.765 2.52306 377.828 7.56917C382.892 12.6153 385.428 19.6776 385.436 28.7561C385.436 35.3566 384.329 40.7669 382.116 44.987C379.95 49.1536 376.597 52.5834 372.483 54.8427C368.297 57.1855 363.072 58.3607 356.807 58.3682C350.543 58.3757 345.292 57.362 341.053 55.327C336.789 53.2054 333.26 49.8502 330.925 45.6966C328.322 41.3038 327.02 35.8109 327.02 29.2179ZM344.44 29.2967C344.44 34.9961 345.498 39.0886 347.613 41.5741C348.729 42.7485 350.07 43.6851 351.556 44.3274C353.042 44.9698 354.643 45.3047 356.262 45.3121C357.881 45.3195 359.484 44.9991 360.976 44.3703C362.468 43.7415 363.818 42.8172 364.943 41.6529C366.969 39.22 367.982 34.8459 367.982 28.5308C367.982 23.2144 366.913 19.3322 364.775 16.8842C363.688 15.6604 362.342 14.6947 360.835 14.0575C359.329 13.4203 357.699 13.1277 356.065 13.201C354.472 13.1417 352.887 13.4431 351.428 14.0829C349.968 14.7226 348.672 15.684 347.636 16.8955C345.498 19.4185 344.433 23.5485 344.44 29.2855V29.2967ZM394.99 0.957409H411.251L432.486 32.1915V0.957409H448.915V57.4446H432.486L411.329 26.4132V57.4446H394.99V0.957409ZM140.036 107.68L157.174 106.554C157.354 108.84 158.13 111.038 159.425 112.929C160.374 114.111 161.591 115.049 162.975 115.666C164.358 116.283 165.869 116.561 167.381 116.477C169.52 116.621 171.638 115.976 173.334 114.664C173.973 114.164 174.491 113.527 174.852 112.8C175.212 112.073 175.405 111.274 175.416 110.463C175.4 109.68 175.213 108.911 174.869 108.209C174.525 107.507 174.032 106.888 173.424 106.396C172.107 105.202 169.024 104.076 164.196 103.017C156.297 101.238 150.67 98.8722 147.317 95.9212C145.677 94.5471 144.367 92.8211 143.484 90.8712C142.602 88.9213 142.169 86.7976 142.219 84.6575C142.227 81.6263 143.136 78.666 144.83 76.1535C146.771 73.3174 149.514 71.1252 152.707 69.8571C156.195 68.3553 160.978 67.6044 167.055 67.6044C174.504 67.6044 180.187 68.9898 184.103 71.7607C188.02 74.5315 190.345 78.9469 191.081 85.0067L174.088 86.0092C174.048 84.9187 173.782 83.8486 173.307 82.8663C172.832 81.8841 172.159 81.0113 171.329 80.303C170.5 79.5947 169.533 79.0664 168.489 78.7515C167.445 78.4367 166.348 78.3421 165.266 78.4738C163.578 78.3506 161.901 78.8251 160.528 79.8142C160.031 80.1966 159.629 80.6878 159.352 81.2502C159.075 81.8126 158.931 82.4311 158.93 83.0581C158.935 83.5512 159.052 84.0368 159.272 84.4779C159.492 84.919 159.81 85.304 160.202 85.6037C161.057 86.3546 163.071 87.0717 166.245 87.755C174.137 89.4596 179.782 91.1792 183.181 92.9138C186.222 94.3256 188.801 96.5712 190.619 99.3904C192.181 101.998 192.987 104.989 192.949 108.03C192.967 111.716 191.885 115.324 189.843 118.392C187.724 121.593 184.705 124.094 181.166 125.578C176.704 127.356 171.923 128.192 167.122 128.034C157.204 128.034 150.336 126.123 146.518 122.301C142.647 118.382 140.342 113.182 140.036 107.68ZM197.923 68.5956H252.703V83.013H234.327V127.009H216.322V83.013H197.923V68.5956ZM299.202 68.5956H316.813V103.389C316.833 106.713 316.301 110.017 315.238 113.166C314.211 116.185 312.519 118.933 310.286 121.208C308.313 123.321 305.901 124.974 303.219 126.051C299.243 127.44 295.05 128.1 290.841 128C287.801 127.981 284.764 127.782 281.748 127.403C278.881 127.126 276.089 126.324 273.511 125.038C271.185 123.759 269.126 122.046 267.445 119.992C265.735 118.026 264.455 115.724 263.687 113.233C262.679 110.034 262.13 106.709 262.055 103.355V68.5956H279.666V104.222C279.584 105.577 279.771 106.934 280.215 108.215C280.659 109.497 281.352 110.678 282.254 111.69C284.248 113.409 286.792 114.355 289.423 114.355C292.054 114.355 294.598 113.409 296.591 111.69C297.5 110.675 298.197 109.489 298.641 108.201C299.085 106.913 299.268 105.549 299.179 104.189L299.202 68.5956ZM328.989 68.5956H355.772C360.135 68.4349 364.485 69.1669 368.556 70.7469C371.711 72.1037 374.48 74.2249 376.613 76.9194C378.78 79.6917 380.35 82.8822 381.227 86.2907C382.199 89.9658 382.683 93.7528 382.667 97.5544C382.667 103.794 381.955 108.634 380.529 112.073C379.222 115.358 377.205 118.312 374.621 120.724C372.339 122.914 369.552 124.508 366.508 125.364C363.014 126.361 359.405 126.898 355.772 126.964H328.989V68.5956ZM346.995 81.8191V113.763H351.406C355.157 113.763 357.835 113.342 359.441 112.501C361.166 111.529 362.496 109.983 363.199 108.131C364.1 106.051 364.55 102.672 364.55 97.9937C364.55 91.8099 363.537 87.5635 361.523 85.2883C359.508 83.013 356.166 81.9092 351.496 81.9092L346.995 81.8191ZM392.84 68.5956H410.902V127.009H392.84V68.5956ZM421.559 97.881C421.559 88.352 424.214 80.9292 429.526 75.6128C434.838 70.2964 442.223 67.6194 451.684 67.5818C461.392 67.5818 468.871 70.1912 474.123 75.4101C479.374 80.6289 482 87.939 482 97.3404C482 104.166 480.852 109.764 478.557 114.134C476.325 118.445 472.862 121.993 468.609 124.328C464.272 126.761 458.867 127.977 452.393 127.977C445.918 127.977 440.475 126.93 436.064 124.835C431.655 122.634 428.006 119.162 425.587 114.867C422.902 110.376 421.559 104.699 421.559 97.836V97.881ZM439.564 97.9599C439.564 103.862 440.659 108.101 442.85 110.677C444.001 111.897 445.387 112.87 446.925 113.537C448.463 114.205 450.12 114.553 451.796 114.561C453.472 114.568 455.133 114.234 456.676 113.58C458.22 112.926 459.615 111.965 460.776 110.755C462.892 108.232 463.95 103.704 463.95 97.1714C463.95 91.6673 462.843 87.6499 460.63 85.1193C459.506 83.8551 458.115 82.8575 456.558 82.1989C455.001 81.5404 453.316 81.2374 451.627 81.3122C449.971 81.251 448.323 81.5668 446.806 82.2361C445.289 82.9053 443.944 83.9104 442.872 85.1757C440.689 87.7137 439.594 91.9601 439.586 97.9148L439.564 97.9599Z" fill="white"/>
<path d="M97.9834 136.971V152.438H40.1819V137.916H38.5063V323.262H40.1819V290.08H97.9834V323.262H99.6589V136.971H97.9834ZM97.9834 154.116V179.631H40.1819V154.116L97.9834 154.116ZM40.1819 234.016V208.502H97.9834V234.016H40.1819ZM97.9834 235.695V261.209H40.1819V235.695H97.9834ZM40.1819 206.824V181.309H97.9834V206.824H40.1819ZM40.1819 288.402V262.887H97.9834V288.402H40.1819Z" fill="#55546C"/>
<path d="M21.9558 140.653V142.972C21.9558 142.972 20.3026 143.634 20.3026 146.284C20.3026 148.933 18.98 158.869 18.98 158.869C18.98 158.869 21.2945 160.857 23.2784 160.194C24.3766 159.86 25.3911 159.296 26.2543 158.538L26.585 148.271L25.2624 145.621V140.985L21.9558 140.653Z" fill="#6C63FF"/>
<path d="M26.254 137.673C26.254 137.673 22.6168 135.685 21.9555 137.673C21.2942 139.66 19.3103 143.965 21.9555 144.297C24.6007 144.628 27.2459 142.309 27.2459 142.309L26.254 137.673Z" fill="#FFB8B8"/>
<path d="M44.1551 151.088C44.1551 151.088 42.1641 153.722 45.0528 179.418C47.9415 205.114 46.277 223.824 51.7609 223.567C51.7609 223.567 50.3296 229.139 54.9895 229.345C59.6495 229.55 61.7783 229.874 62.1411 228.587C62.5039 227.3 63.0718 221.345 61.8063 221.404C61.8063 221.404 61.885 223.094 62.4136 216.294C62.9422 209.494 61.4455 177.381 63.3577 173.057L70.8358 188.375C70.8358 188.375 71.1706 195.558 72.5937 198.88C74.0168 202.201 77.0319 221.539 77.0319 221.539L76.748 224.516C76.748 224.516 86.9509 225.733 87.2939 224.023C87.637 222.313 87.5189 219.778 87.0576 218.953C86.5964 218.127 86.5964 218.127 87.3613 216.398C87.7 215.747 87.8954 215.032 87.9342 214.3C87.973 213.567 87.8543 212.835 87.5862 212.153C87.1053 210.905 85.8252 183.44 85.8252 183.44C85.8252 183.44 83.4256 150.099 78.2847 148.645C73.1439 147.192 44.1551 151.088 44.1551 151.088Z" fill="#55546C"/>
<path d="M53.1449 226.043L50.0459 232.117C50.0459 232.117 44.6843 230.462 45.9654 235.272C51.1121 235.432 56.2626 235.12 61.3526 234.34C61.3526 234.34 63.5012 235.087 63.864 233.8C64.2267 232.512 62.5435 228.145 61.278 228.204C60.0125 228.263 53.1449 226.043 53.1449 226.043Z" fill="#55546C"/>
<path d="M77.5329 223.209C77.5329 223.209 74.5127 230.972 75.7979 231.336C77.0831 231.699 88.5516 232.857 89.415 233.24C90.2784 233.623 94.5165 233.848 94.8201 231.293C95.1238 228.738 92.5534 228.012 92.5534 228.012C92.5534 228.012 87.8737 227.383 86.4113 223.217C84.9488 219.051 77.5329 223.209 77.5329 223.209Z" fill="#55546C"/>
<path d="M48.8961 88.0981C53.7741 88.0981 57.7286 84.1371 57.7286 79.251C57.7286 74.3649 53.7741 70.4039 48.8961 70.4039C44.018 70.4039 40.0635 74.3649 40.0635 79.251C40.0635 84.1371 44.018 88.0981 48.8961 88.0981Z" fill="#FFB8B8"/>
<path d="M44.2476 83.4417C44.2476 83.4417 46.5719 95.5483 45.6422 97.8765C44.7124 100.205 58.6585 96.9453 58.6585 96.9453C58.6585 96.9453 55.8693 84.8387 56.3341 82.0448C56.799 79.251 44.2476 83.4417 44.2476 83.4417Z" fill="#FFB8B8"/>
<path d="M48.6279 68.3235C47.8934 68.1902 47.1384 68.2236 46.4185 68.4212C45.8422 68.6768 45.3118 69.0253 44.8483 69.4529C44.0071 70.1244 43.1088 70.7205 42.1635 71.2346C41.3742 71.5748 40.6631 72.074 40.0747 72.7013C39.826 73.0439 39.6275 73.4203 39.4851 73.8191C38.5791 76.1366 38.3357 78.6611 38.782 81.1094C38.8321 81.4573 38.9366 81.7951 39.0916 82.1104C39.5748 83.0021 40.6419 83.3535 41.5408 83.8209C43.2476 84.7083 44.5413 86.2026 45.9412 87.5232C46.4611 88.0431 47.0454 88.4942 47.6798 88.8653C49.6768 89.956 52.1178 89.6002 54.3596 89.2145C54.5185 89.2142 54.6757 89.1824 54.8223 89.1209C54.9688 89.0595 55.1017 88.9696 55.2134 88.8564C55.3251 88.7433 55.4133 88.6091 55.473 88.4616C55.5327 88.3141 55.5626 88.1563 55.5611 87.9972L57.3306 80.0252C57.6513 78.8441 57.804 77.6235 57.7841 76.3996C57.6607 74.4644 56.6147 71.7837 55.1968 70.4091C53.5447 68.8074 50.7875 68.5525 48.6279 68.3235Z" fill="#55546C"/>
<path d="M42.1256 98.5912C42.1256 98.5912 42.7869 93.9544 46.7547 93.6232C48.9988 93.411 51.2149 92.967 53.3678 92.2984C53.6984 92.2984 57.9969 92.6296 59.9808 94.6168C59.9808 94.6168 61.3035 96.604 61.9648 95.2792C62.6261 93.9544 62.6261 93.292 63.9487 93.9544C65.2713 94.6168 65.2713 91.9672 67.5859 92.2984C69.9005 92.6296 75.8522 107.534 75.8522 107.534L73.8683 109.852C73.8683 109.852 71.2231 127.737 75.8522 135.354C80.4814 142.972 82.4653 151.252 77.8361 152.908C73.207 154.564 40.803 169.468 42.1256 160.194C43.4482 150.921 42.4562 136.348 41.1336 136.017C39.811 135.685 32.5366 109.521 32.5366 109.521C32.8291 107.86 33.525 106.296 34.5629 104.968C35.6008 103.639 36.9489 102.587 38.4884 101.903C43.7788 99.5848 42.1256 98.5912 42.1256 98.5912Z" fill="#CFD2FF"/>
<path d="M85.2112 48.5801C85.2112 48.5801 79.4607 49.2425 79.4607 51.8921C79.4607 54.5417 74.8604 64.4777 74.8604 64.4777C74.8604 64.4777 82.911 66.4649 89.8116 65.8025C96.7122 65.1401 100.163 64.1465 100.163 64.1465L101.313 53.8793L96.7122 51.2297L85.2112 48.5801Z" fill="#6C63FF"/>
<path d="M85.7717 71.7641V65.4713C85.7717 65.4713 78.8279 51.5609 84.4491 51.5609C90.0702 51.5609 90.7315 64.1465 90.7315 64.1465V73.0889L85.7717 71.7641Z" fill="#FFB8B8"/>
<path d="M65.9326 93.6232L67.5859 92.2984C67.5859 92.2984 70.5617 92.2984 70.8924 91.636C71.223 90.9736 72.8763 90.9736 74.1989 90.3112C75.5216 89.6488 73.8683 88.6552 75.5216 87.9928C77.1748 87.3304 77.1748 87.9928 77.1748 86.3368C77.1748 84.6808 81.4733 83.0248 81.8039 81.0377C82.1346 79.0505 85.4411 69.7769 85.4411 69.7769L91.7235 71.7641L90.0703 83.6873C90.0703 83.6873 90.0703 89.6488 87.0944 93.6232C84.1185 97.5976 77.5055 107.534 74.1989 107.865C70.8924 108.196 65.9326 93.6232 65.9326 93.6232Z" fill="#CFD2FF"/>
<path d="M34.5209 107.865L32.537 109.521C32.537 109.521 31.8756 116.807 31.8756 117.138C31.8756 117.47 32.5369 121.444 31.8756 121.775C31.2143 122.106 29.8917 128.73 30.2224 129.062V130.055L25.5933 137.341V144.297L36.5048 137.341C36.5048 137.341 42.7872 136.679 41.7952 131.049C40.8033 125.418 34.5209 107.865 34.5209 107.865Z" fill="#CFD2FF"/>
</svg>
