<svg width="125" height="33" viewBox="0 0 125 33" fill="none" xmlns="http://www.w3.org/2000/svg">
<path d="M0 9.9659L4.27115 9.69922C4.31757 10.2681 4.51254 10.8149 4.83658 11.2848C5.07421 11.577 5.3781 11.8082 5.72303 11.9595C6.06796 12.1107 6.44399 12.1776 6.81992 12.1545C7.35206 12.1899 7.87885 12.0301 8.30163 11.7052C8.46065 11.5804 8.58978 11.4217 8.67957 11.2406C8.76937 11.0596 8.81758 10.8608 8.82067 10.6587C8.81685 10.4645 8.77047 10.2736 8.6848 10.0993C8.59913 9.92498 8.47625 9.7716 8.32483 9.64994C7.99427 9.35813 7.22781 9.08082 6.02543 8.818C4.05755 8.37546 2.65316 7.78798 1.81227 7.05556C1.40428 6.71261 1.0786 6.2824 0.859272 5.79672C0.639946 5.31104 0.532588 4.7823 0.54513 4.24957C0.548076 3.4965 0.774088 2.76117 1.19465 2.13638C1.67722 1.43636 2.35621 0.894742 3.1461 0.57975C4.01598 0.19325 5.20676 0 6.71844 0C8.57613 0 9.99212 0.344951 10.9664 1.03485C11.9407 1.72476 12.5206 2.82338 12.7062 4.33073L8.47271 4.57713C8.41736 4.03178 8.16597 3.52503 7.7652 3.15094C7.33661 2.83107 6.80871 2.67296 6.27479 2.70453C5.85441 2.67319 5.43646 2.79125 5.09465 3.03789C4.97115 3.13285 4.87111 3.2549 4.80223 3.39461C4.73336 3.53433 4.69749 3.68798 4.6974 3.84374C4.70148 3.96601 4.73305 4.08578 4.78977 4.19418C4.8465 4.30257 4.92691 4.3968 5.02505 4.46987C5.23576 4.66312 5.7374 4.84091 6.52996 5.00324C8.49204 5.42646 9.89836 5.85451 10.7489 6.28739C11.5057 6.63868 12.1479 7.19632 12.6018 7.8962C12.9904 8.54571 13.1912 9.29028 13.1817 10.0471C13.1861 10.9631 12.9165 11.8595 12.4075 12.6212C11.8813 13.4187 11.1292 14.0414 10.2473 14.4097C9.13624 14.8523 7.94569 15.0605 6.75033 15.0213C4.27598 15.0213 2.56424 14.545 1.61509 13.5922C0.653687 12.6199 0.0795251 11.3308 0 9.9659H0ZM14.8751 7.51936C14.8751 5.14818 15.5362 3.30264 16.8584 1.98275C18.1807 0.662848 20.021 0.0019325 22.3793 0C24.7976 0 26.6611 0.64932 27.9698 1.94796C29.2785 3.2466 29.9319 5.06412 29.93 7.40051C29.93 9.09918 29.64 10.4915 29.0601 11.5776C28.5026 12.6495 27.6399 13.5321 26.5809 14.114C25.5022 14.717 24.1558 15.0194 22.5417 15.0213C20.9276 15.0233 19.5744 14.7624 18.4822 14.2387C17.3835 13.6927 16.4743 12.8292 15.8726 11.7602C15.2076 10.6297 14.8751 9.21609 14.8751 7.51936ZM19.3666 7.53675C19.3666 9.00352 19.6392 10.0567 20.1843 10.6964C20.4576 11.015 20.8 11.2673 21.1853 11.434C21.5706 11.6008 21.9889 11.6776 22.4083 11.6588C22.8279 11.6834 23.2475 11.6121 23.6354 11.4504C24.0232 11.2887 24.3691 11.0407 24.6468 10.7254C25.1746 10.0992 25.4384 8.97357 25.4384 7.34833C25.4384 5.98012 25.163 4.98102 24.612 4.35102C24.3317 4.03568 23.9845 3.78693 23.5957 3.62293C23.2069 3.45893 22.7864 3.38384 22.3648 3.40313C21.9541 3.38691 21.5451 3.46345 21.1681 3.62706C20.7911 3.79066 20.4558 4.03713 20.1872 4.34813C19.6401 4.99745 19.3666 6.06032 19.3666 7.53675ZM32.3482 0.246394H36.8398V11.195H43.8453V14.7836H32.3482V0.246394ZM54.8175 0.246394H59.2974V8.90206C59.303 9.72886 59.1666 10.5505 58.8943 11.3312C58.6325 12.085 58.2021 12.769 57.6359 13.3314C57.1317 13.8587 56.518 14.2693 55.8381 14.5343C54.8275 14.8814 53.7632 15.0463 52.6949 15.0213C51.9194 15.0178 51.1447 14.9675 50.3752 14.8706C49.647 14.8063 48.9366 14.6098 48.2788 14.2908C47.6927 13.9768 47.1721 13.5537 46.7449 13.0444C46.311 12.5609 45.9848 11.9908 45.788 11.3718C45.5311 10.5778 45.3905 9.75082 45.3705 8.91656V0.246394H49.8504V9.10787C49.8303 9.44564 49.8785 9.784 49.9921 10.1027C50.1057 10.4215 50.2823 10.7141 50.5115 10.9631C51.0219 11.3918 51.6673 11.6269 52.3339 11.6269C53.0006 11.6269 53.6459 11.3918 54.1563 10.9631C54.3868 10.7126 54.5642 10.4181 54.6779 10.0973C54.7915 9.77644 54.839 9.43594 54.8175 9.09628V0.246394ZM61.2488 0.246394H74.8974V3.83505H70.316V14.7836H65.8215V3.83505H61.2488V0.246394ZM77.1069 0.246394H81.6071V21.7638H77.1069V0.246394ZM84.2632 7.51936C84.2632 5.14818 84.9233 3.30264 86.2436 1.98275C87.5639 0.662848 89.4004 0.0019325 91.7529 0C94.1828 0 96.0502 0.64932 97.355 1.94796C98.6598 3.2466 99.3132 5.06412 99.3151 7.40051C99.3151 9.09918 99.03 10.4915 98.4598 11.5776C97.9016 12.6499 97.0378 13.5326 95.9777 14.114C94.899 14.717 93.5526 15.0194 91.9385 15.0213C90.3244 15.0233 88.9712 14.7624 87.879 14.2387C86.7803 13.6927 85.8711 12.8292 85.2694 11.7602C84.5986 10.6297 84.2632 9.21609 84.2632 7.51936ZM88.7518 7.53965C88.7518 9.00642 89.0244 10.0596 89.5695 10.6993C89.8569 11.0015 90.2024 11.2426 90.5854 11.4079C90.9683 11.5732 91.3808 11.6594 91.7979 11.6613C92.215 11.6632 92.6282 11.5807 93.0126 11.4189C93.3971 11.2571 93.7448 11.0192 94.0349 10.7196C94.5569 10.0934 94.8178 8.96777 94.8178 7.34253C94.8178 5.97432 94.5424 4.97522 93.9914 4.34523C93.7114 4.03027 93.3647 3.78175 92.9764 3.61777C92.5882 3.45378 92.1682 3.37848 91.7471 3.39734C91.3369 3.38207 90.9284 3.45965 90.5524 3.62429C90.1763 3.78893 89.8423 4.03636 89.5753 4.34813C89.0244 4.99745 88.7499 6.06032 88.7518 7.53675V7.53965ZM101.777 0.246394H105.967L111.438 8.28463V0.246394H115.672V14.7836H111.438L105.987 6.79757V14.7836H101.777V0.246394ZM36.083 27.7121L40.4991 27.4222C40.5455 28.0104 40.7454 28.5761 41.079 29.0629C41.3236 29.367 41.6371 29.6084 41.9936 29.7672C42.3501 29.926 42.7394 29.9976 43.1291 29.976C43.6802 30.0129 44.2258 29.8469 44.663 29.5093C44.8275 29.3806 44.9612 29.2167 45.054 29.0296C45.1468 28.8424 45.1965 28.6369 45.1994 28.428C45.1952 28.2268 45.1471 28.0289 45.0585 27.8481C44.9698 27.6674 44.8428 27.5082 44.6862 27.3816C44.3469 27.0743 43.5524 26.7845 42.3085 26.512C40.2729 26.054 38.8231 25.4452 37.959 24.6858C37.5365 24.3321 37.199 23.8879 36.9716 23.3861C36.7442 22.8843 36.6328 22.3378 36.6455 21.787C36.6475 21.0069 36.8817 20.2451 37.3182 19.5985C37.8186 18.8686 38.5253 18.3044 39.3479 17.9781C40.2468 17.5915 41.4792 17.3983 43.045 17.3983C44.9645 17.3983 46.4288 17.7548 47.4379 18.4679C48.447 19.181 49.0462 20.3173 49.2357 21.8769L44.8572 22.1349C44.8469 21.8542 44.7783 21.5788 44.656 21.326C44.5336 21.0733 44.3601 20.8486 44.1464 20.6663C43.9327 20.4841 43.6835 20.3481 43.4146 20.2671C43.1456 20.186 42.8628 20.1617 42.5839 20.1956C42.1491 20.1639 41.717 20.286 41.3632 20.5405C41.2353 20.639 41.1316 20.7654 41.0603 20.9101C40.9889 21.0549 40.9516 21.214 40.9514 21.3754C40.9526 21.5023 40.9828 21.6273 41.0396 21.7408C41.0963 21.8543 41.1783 21.9534 41.2791 22.0305C41.4995 22.2238 42.0185 22.4083 42.8362 22.5842C44.8698 23.0228 46.3245 23.4654 47.2001 23.9118C47.9838 24.2751 48.6483 24.8531 49.1168 25.5786C49.5192 26.2497 49.727 27.0195 49.717 27.8019C49.7218 28.7507 49.4431 29.6793 48.9167 30.4688C48.3708 31.2927 47.5928 31.9362 46.6811 32.3182C45.5312 32.7756 44.2993 32.9907 43.0624 32.9501C40.5068 32.9501 38.7371 32.4583 37.7532 31.4746C36.7559 30.4661 36.1619 29.1279 36.083 27.7121ZM50.9987 17.6534H65.114V21.3638H60.3789V32.6863H55.7395V21.3638H50.9987V17.6534ZM77.0953 17.6534H81.6332V26.6076C81.6383 27.463 81.5011 28.3133 81.2273 29.1237C80.9628 29.9006 80.5267 30.608 79.9514 31.1935C79.443 31.7372 78.8214 32.1627 78.1305 32.4399C77.106 32.7972 76.0256 32.967 74.9409 32.9414C74.1576 32.9366 73.3752 32.8853 72.598 32.7878C71.8591 32.7165 71.1397 32.5102 70.4754 32.179C69.8762 31.8501 69.3456 31.4092 68.9126 30.8804C68.4719 30.3745 68.142 29.7821 67.9441 29.1411C67.6845 28.3178 67.543 27.4619 67.5236 26.5989V17.6534H72.0615V26.8221C72.0404 27.1706 72.0885 27.5198 72.2029 27.8497C72.3174 28.1795 72.496 28.4835 72.7285 28.744C73.2421 29.1864 73.8976 29.4297 74.5755 29.4297C75.2535 29.4297 75.9089 29.1864 76.4226 28.744C76.6567 28.4828 76.8362 28.1775 76.9508 27.8459C77.0653 27.5144 77.1124 27.1634 77.0895 26.8134L77.0953 17.6534ZM84.7706 17.6534H91.6717C92.796 17.612 93.9168 17.8004 94.9657 18.2071C95.7788 18.5562 96.4923 19.1021 97.0418 19.7956C97.6001 20.509 98.0048 21.3301 98.2307 22.2073C98.4811 23.1531 98.6059 24.1277 98.6018 25.1061C98.6018 26.712 98.4182 27.9575 98.0509 28.8426C97.7142 29.6879 97.1943 30.4482 96.5286 31.0688C95.9404 31.6325 95.2224 32.0427 94.438 32.2631C93.5376 32.5195 92.6078 32.6579 91.6717 32.6747H84.7706V17.6534ZM89.41 21.0565V29.2774H90.5467C91.5132 29.2774 92.2033 29.1692 92.617 28.9527C93.0615 28.7026 93.4042 28.3046 93.5855 27.828C93.8175 27.2927 93.9334 26.4231 93.9334 25.2191C93.9334 23.6277 93.6725 22.5349 93.1534 21.9493C92.6344 21.3638 91.7732 21.0797 90.5699 21.0797L89.41 21.0565ZM101.223 17.6534H105.877V32.6863H101.223V17.6534ZM108.623 25.1901C108.623 22.7378 109.307 20.8275 110.676 19.4593C112.045 18.0911 113.948 17.4022 116.385 17.3925C118.887 17.3925 120.814 18.064 122.167 19.4071C123.52 20.7502 124.197 22.6315 124.197 25.051C124.197 26.8076 123.901 28.2483 123.31 29.373C122.734 30.4824 121.842 31.3956 120.746 31.9964C119.629 32.6225 118.236 32.9356 116.568 32.9356C114.9 32.9356 113.497 32.666 112.361 32.1269C111.225 31.5605 110.284 30.667 109.661 29.5615C108.969 28.4058 108.623 26.9449 108.623 25.1785V25.1901ZM113.262 25.2104C113.262 26.7294 113.545 27.8203 114.109 28.4831C114.406 28.7971 114.763 29.0476 115.159 29.2194C115.555 29.3912 115.982 29.4808 116.414 29.4827C116.846 29.4846 117.274 29.3988 117.672 29.2304C118.069 29.0621 118.429 28.8148 118.728 28.5034C119.273 27.8541 119.546 26.6888 119.546 25.0075C119.546 23.591 119.261 22.5571 118.69 21.9059C118.401 21.5805 118.042 21.3238 117.641 21.1543C117.24 20.9848 116.806 20.9068 116.371 20.9261C115.944 20.9103 115.519 20.9916 115.128 21.1638C114.738 21.3361 114.391 21.5947 114.115 21.9204C113.552 22.5735 113.27 23.6664 113.268 25.1988L113.262 25.2104Z" fill="white"/>
</svg>
