<svg width="412" height="311" viewBox="0 0 412 311" fill="none" xmlns="http://www.w3.org/2000/svg">
<g clip-path="url(#clip0)">
<path d="M239.061 304.1C236 306.462 232.681 308.41 229.179 309.903C228.262 310.298 227.34 310.665 226.402 311H178.535C178.341 310.638 178.153 310.27 177.959 309.903C174.076 302.421 170.554 294.649 169.556 286.197C168.358 276.05 171.716 264.558 180.018 259.573C181.105 258.92 182.257 258.401 183.452 258.026C183.947 257.861 184.451 257.73 184.961 257.614C188.073 256.871 191.312 257.033 194.346 258.084C197.381 259.135 200.1 261.037 202.225 263.594C204.35 266.151 205.804 269.271 206.438 272.633C207.071 275.995 206.861 279.479 205.829 282.725C212.867 274.958 211.552 262.364 209.126 251.839C206.696 241.313 203.75 229.597 208.698 220.141C211.445 214.881 216.281 211.617 221.703 210.301C221.872 210.262 222.04 210.224 222.203 210.191C228.667 208.782 235.388 210.049 241.023 213.74C251.398 220.772 256.723 234.117 258.451 247.182C261.239 268.211 255.072 291.676 239.061 304.1Z" fill="#F2F2F2"/>
<path d="M188.717 264.317C192.549 272.691 193.772 282.172 192.203 291.353C191.019 298.084 188.411 304.432 184.579 309.903C184.319 310.276 184.054 310.643 183.784 311H181.894C182.184 310.643 182.469 310.276 182.74 309.903C186.219 305.237 188.742 299.831 190.142 294.041C191.542 288.251 191.788 282.207 190.863 276.307C189.765 269.67 187.226 263.406 183.453 258.026C183.947 257.861 184.452 257.73 184.961 257.614C186.396 259.724 187.653 261.967 188.717 264.317Z" fill="white"/>
<path d="M234.51 270.389C234.101 275.027 233.065 279.576 231.437 283.893C229.935 287.713 227.912 291.27 225.433 294.446C220.373 301.001 213.677 305.932 206.405 309.212C205.875 309.453 205.34 309.684 204.8 309.903C203.862 310.298 202.914 310.66 201.961 311H196.799C198.017 310.671 199.23 310.303 200.427 309.903C203.275 308.949 206.053 307.77 208.739 306.376C215.567 302.893 221.495 297.659 226.004 291.133C230.84 283.948 232.976 275.309 233.343 266.528C233.73 257.132 232.594 247.566 230.601 238.422C228.568 229.05 225.475 219.982 221.392 211.42C221.301 211.226 221.282 211.002 221.34 210.793C221.398 210.585 221.528 210.409 221.703 210.301C221.85 210.196 222.029 210.157 222.203 210.191C222.288 210.214 222.366 210.258 222.433 210.319C222.5 210.38 222.554 210.456 222.59 210.542C223.094 211.601 223.589 212.659 224.063 213.729C228.02 222.646 230.935 232.057 232.741 241.746C234.489 251.093 235.427 260.873 234.51 270.389Z" fill="white"/>
<path d="M21.6427 155.226C17.4095 155.226 13.2713 153.875 9.75157 151.343C6.2318 148.812 3.48847 145.214 1.8685 141.005C0.248527 136.795 -0.175326 132.163 0.650529 127.694C1.47638 123.226 3.51486 119.121 6.50818 115.899C9.5015 112.677 13.3152 110.483 17.4671 109.594C21.6189 108.705 25.9224 109.162 29.8334 110.905C33.7444 112.649 37.0871 115.602 39.4389 119.39C41.7908 123.178 43.0461 127.632 43.0461 132.189C43.0396 138.296 40.7826 144.152 36.77 148.471C32.7575 152.789 27.3172 155.219 21.6427 155.226ZM21.6427 110.249C17.6111 110.249 13.67 111.535 10.3178 113.946C6.96565 116.357 4.35296 119.784 2.81013 123.793C1.2673 127.802 0.863623 132.213 1.65015 136.469C2.43668 140.725 4.37809 144.634 7.22887 147.703C10.0796 150.771 13.7118 152.861 17.6659 153.707C21.6201 154.554 25.7186 154.119 29.4434 152.459C33.1681 150.798 36.3517 147.986 38.5915 144.378C40.8313 140.77 42.0269 136.528 42.0269 132.189C42.0207 126.372 39.8712 120.795 36.0497 116.682C32.2283 112.569 27.047 110.255 21.6427 110.249Z" fill="#3F3D56"/>
<path d="M108.275 81.1781C104.042 81.1781 99.9042 79.827 96.3844 77.2957C92.8646 74.7643 90.1213 71.1664 88.5013 66.957C86.8813 62.7475 86.4575 58.1155 87.2833 53.6468C88.1092 49.178 90.1477 45.0732 93.141 41.8514C96.1343 38.6297 99.948 36.4356 104.1 35.5467C108.252 34.6578 112.555 35.114 116.466 36.8576C120.377 38.6013 123.72 41.554 126.072 45.3424C128.424 49.1308 129.679 53.5848 129.679 58.1411C129.672 64.2488 127.415 70.1043 123.403 74.4231C119.39 78.7419 113.95 81.1712 108.275 81.1781ZM108.275 36.2011C104.244 36.2011 100.303 37.4878 96.9506 39.8986C93.5985 42.3094 90.9858 45.736 89.443 49.745C87.9001 53.754 87.4964 58.1654 88.283 62.4214C89.0695 66.6773 91.0109 70.5867 93.8617 73.655C96.7125 76.7234 100.345 78.813 104.299 79.6596C108.253 80.5061 112.351 80.0716 116.076 78.411C119.801 76.7504 122.984 73.9383 125.224 70.3303C127.464 66.7223 128.66 62.4804 128.66 58.1411C128.654 52.3242 126.504 46.7475 122.683 42.6344C118.861 38.5213 113.68 36.2076 108.275 36.2011Z" fill="#3F3D56"/>
<path d="M201.024 46.0741C196.79 46.0741 192.652 44.723 189.132 42.1916C185.613 39.6603 182.869 36.0624 181.249 31.8529C179.629 27.6435 179.206 23.0115 180.031 18.5427C180.857 14.074 182.896 9.96917 185.889 6.74738C188.882 3.5256 192.696 1.33153 196.848 0.442645C201 -0.446244 205.303 0.00996781 209.214 1.75359C213.125 3.49721 216.468 6.44991 218.82 10.2383C221.172 14.0268 222.427 18.4807 222.427 23.037C222.42 29.1447 220.163 35.0003 216.151 39.319C212.138 43.6378 206.698 46.0672 201.024 46.0741ZM201.024 1.09699C196.992 1.09699 193.051 2.38375 189.699 4.79455C186.346 7.20536 183.734 10.6319 182.191 14.6409C180.648 18.65 180.244 23.0614 181.031 27.3173C181.818 31.5733 183.759 35.4826 186.61 38.551C189.46 41.6193 193.093 43.7089 197.047 44.5555C201.001 45.4021 205.099 44.9676 208.824 43.307C212.549 41.6464 215.733 38.8343 217.972 35.2263C220.212 31.6182 221.408 27.3764 221.408 23.037C221.402 17.2202 219.252 11.6435 215.431 7.53033C211.609 3.4172 206.428 1.10356 201.024 1.09699Z" fill="#3F3D56"/>
<path d="M299.887 82.2751C295.654 82.2751 291.516 80.924 287.996 78.3927C284.476 75.8613 281.733 72.2634 280.113 68.054C278.493 63.8445 278.069 59.2125 278.895 54.7438C279.721 50.275 281.759 46.1702 284.752 42.9484C287.746 39.7267 291.559 37.5326 295.711 36.6437C299.863 35.7548 304.167 36.211 308.078 37.9546C311.989 39.6983 315.331 42.651 317.683 46.4394C320.035 50.2278 321.29 54.6818 321.29 59.2381C321.284 65.3458 319.027 71.2013 315.014 75.5201C311.002 79.8389 305.561 82.2682 299.887 82.2751ZM299.887 37.2981C295.855 37.2981 291.914 38.5848 288.562 40.9956C285.21 43.4064 282.597 46.833 281.054 50.842C279.511 54.851 279.108 59.2624 279.894 63.5184C280.681 67.7743 282.622 71.6837 285.473 74.752C288.324 77.8204 291.956 79.91 295.91 80.7566C299.864 81.6031 303.963 81.1686 307.687 79.508C311.412 77.8474 314.596 75.0353 316.836 71.4273C319.076 67.8193 320.271 63.5774 320.271 59.2381C320.265 53.4212 318.115 47.8445 314.294 43.7314C310.472 39.6183 305.291 37.3046 299.887 37.2981Z" fill="#3F3D56"/>
<path d="M390.597 137.674C386.364 137.674 382.225 136.323 378.706 133.791C375.186 131.26 372.443 127.662 370.823 123.453C369.203 119.243 368.779 114.611 369.605 110.142C370.43 105.674 372.469 101.569 375.462 98.347C378.456 95.1252 382.269 92.9312 386.421 92.0423C390.573 91.1534 394.877 91.6096 398.788 93.3532C402.698 95.0968 406.041 98.0496 408.393 101.838C410.745 105.626 412 110.08 412 114.637C411.994 120.744 409.737 126.6 405.724 130.919C401.712 135.237 396.271 137.667 390.597 137.674ZM390.597 92.6966C386.565 92.6966 382.624 93.9834 379.272 96.3942C375.92 98.805 373.307 102.232 371.764 106.241C370.221 110.25 369.818 114.661 370.604 118.917C371.391 123.173 373.332 127.082 376.183 130.151C379.034 133.219 382.666 135.309 386.62 136.155C390.574 137.002 394.673 136.567 398.397 134.907C402.122 133.246 405.306 130.434 407.546 126.826C409.785 123.218 410.981 118.976 410.981 114.637C410.975 108.82 408.825 103.243 405.004 99.13C401.182 95.0168 396.001 92.7032 390.597 92.6966Z" fill="#3F3D56"/>
<path d="M120.506 51.8321L123.054 51.2836C123.054 51.2836 120.914 53.8616 120.506 54.0261C120.468 54.5738 120.468 55.1239 120.506 55.6716C115.614 78.2698 97.5742 68.2871 97.5742 68.2871C104.148 68.4517 104.709 65.5446 104.709 65.5446C100.887 64.9413 100.122 62.2536 100.122 62.2536C100.465 62.4483 100.863 62.5 101.239 62.3988C101.615 62.2976 101.943 62.0506 102.161 61.7051C98.0329 60.5533 98.5934 56.2201 98.5934 56.2201C99.3292 56.7918 100.189 57.1507 101.09 57.2623C100.632 56.6589 96.7589 51.6675 99.103 49.0896C99.103 49.0896 101.957 54.5746 109.448 55.0682L109.958 54.9586C109.871 54.5635 109.837 54.1572 109.856 53.7519C109.856 52.2244 110.419 50.7595 111.423 49.6794C112.426 48.5994 113.787 47.9926 115.207 47.9926C118.774 47.9926 119.538 50.1866 119.538 50.1866L122.086 48.5411C122.035 48.5411 121.78 51.2836 120.506 51.8321Z" fill="#3F3D56"/>
<path d="M283.238 295.989L288.849 298.949L302.125 277.068L293.845 272.699L283.238 295.989Z" fill="#FFB8B8"/>
<path d="M282.705 293.263L293.753 299.092L293.753 299.092C294.678 299.58 295.504 300.259 296.185 301.09C296.866 301.922 297.388 302.89 297.721 303.938C298.054 304.987 298.192 306.096 298.127 307.202C298.062 308.308 297.796 309.39 297.342 310.385L297.23 310.631L279.142 301.087L282.705 293.263Z" fill="#2F2E41"/>
<path d="M338.833 306.306L345.081 306.306L348.053 280.369H338.832L338.833 306.306Z" fill="#FFB8B8"/>
<path d="M337.239 301.917L349.543 301.917H349.544C350.573 301.917 351.593 302.135 352.544 302.559C353.496 302.983 354.36 303.605 355.088 304.388C355.816 305.172 356.394 306.102 356.788 307.126C357.182 308.15 357.385 309.248 357.385 310.356V310.63L337.24 310.631L337.239 301.917Z" fill="#2F2E41"/>
<path d="M325.413 127.301C332.326 127.301 337.929 121.27 337.929 113.829C337.929 106.389 332.326 100.358 325.413 100.358C318.5 100.358 312.896 106.389 312.896 113.829C312.896 121.27 318.5 127.301 325.413 127.301Z" fill="#FFB8B8"/>
<path d="M337.877 297.751C337.286 297.751 336.719 297.505 336.292 297.065C335.866 296.625 335.614 296.026 335.588 295.391L330.75 226.081C330.745 225.9 330.683 225.725 330.576 225.585C330.468 225.445 330.321 225.347 330.156 225.306C329.992 225.266 329.819 225.285 329.666 225.361C329.513 225.437 329.387 225.566 329.309 225.727L298.36 289.321C298.079 289.891 297.602 290.322 297.032 290.52C296.461 290.718 295.841 290.669 295.303 290.384L286.675 285.74C286.134 285.448 285.722 284.937 285.529 284.319C285.336 283.701 285.377 283.026 285.644 282.44L304.112 242.163L316.344 211.993C321.065 201.983 326.079 196.825 331.671 196.223C337.408 195.606 343.535 199.852 350.405 209.204L350.461 209.281L350.46 209.378L349.44 294.043C349.442 294.658 349.229 295.251 348.844 295.706C348.459 296.16 347.93 296.442 347.361 296.497L338.101 297.74C338.026 297.748 337.951 297.751 337.877 297.751Z" fill="#2F2E41"/>
<path d="M312.202 216.865C312.883 216.413 313.464 215.805 313.903 215.085C314.343 214.365 314.63 213.55 314.745 212.698C314.86 211.845 314.8 210.976 314.569 210.151C314.338 209.326 313.942 208.566 313.409 207.924L315.296 154.25L306.124 155.48L305.35 207.697C304.407 208.733 303.85 210.105 303.784 211.554C303.718 213.003 304.148 214.427 304.993 215.557C305.837 216.687 307.038 217.444 308.366 217.685C309.695 217.927 311.06 217.635 312.202 216.865Z" fill="#FFB8B8"/>
<path d="M318.006 163.74L305.687 162.233C305.337 162.19 304.999 162.066 304.697 161.87C304.395 161.674 304.136 161.41 303.937 161.097C303.738 160.783 303.604 160.427 303.545 160.053C303.485 159.679 303.502 159.295 303.592 158.928L306.773 146.073C306.987 144.144 307.903 142.385 309.319 141.182C310.736 139.979 312.539 139.43 314.331 139.655C316.124 139.88 317.76 140.861 318.882 142.382C320.004 143.904 320.519 145.842 320.315 147.772L320.736 161.025C320.748 161.404 320.684 161.782 320.548 162.132C320.412 162.483 320.207 162.798 319.948 163.055C319.689 163.313 319.382 163.507 319.046 163.625C318.711 163.743 318.356 163.782 318.006 163.74V163.74Z" fill="#4368FF"/>
<path d="M371.068 129.952C371.006 130.248 370.965 130.549 370.946 130.851L349.055 144.444L343.734 141.147L338.062 149.14L346.954 155.962C347.673 156.513 348.538 156.799 349.42 156.776C350.302 156.753 351.153 156.422 351.846 155.834L374.419 136.666C375.438 137.072 376.547 137.135 377.6 136.845C378.652 136.556 379.598 135.929 380.311 135.047C381.025 134.165 381.471 133.07 381.592 131.908C381.713 130.746 381.503 129.572 380.989 128.542C380.475 127.512 379.682 126.675 378.715 126.142C377.748 125.609 376.653 125.405 375.576 125.559C374.499 125.712 373.491 126.214 372.686 126.999C371.881 127.783 371.316 128.814 371.068 129.952Z" fill="#FFB8B8"/>
<path d="M348.323 145.088L341.248 154.958C341.047 155.239 340.791 155.47 340.5 155.635C340.208 155.8 339.887 155.895 339.558 155.915C339.229 155.934 338.9 155.877 338.593 155.747C338.286 155.617 338.009 155.418 337.781 155.162L329.771 146.21C328.441 145.094 327.576 143.455 327.367 141.654C327.158 139.852 327.622 138.035 328.656 136.601C329.691 135.167 331.211 134.233 332.884 134.004C334.558 133.775 336.247 134.27 337.581 135.38L347.627 141.426C347.915 141.6 348.164 141.838 348.359 142.124C348.553 142.41 348.688 142.738 348.754 143.086C348.82 143.433 348.816 143.792 348.742 144.138C348.667 144.483 348.524 144.807 348.323 145.088H348.323Z" fill="#4368FF"/>
<path d="M354.094 213.402L340.511 142.19C339.866 138.806 338.026 135.822 335.38 133.867C332.733 131.911 329.485 131.136 326.319 131.704L321.789 132.517C320.215 132.799 318.709 133.412 317.355 134.321C316.002 135.23 314.828 136.417 313.901 137.814C312.427 140.034 311.435 142.582 310.996 145.269C310.558 147.956 310.684 150.715 311.366 153.342L318.864 182.224L313.3 213.166C313.237 213.509 313.252 213.863 313.343 214.199C313.434 214.534 313.599 214.842 313.822 215.095C314.046 215.348 314.323 215.541 314.63 215.655C314.937 215.77 315.265 215.804 315.586 215.755C318.372 215.326 322.963 214.714 328.237 214.38L331.094 202.518L332.256 214.192C338.735 213.996 345.767 214.338 351.568 215.96C351.904 216.057 352.257 216.059 352.594 215.968C352.931 215.877 353.24 215.694 353.493 215.438C353.746 215.182 353.934 214.86 354.039 214.504C354.145 214.147 354.164 213.768 354.094 213.402Z" fill="#4368FF"/>
<path d="M330.229 110.832C333.446 113.202 337.67 115.638 340.955 113.114C343.113 111.457 343.793 108.389 342.918 105.696C341.344 100.853 337.022 98.7215 332.888 97.0874C327.515 94.963 321.664 93.273 316.117 94.7944C310.57 96.3158 305.667 102.097 306.668 108.163C307.474 113.041 311.749 117.101 311.142 122.012C310.531 126.956 305.367 129.557 300.807 130.441C296.247 131.324 291.144 131.608 287.867 135.133C283.687 139.631 284.731 147.669 288.665 152.417C292.598 157.164 298.534 159.317 304.286 160.78C311.907 162.718 320.149 163.737 327.387 160.52C334.625 157.303 340.258 148.643 338.161 140.522C337.275 137.092 335.189 134.193 333.173 131.37C331.156 128.548 329.115 125.597 328.346 122.134C327.705 119.249 328.179 115.898 329.957 113.734C330.28 113.355 330.484 112.876 330.538 112.365C330.593 111.853 330.495 111.337 330.26 110.889L330.229 110.832Z" fill="#2F2E41"/>
<path d="M206.853 11.6407C208.279 11.6453 209.645 12.2569 210.653 13.342C211.661 14.4271 212.23 15.8975 212.234 17.432V29.0135C212.23 30.5481 211.661 32.0184 210.653 33.1035C209.645 34.1886 208.279 34.8003 206.853 34.8048H196.093C194.667 34.8003 193.301 34.1886 192.293 33.1035C191.285 32.0184 190.717 30.5481 190.712 29.0135V17.432C190.717 15.8975 191.285 14.4271 192.293 13.342C193.301 12.2569 194.667 11.6453 196.093 11.6407H206.853ZM206.853 9.32452H196.093C194.097 9.33077 192.185 10.187 190.773 11.7061C189.362 13.2252 188.566 15.2837 188.561 17.432V29.0135C188.566 31.1618 189.362 33.2204 190.773 34.7395C192.185 36.2586 194.097 37.1148 196.093 37.121H206.853C208.849 37.1148 210.762 36.2586 212.173 34.7395C213.585 33.2204 214.38 31.1618 214.386 29.0135V17.432C214.38 15.2837 213.585 13.2252 212.173 11.7061C210.762 10.187 208.849 9.33077 206.853 9.32452Z" fill="#3F3D56"/>
<path d="M208.468 17.432C208.041 17.431 207.632 17.2477 207.33 16.9223C207.029 16.5969 206.86 16.156 206.86 15.6966C206.861 15.2372 207.031 14.7967 207.333 14.472C207.635 14.1473 208.044 13.9649 208.471 13.9649C208.898 13.9649 209.307 14.1473 209.609 14.472C209.911 14.7967 210.081 15.2372 210.082 15.6966C210.082 16.156 209.913 16.5969 209.612 16.9223C209.31 17.2477 208.901 17.431 208.474 17.432C208.472 17.432 208.47 17.432 208.468 17.432Z" fill="#3F3D56"/>
<path d="M201.473 18.5898C202.324 18.5898 203.156 18.8615 203.864 19.3706C204.572 19.8796 205.124 20.6032 205.45 21.4498C205.775 22.2963 205.861 23.2279 205.695 24.1266C205.529 25.0253 205.119 25.8508 204.517 26.4987C203.915 27.1467 203.148 27.5879 202.313 27.7667C201.478 27.9454 200.612 27.8537 199.826 27.503C199.039 27.1524 198.367 26.5585 197.894 25.7967C197.421 25.0348 197.169 24.139 197.169 23.2227C197.169 21.994 197.622 20.8156 198.429 19.9467C199.236 19.0779 200.331 18.5898 201.473 18.5898ZM201.473 16.2736C200.196 16.2736 198.948 16.6812 197.886 17.4447C196.824 18.2083 195.997 19.2936 195.508 20.5634C195.019 21.8332 194.892 23.2304 195.141 24.5784C195.39 25.9264 196.005 27.1646 196.908 28.1365C197.811 29.1083 198.961 29.7702 200.213 30.0383C201.466 30.3065 202.764 30.1688 203.944 29.6429C205.123 29.1169 206.132 28.2262 206.841 27.0835C207.551 25.9407 207.929 24.5971 207.929 23.2227C207.929 21.3797 207.249 19.6122 206.038 18.309C204.827 17.0058 203.185 16.2736 201.473 16.2736V16.2736Z" fill="#3F3D56"/>
<path d="M83.1514 303.722L77.0703 302.18L79.7024 276.2L88.6776 278.476L83.1514 303.722Z" fill="#FFB8B8"/>
<path d="M83.3132 310.46L63.7051 305.488L63.7635 305.221C63.9996 304.142 64.4308 303.124 65.0324 302.224C65.6341 301.325 66.3945 300.562 67.2701 299.979C68.1458 299.396 69.1196 299.004 70.1359 298.826C71.1522 298.648 72.1912 298.687 73.1934 298.941L73.1939 298.941L85.1698 301.978L83.3132 310.46Z" fill="#2F2E41"/>
<path d="M106.849 303.941H100.601L97.6289 278.004L106.85 278.004L106.849 303.941Z" fill="#FFB8B8"/>
<path d="M108.442 310.46L88.2969 310.459V310.185C88.2969 309.077 88.4997 307.979 88.8937 306.955C89.2878 305.931 89.8653 305.001 90.5934 304.217C91.3215 303.434 92.1859 302.812 93.1373 302.388C94.0886 301.964 95.1082 301.745 96.1379 301.745H96.1384L108.442 301.746L108.442 310.46Z" fill="#2F2E41"/>
<path d="M140.592 201.363C141.01 200.629 141.274 199.805 141.365 198.949C141.455 198.093 141.37 197.226 141.116 196.41C140.862 195.593 140.444 194.846 139.893 194.222C139.341 193.597 138.669 193.111 137.924 192.796L119.632 142.87L109.455 149.52L130.635 196.505C130.228 197.887 130.305 199.382 130.853 200.707C131.401 202.032 132.381 203.095 133.609 203.694C134.836 204.293 136.224 204.386 137.511 203.957C138.798 203.527 139.894 202.604 140.592 201.363Z" fill="#FFB8B8"/>
<path d="M123.52 151.127L111.893 155.759C111.562 155.891 111.209 155.944 110.857 155.916C110.505 155.888 110.163 155.778 109.855 155.594C109.546 155.411 109.277 155.158 109.068 154.853C108.858 154.548 108.712 154.197 108.639 153.826L106.093 140.808C105.476 138.982 105.557 136.968 106.318 135.206C107.079 133.445 108.458 132.08 110.152 131.411C111.846 130.742 113.718 130.824 115.356 131.638C116.995 132.452 118.267 133.932 118.893 135.754L124.82 147.379C124.989 147.712 125.09 148.08 125.116 148.459C125.141 148.837 125.09 149.218 124.967 149.573C124.844 149.929 124.65 150.252 124.401 150.52C124.151 150.788 123.85 150.995 123.52 151.127V151.127Z" fill="#4368FF"/>
<path d="M106.434 294.63C106.403 294.63 106.372 294.63 106.342 294.629L97.4861 294.247C96.8877 294.225 96.3213 293.95 95.9094 293.483C95.4975 293.015 95.2732 292.391 95.2849 291.747L95.9643 239.091C95.9671 238.879 95.894 238.674 95.76 238.519C95.6261 238.364 95.4417 238.27 95.2453 238.258C95.0488 238.245 94.8555 238.315 94.7054 238.452C94.5553 238.589 94.4602 238.783 94.4397 238.993L89.3025 291.707C89.249 292.244 89.0341 292.747 88.6905 293.14C88.3468 293.533 87.8932 293.795 87.3988 293.885L87.3681 293.89L79.0545 293.187C78.7268 293.24 78.3922 293.217 78.0737 293.118C77.7552 293.019 77.4604 292.847 77.2097 292.614C76.9589 292.381 76.758 292.092 76.621 291.767C76.484 291.442 76.4141 291.089 76.4161 290.732L76.9131 201.448L117.707 204.227L108.713 292.431C108.65 293.035 108.383 293.593 107.962 293.998C107.542 294.403 106.998 294.628 106.434 294.63Z" fill="#2F2E41"/>
<path d="M98.9774 123.506C105.89 123.506 111.494 117.474 111.494 110.034C111.494 102.594 105.89 96.5625 98.9774 96.5625C92.0647 96.5625 86.4609 102.594 86.4609 110.034C86.4609 117.474 92.0647 123.506 98.9774 123.506Z" fill="#FFB8B8"/>
<path d="M115.679 208.158C115.622 208.158 115.564 208.156 115.506 208.151L77.8038 205.182C77.2176 205.136 76.6703 204.85 76.2748 204.382C75.8793 203.914 75.6657 203.301 75.6783 202.669L76.6723 151.71C76.6057 148.584 77.1326 145.475 78.2207 142.575C79.3088 139.675 80.9353 137.045 83.0006 134.845C85.0659 132.645 87.5265 130.922 90.232 129.781C92.9374 128.64 95.8307 128.105 98.7348 128.209C101.639 128.313 104.493 129.054 107.122 130.386C109.751 131.719 112.099 133.614 114.024 135.957C115.949 138.3 117.409 141.041 118.315 144.013C119.222 146.984 119.555 150.124 119.295 153.239C118.636 161.092 118.112 195.402 117.967 205.73C117.957 206.377 117.712 206.994 117.285 207.448C116.857 207.902 116.28 208.157 115.679 208.158Z" fill="#4368FF"/>
<path d="M48.49 125.163C48.5526 125.459 48.5934 125.76 48.612 126.063L70.5033 139.656L75.8243 136.359L81.4968 144.352L72.604 151.174C71.8856 151.725 71.0205 152.01 70.1385 151.987C69.2565 151.964 68.4054 151.634 67.7127 151.046L45.139 131.878C44.1203 132.284 43.0109 132.346 41.9583 132.057C40.9058 131.767 39.9601 131.14 39.2469 130.258C38.5337 129.376 38.0869 128.281 37.9659 127.119C37.8449 125.958 38.0554 124.783 38.5695 123.753C39.0836 122.723 39.8768 121.886 40.8437 121.353C41.8106 120.82 42.9053 120.617 43.9822 120.77C45.0592 120.923 46.0673 121.425 46.8726 122.21C47.6778 122.995 48.242 124.025 48.49 125.163Z" fill="#FFB8B8"/>
<path d="M70.8045 138.297C70.8704 137.95 71.0052 137.622 71.1997 137.335C71.3942 137.049 71.6437 136.811 71.9314 136.638L81.9772 130.592C83.312 129.484 85.0005 128.991 86.6726 129.22C88.3447 129.45 89.864 130.383 90.8977 131.817C91.9313 133.25 92.3949 135.066 92.1868 136.866C91.9788 138.666 91.1161 140.305 89.7877 141.422L81.7781 150.374C81.5495 150.629 81.2724 150.829 80.9658 150.959C80.6591 151.088 80.33 151.146 80.001 151.126C79.6719 151.107 79.3506 151.011 79.059 150.846C78.7673 150.681 78.5121 150.45 78.3108 150.169L71.2356 140.3C71.0341 140.019 70.8913 139.695 70.8169 139.349C70.7425 139.003 70.7383 138.645 70.8045 138.297Z" fill="#4368FF"/>
<path d="M105.445 120.7C103.519 120.684 101.628 120.144 99.9481 119.129C98.2685 118.113 96.8552 116.657 95.8403 114.894C95.73 114.709 95.1276 113.756 94.43 112.654C92.4697 109.556 92.0101 108.819 91.9712 108.71C91.4407 107.237 89.7569 106.668 88.4379 106.45C88.1918 106.41 87.9422 106.374 87.6918 106.337C85.834 106.07 83.9131 105.793 82.8599 103.595C82.0873 101.982 80.8238 95.4146 81.7941 93.8098C83.0106 91.7968 85.3464 92.4503 87.6054 93.0829C89.0509 93.4868 90.5453 93.9051 91.7362 93.6384C96.898 92.4825 102.749 91.1723 107.915 94.5592C112.028 97.254 114.501 102.344 114.371 107.842C114.23 113.747 111.838 118.407 107.971 120.31L107.166 120.562L106.713 120.622C106.292 120.674 105.869 120.7 105.445 120.7Z" fill="#2F2E41"/>
<path d="M391.346 99.7168C388.123 99.7171 384.998 100.911 382.497 103.098C379.995 105.285 378.269 108.332 377.609 111.727C376.948 115.123 377.393 118.659 378.869 121.743C380.344 124.826 382.761 127.27 385.713 128.662C385.654 127.5 385.736 126.335 385.957 125.196C386.227 123.968 387.762 116.961 387.762 116.961C387.455 116.209 387.301 115.395 387.311 114.574C387.311 112.335 388.514 110.662 390.018 110.662C391.296 110.662 391.91 111.694 391.91 112.928C391.91 114.311 391.089 116.374 390.669 118.29C390.586 118.645 390.581 119.016 390.655 119.373C390.729 119.73 390.88 120.064 391.096 120.347C391.312 120.629 391.586 120.854 391.897 121.001C392.209 121.149 392.548 121.216 392.887 121.196C395.544 121.196 397.336 117.521 397.336 113.164C397.336 109.853 395.262 107.378 391.496 107.378C387.242 107.378 384.585 110.797 384.585 114.614C384.543 115.691 384.874 116.745 385.512 117.575C385.625 117.674 385.704 117.81 385.74 117.961C385.776 118.113 385.767 118.273 385.713 118.418C385.644 118.694 385.494 119.362 385.425 119.632C385.413 119.713 385.383 119.791 385.338 119.857C385.292 119.924 385.233 119.978 385.164 120.015C385.095 120.052 385.02 120.071 384.943 120.07C384.866 120.069 384.791 120.048 384.723 120.01C382.762 119.146 381.847 116.84 381.847 114.237C381.847 109.947 385.212 104.802 391.879 104.802C397.236 104.802 400.763 108.976 400.763 113.454C400.763 119.382 397.699 123.806 393.188 123.806C391.672 123.806 390.249 122.923 389.761 121.925C389.761 121.925 388.946 125.405 388.771 126.079C388.447 127.225 387.972 128.315 387.361 129.316C389.291 129.93 391.322 130.09 393.315 129.784C395.307 129.479 397.216 128.716 398.911 127.548C400.605 126.379 402.047 124.831 403.137 123.01C404.228 121.189 404.941 119.137 405.23 116.993C405.519 114.849 405.375 112.663 404.81 110.583C404.245 108.504 403.271 106.58 401.954 104.941C400.637 103.303 399.009 101.988 397.178 101.087C395.348 100.185 393.359 99.7181 391.346 99.7168Z" fill="#3F3D56"/>
<path d="M312.309 50.1695L294.256 44.1917C294.028 44.1027 293.785 44.0632 293.542 44.0754C293.299 44.0877 293.061 44.1514 292.841 44.263C292.621 44.3747 292.424 44.5319 292.261 44.7258C292.098 44.9197 291.972 45.1463 291.89 45.3928L286.324 64.8663C286.186 65.3943 286.242 65.9589 286.48 66.4439C286.718 66.9288 287.119 67.2973 287.602 67.4734L305.649 73.4495C306.129 73.5867 306.641 73.5146 307.072 73.2487C307.504 72.9828 307.821 72.5446 307.954 72.0291L313.521 52.5556C313.594 52.3134 313.621 52.0577 313.599 51.8041C313.577 51.5505 313.507 51.3044 313.394 51.0809C313.28 50.8574 313.125 50.6613 312.939 50.5045C312.752 50.3478 312.538 50.2338 312.309 50.1695ZM293.566 65.2064L290.467 64.1803L293.432 53.81L296.53 54.8362L293.566 65.2064ZM295.539 52.7819L295.517 52.7745C295.072 52.6237 294.7 52.2892 294.484 51.8443C294.268 51.3995 294.224 50.8804 294.363 50.401C294.502 49.9216 294.811 49.5209 295.224 49.2867C295.636 49.0525 296.118 49.0039 296.564 49.1515C297.01 49.2991 297.383 49.631 297.602 50.0743C297.821 50.5177 297.868 51.0364 297.732 51.5167C297.597 51.9971 297.29 52.4 296.878 52.6372C296.467 52.8743 295.986 52.9263 295.539 52.7819ZM304.891 68.9566L301.793 67.9305L303.413 62.2602C303.802 60.9018 303.616 59.8243 302.495 59.4531C302.143 59.3399 301.768 59.347 301.42 59.4733C301.073 59.5995 300.77 59.8388 300.554 60.158C300.396 60.3942 300.28 60.6599 300.213 60.9415L298.524 66.8482L295.425 65.8221L298.39 55.4519L301.488 56.478L301.076 57.9212C301.508 57.4893 302.041 57.1908 302.617 57.057C303.194 56.9232 303.793 56.959 304.352 57.1607C306.387 57.8343 307.513 59.787 306.624 62.8983L304.891 68.9566Z" fill="#3F3D56"/>
<path fill-rule="evenodd" clip-rule="evenodd" d="M35.635 132.279C35.6345 129.401 34.8679 126.584 33.4259 124.16C31.984 121.737 29.927 119.809 27.4986 118.604C25.0703 117.4 22.3721 116.97 19.7236 117.365C17.0751 117.759 14.5871 118.963 12.5543 120.832C10.5214 122.702 9.02879 125.159 8.2531 127.913C7.47741 130.667 7.45114 133.603 8.17739 136.372C8.90365 139.142 10.352 141.63 12.351 143.541C14.35 145.452 16.816 146.707 19.457 147.157V136.634H15.9034V132.279H19.457V128.961C19.457 125.187 21.5464 123.101 24.742 123.101C25.7914 123.117 26.8384 123.215 27.8745 123.395V127.102H26.1093C24.3722 127.102 23.8288 128.262 23.8288 129.455V132.28H27.709L27.0894 136.634H23.8288V147.158C27.1202 146.597 30.1176 144.79 32.2819 142.063C34.4461 139.335 35.6351 135.866 35.635 132.279L35.635 132.279Z" fill="#3F3D56"/>
<path d="M411.761 310.451C411.76 310.597 411.706 310.736 411.611 310.839C411.515 310.942 411.386 311 411.251 311H0.509605C0.374449 311 0.244829 310.942 0.149259 310.839C0.05369 310.736 0 310.597 0 310.451C0 310.306 0.05369 310.167 0.149259 310.064C0.244829 309.961 0.374449 309.903 0.509605 309.903H411.251C411.386 309.903 411.515 309.961 411.611 310.064C411.706 310.167 411.76 310.306 411.761 310.451Z" fill="#3F3D56"/>
</g>
<defs>
<clipPath id="clip0">
<rect width="412" height="311" fill="white"/>
</clipPath>
</defs>
</svg>
