<svg width="412" height="311" viewBox="0 0 412 311" fill="none" xmlns="http://www.w3.org/2000/svg">
<g clip-path="url(#clip0)">
<path d="M237.253 15.1364C240.785 22.6568 233.302 24.7869 224.73 28.8177C216.158 32.8485 209.743 37.2536 206.212 29.7333C202.68 22.2129 199.815 7.28646 211.941 1.58419C224.486 -4.31452 233.722 7.61611 237.253 15.1364Z" fill="#2F2E41"/>
<path d="M219.764 29.9259C226.137 29.9259 231.304 24.7559 231.304 18.3783C231.304 12.0006 226.137 6.83057 219.764 6.83057C213.391 6.83057 208.225 12.0006 208.225 18.3783C208.225 24.7559 213.391 29.9259 219.764 29.9259Z" fill="#FFB8B8"/>
<path d="M276.934 69.5899C276.534 69.068 276.135 68.5556 275.731 68.0572C275.21 67.4084 274.685 66.7799 274.157 66.1718C268.176 59.2652 261.814 54.9161 254.809 54.4507H254.8L254.696 54.4413L240.738 68.0572L235.992 72.6836L236.096 72.9375L238.656 79.3176H283.521C281.499 75.9603 279.3 72.7132 276.934 69.5899Z" fill="#2F2E41"/>
<path d="M207.215 23.0273L211.346 21.0849L210.771 15.1216L213.533 20.0566L215.507 19.1282L215.172 15.6496L216.783 18.5283L231.453 11.6298C230.076 8.69554 227.589 6.42921 224.542 5.32935C221.494 4.2295 218.135 4.38623 215.202 5.76505L213.076 6.76484C210.144 8.14367 207.879 10.6316 206.78 13.6815C205.681 16.7313 205.838 20.0931 207.215 23.0273Z" fill="#2F2E41"/>
<path d="M302.822 232.637H61.8714C59.8161 232.634 57.8456 231.816 56.3923 230.362C54.939 228.908 54.1215 226.936 54.1191 224.879V79.9965C54.1208 78.4897 54.7197 77.0451 55.7844 75.9796C56.8491 74.9141 58.2927 74.3147 59.7985 74.313H304.797C306.328 74.3147 307.797 74.9244 308.88 76.0084C309.963 77.0923 310.573 78.5619 310.574 80.0948V224.879C310.572 226.936 309.754 228.908 308.301 230.362C306.848 231.816 304.877 232.634 302.822 232.637Z" fill="#F2F2F2"/>
<path d="M69.3895 224.879H295.305C297.299 224.879 299.211 224.086 300.621 222.676C302.031 221.265 302.823 219.352 302.823 217.356V94.3863C302.823 92.3912 302.031 90.4778 300.621 89.067C299.211 87.6563 297.299 86.8637 295.305 86.8637H69.3895C67.3957 86.8637 65.4836 87.6563 64.0739 89.067C62.6641 90.4778 61.8721 92.3912 61.8721 94.3863V217.356C61.8721 219.352 62.6641 221.265 64.0739 222.676C65.4836 224.086 67.3957 224.879 69.3895 224.879Z" fill="white"/>
<path d="M310.467 79.5527H54.0107V75.6032C54.0137 73.5396 54.8346 71.5614 56.2932 70.1027C57.7518 68.644 59.7291 67.8238 61.7913 67.8221H302.686C304.748 67.8238 306.726 68.644 308.184 70.1027C309.643 71.5614 310.464 73.5396 310.467 75.6032V79.5527Z" fill="#4368FF"/>
<path d="M68.1502 75.7131C69.2617 75.7131 70.1627 74.8114 70.1627 73.6991C70.1627 72.5869 69.2617 71.6852 68.1502 71.6852C67.0387 71.6852 66.1377 72.5869 66.1377 73.6991C66.1377 74.8114 67.0387 75.7131 68.1502 75.7131Z" fill="white"/>
<path d="M75.7899 75.7131C76.9013 75.7131 77.8024 74.8114 77.8024 73.6991C77.8024 72.5869 76.9013 71.6852 75.7899 71.6852C74.6784 71.6852 73.7773 72.5869 73.7773 73.6991C73.7773 74.8114 74.6784 75.7131 75.7899 75.7131Z" fill="white"/>
<path d="M83.4285 75.7131C84.54 75.7131 85.441 74.8114 85.441 73.6991C85.441 72.5869 84.54 71.6852 83.4285 71.6852C82.317 71.6852 81.416 72.5869 81.416 73.6991C81.416 74.8114 82.317 75.7131 83.4285 75.7131Z" fill="white"/>
<path d="M189.396 198.211H169.193C168.01 198.21 166.875 197.739 166.038 196.901C165.202 196.064 164.731 194.929 164.729 193.744V173.527C164.731 172.343 165.202 171.208 166.038 170.37C166.875 169.533 168.01 169.062 169.193 169.061H189.396C190.579 169.062 191.714 169.533 192.551 170.37C193.387 171.208 193.858 172.343 193.859 173.527V193.744C193.858 194.929 193.387 196.064 192.551 196.901C191.714 197.739 190.579 198.21 189.396 198.211ZM169.193 170.001C168.259 170.002 167.363 170.374 166.702 171.035C166.042 171.696 165.67 172.592 165.669 173.527V193.744C165.67 194.679 166.042 195.576 166.702 196.237C167.363 196.898 168.259 197.27 169.193 197.271H189.396C190.33 197.27 191.226 196.898 191.886 196.237C192.547 195.576 192.919 194.679 192.92 193.744V173.527C192.919 172.592 192.547 171.696 191.886 171.035C191.226 170.374 190.33 170.002 189.396 170.001H169.193Z" fill="#CCCCCC"/>
<path d="M185.403 192.569H173.187C172.813 192.569 172.455 192.42 172.191 192.155C171.926 191.891 171.778 191.532 171.777 191.158V176.113C171.778 175.739 171.926 175.381 172.191 175.116C172.455 174.852 172.813 174.703 173.187 174.703H182.038C182.359 174.703 182.671 174.813 182.921 175.014L186.285 177.719C186.45 177.851 186.583 178.018 186.674 178.209C186.766 178.399 186.813 178.607 186.812 178.819V191.158C186.812 191.532 186.663 191.891 186.399 192.155C186.135 192.42 185.776 192.569 185.403 192.569ZM173.187 175.643C173.062 175.643 172.943 175.693 172.855 175.781C172.767 175.869 172.717 175.989 172.717 176.113V191.158C172.717 191.283 172.767 191.403 172.855 191.491C172.943 191.579 173.062 191.628 173.187 191.629H185.403C185.527 191.628 185.647 191.579 185.735 191.491C185.823 191.403 185.872 191.283 185.872 191.158V178.819C185.873 178.748 185.857 178.679 185.827 178.615C185.796 178.552 185.752 178.496 185.697 178.452L182.332 175.747C182.249 175.68 182.145 175.643 182.038 175.643H173.187Z" fill="#CCCCCC"/>
<path d="M183.054 181.285H175.536C175.412 181.285 175.292 181.235 175.204 181.147C175.116 181.059 175.066 180.94 175.066 180.815C175.066 180.69 175.116 180.571 175.204 180.482C175.292 180.394 175.412 180.345 175.536 180.345H183.054C183.178 180.345 183.298 180.394 183.386 180.482C183.474 180.571 183.523 180.69 183.523 180.815C183.523 180.94 183.474 181.059 183.386 181.147C183.298 181.235 183.178 181.285 183.054 181.285Z" fill="#CCCCCC"/>
<path d="M183.054 184.106H175.536C175.412 184.106 175.292 184.056 175.204 183.968C175.116 183.88 175.066 183.761 175.066 183.636C175.066 183.511 175.116 183.392 175.204 183.303C175.292 183.215 175.412 183.166 175.536 183.166H183.054C183.178 183.166 183.298 183.215 183.386 183.303C183.474 183.392 183.523 183.511 183.523 183.636C183.523 183.761 183.474 183.88 183.386 183.968C183.298 184.056 183.178 184.106 183.054 184.106Z" fill="#CCCCCC"/>
<path d="M183.054 186.927H175.536C175.412 186.927 175.292 186.877 175.204 186.789C175.116 186.701 175.066 186.581 175.066 186.457C175.066 186.332 175.116 186.213 175.204 186.124C175.292 186.036 175.412 185.987 175.536 185.987H183.054C183.178 185.987 183.298 186.036 183.386 186.124C183.474 186.213 183.523 186.332 183.523 186.457C183.523 186.581 183.474 186.701 183.386 186.789C183.298 186.877 183.178 186.927 183.054 186.927Z" fill="#CCCCCC"/>
<path d="M237.32 198.211H217.117C215.933 198.21 214.799 197.739 213.962 196.901C213.125 196.064 212.655 194.929 212.653 193.744V173.527C212.655 172.343 213.125 171.208 213.962 170.37C214.799 169.533 215.933 169.062 217.117 169.061H237.32C238.503 169.062 239.638 169.533 240.474 170.37C241.311 171.208 241.782 172.343 241.783 173.527V193.744C241.782 194.929 241.311 196.064 240.474 196.901C239.638 197.739 238.503 198.21 237.32 198.211ZM217.117 170.001C216.183 170.002 215.287 170.374 214.626 171.035C213.966 171.696 213.594 172.592 213.593 173.527V193.744C213.594 194.679 213.966 195.576 214.626 196.237C215.287 196.898 216.183 197.27 217.117 197.271H237.32C238.254 197.27 239.15 196.898 239.81 196.237C240.471 195.576 240.843 194.679 240.844 193.744V173.527C240.843 172.592 240.471 171.696 239.81 171.035C239.15 170.374 238.254 170.002 237.32 170.001H217.117Z" fill="#CCCCCC"/>
<path d="M233.795 188.808H220.64C220.266 188.807 219.908 188.658 219.644 188.394C219.38 188.13 219.231 187.771 219.23 187.397V179.874C219.231 179.501 219.38 179.142 219.644 178.878C219.908 178.613 220.266 178.464 220.64 178.464H233.795C234.169 178.464 234.527 178.613 234.792 178.878C235.056 179.142 235.204 179.501 235.205 179.874V187.397C235.204 187.771 235.056 188.13 234.792 188.394C234.527 188.658 234.169 188.807 233.795 188.808ZM220.64 179.404C220.515 179.404 220.396 179.454 220.308 179.542C220.22 179.63 220.17 179.75 220.17 179.874V187.397C220.17 187.522 220.22 187.641 220.308 187.729C220.396 187.818 220.515 187.867 220.64 187.867H233.795C233.92 187.867 234.039 187.818 234.127 187.729C234.216 187.641 234.265 187.522 234.265 187.397V179.874C234.265 179.75 234.216 179.63 234.127 179.542C234.039 179.454 233.92 179.404 233.795 179.404H220.64Z" fill="#CCCCCC"/>
<path d="M227.218 184.876C226.954 184.877 226.695 184.803 226.471 184.663L219.451 180.273C219.346 180.207 219.271 180.102 219.243 179.98C219.216 179.859 219.237 179.731 219.303 179.626C219.369 179.52 219.474 179.445 219.595 179.417C219.717 179.389 219.844 179.41 219.95 179.476L226.969 183.866C227.044 183.912 227.13 183.937 227.218 183.937C227.306 183.937 227.392 183.912 227.467 183.866L234.486 179.476C234.592 179.41 234.719 179.389 234.841 179.417C234.962 179.445 235.067 179.52 235.133 179.626C235.199 179.731 235.22 179.859 235.193 179.98C235.165 180.102 235.09 180.207 234.985 180.273L227.965 184.663C227.741 184.803 227.482 184.877 227.218 184.876Z" fill="#CCCCCC"/>
<path d="M141.473 198.211H121.27C120.087 198.21 118.952 197.739 118.115 196.901C117.279 196.064 116.808 194.929 116.807 193.744V173.527C116.808 172.343 117.279 171.208 118.115 170.37C118.952 169.533 120.087 169.062 121.27 169.061H141.473C142.656 169.062 143.791 169.533 144.628 170.37C145.465 171.208 145.935 172.343 145.937 173.527V193.744C145.935 194.929 145.465 196.064 144.628 196.901C143.791 197.739 142.656 198.21 141.473 198.211ZM121.27 170.001C120.336 170.002 119.44 170.374 118.78 171.035C118.119 171.696 117.747 172.592 117.746 173.527V193.744C117.747 194.679 118.119 195.576 118.78 196.237C119.44 196.898 120.336 197.27 121.27 197.271H141.473C142.407 197.27 143.303 196.898 143.964 196.237C144.624 195.576 144.996 194.679 144.997 193.744V173.527C144.996 172.592 144.624 171.696 143.964 171.035C143.303 170.374 142.407 170.002 141.473 170.001H121.27Z" fill="#CCCCCC"/>
<path d="M137.949 188.808H124.793C124.42 188.807 124.061 188.658 123.797 188.394C123.533 188.13 123.384 187.771 123.384 187.397V179.874C123.384 179.501 123.533 179.142 123.797 178.878C124.061 178.613 124.42 178.464 124.793 178.464H137.949C138.322 178.464 138.681 178.613 138.945 178.878C139.209 179.142 139.358 179.501 139.358 179.874V187.397C139.358 187.771 139.209 188.13 138.945 188.394C138.681 188.658 138.322 188.807 137.949 188.808ZM124.793 179.404C124.669 179.404 124.549 179.454 124.461 179.542C124.373 179.63 124.324 179.75 124.323 179.874V187.397C124.324 187.522 124.373 187.641 124.461 187.729C124.549 187.818 124.669 187.867 124.793 187.867H137.949C138.073 187.867 138.193 187.818 138.281 187.729C138.369 187.641 138.418 187.522 138.419 187.397V179.874C138.418 179.75 138.369 179.63 138.281 179.542C138.193 179.454 138.073 179.404 137.949 179.404H124.793Z" fill="#CCCCCC"/>
<path d="M135.863 188.808H126.409C126.244 188.808 126.081 188.764 125.939 188.682C125.796 188.599 125.677 188.48 125.595 188.338C125.512 188.195 125.469 188.032 125.469 187.867C125.469 187.702 125.512 187.54 125.595 187.397L128.443 182.46C128.525 182.317 128.644 182.199 128.787 182.116C128.93 182.034 129.092 181.99 129.257 181.99C129.422 181.99 129.584 182.034 129.726 182.116C129.869 182.199 129.988 182.317 130.07 182.46L131.91 185.649L132.975 183.802C133.058 183.659 133.177 183.54 133.319 183.457C133.462 183.375 133.624 183.331 133.789 183.331C133.954 183.331 134.116 183.375 134.259 183.457C134.402 183.54 134.521 183.659 134.603 183.802L136.677 187.397C136.76 187.54 136.803 187.702 136.803 187.867C136.803 188.032 136.76 188.195 136.677 188.338C136.595 188.48 136.476 188.599 136.333 188.682C136.191 188.764 136.028 188.808 135.863 188.808H135.863ZM135.863 187.867L133.789 184.272L132.317 186.824C132.276 186.896 132.216 186.955 132.145 186.996C132.073 187.037 131.992 187.059 131.91 187.059C131.827 187.059 131.746 187.037 131.675 186.996C131.603 186.955 131.544 186.896 131.503 186.824L129.257 182.931L126.409 187.867H135.863Z" fill="#CCCCCC"/>
<path d="M136.539 182.225C137.058 182.225 137.479 181.804 137.479 181.285C137.479 180.766 137.058 180.345 136.539 180.345C136.02 180.345 135.6 180.766 135.6 181.285C135.6 181.804 136.02 182.225 136.539 182.225Z" fill="#CCCCCC"/>
<path d="M361.222 304.736L355.462 304.736L352.722 282.503L361.223 282.503L361.222 304.736Z" fill="#FFB8B8"/>
<path d="M362.691 310.323L344.118 310.323V310.088C344.118 309.138 344.305 308.197 344.668 307.319C345.032 306.442 345.564 305.644 346.235 304.972C346.907 304.301 347.704 303.768 348.581 303.404C349.458 303.041 350.398 302.854 351.347 302.854H351.348L362.691 302.854L362.691 310.323Z" fill="#2F2E41"/>
<path d="M384.714 304.736L378.954 304.736L376.214 282.503L384.715 282.503L384.714 304.736Z" fill="#FFB8B8"/>
<path d="M386.183 310.323L367.61 310.323V310.088C367.61 309.138 367.797 308.197 368.161 307.319C368.524 306.442 369.056 305.644 369.728 304.972C370.399 304.301 371.196 303.768 372.073 303.404C372.95 303.041 373.89 302.854 374.839 302.854H374.84L386.184 302.854L386.183 310.323Z" fill="#2F2E41"/>
<path d="M382.988 295.098L377.653 293.474C377.255 293.353 376.902 293.118 376.637 292.798C376.373 292.477 376.209 292.085 376.166 291.672L371.192 244.502C371.188 244.445 371.163 244.392 371.121 244.353C371.079 244.314 371.024 244.292 370.967 244.292C370.91 244.286 370.853 244.303 370.808 244.339C370.763 244.375 370.734 244.427 370.727 244.484L362.396 290.184C362.346 290.461 362.24 290.725 362.086 290.961C361.932 291.197 361.733 291.4 361.499 291.558C361.266 291.715 361.003 291.825 360.727 291.879C360.45 291.934 360.166 291.933 359.89 291.876L353.072 290.471C352.572 290.366 352.127 290.084 351.817 289.677C351.508 289.27 351.356 288.765 351.389 288.255L356.457 213.352L390.819 209.642L385.713 293.203C385.68 293.74 385.444 294.244 385.053 294.613C384.661 294.983 384.144 295.189 383.606 295.19C383.397 295.19 383.188 295.159 382.988 295.098Z" fill="#2F2E41"/>
<path d="M382.955 148.124C389.328 148.124 394.494 142.954 394.494 136.576C394.494 130.199 389.328 125.029 382.955 125.029C376.582 125.029 371.415 130.199 371.415 136.576C371.415 142.954 376.582 148.124 382.955 148.124Z" fill="#FFB8B8"/>
<path d="M356.403 213.792L363.854 166.846C364.25 164.35 365.173 161.967 366.561 159.856C367.949 157.744 369.771 155.953 371.905 154.601C374.038 153.249 376.435 152.367 378.936 152.014C381.437 151.661 383.984 151.845 386.409 152.553C390.647 153.78 394.277 156.544 396.588 160.305C398.899 164.067 399.726 168.555 398.907 172.894L391.112 214.819L356.403 213.792Z" fill="#4368FF"/>
<path d="M386.14 222.192C386.717 221.811 387.203 221.309 387.564 220.72C387.925 220.131 388.153 219.469 388.231 218.783C388.309 218.096 388.236 217.4 388.017 216.745C387.797 216.09 387.437 215.49 386.961 214.989L394.665 200.061L385.989 200.988L380.004 215.022C379.216 215.877 378.769 216.993 378.748 218.156C378.727 219.32 379.133 220.451 379.889 221.335C380.646 222.218 381.7 222.794 382.852 222.952C384.004 223.11 385.174 222.84 386.14 222.192V222.192Z" fill="#FFB8B8"/>
<path d="M387.79 212.356C387.364 212.296 386.966 212.107 386.65 211.815L383.702 209.09C383.384 208.794 383.164 208.407 383.072 207.982C382.98 207.557 383.021 207.114 383.189 206.713L389.08 192.741L388.244 165.133C388.364 164.246 388.658 163.391 389.109 162.617C389.559 161.843 390.158 161.166 390.87 160.623C391.582 160.081 392.395 159.685 393.26 159.457C394.126 159.229 395.027 159.174 395.914 159.295C396.801 159.416 397.655 159.711 398.428 160.162C399.201 160.614 399.877 161.214 400.418 161.927C400.96 162.64 401.355 163.453 401.582 164.319C401.809 165.186 401.863 166.088 401.741 166.976L403.17 184.33C403.605 189.598 402.112 194.843 398.971 199.092L389.785 211.52C389.608 211.758 389.383 211.957 389.124 212.103C388.866 212.25 388.579 212.34 388.283 212.368C388.119 212.383 387.953 212.379 387.79 212.356Z" fill="#4368FF"/>
<path d="M316.501 130.285C316.627 130.964 316.9 131.608 317.301 132.171C317.702 132.733 318.222 133.201 318.824 133.541C319.425 133.881 320.094 134.084 320.782 134.138C321.471 134.191 322.163 134.093 322.809 133.849L333.543 146.769L336.073 138.413L325.492 127.426C325.012 126.366 324.16 125.519 323.097 125.046C322.035 124.573 320.836 124.506 319.728 124.859C318.619 125.211 317.679 125.958 317.084 126.958C316.489 127.958 316.282 129.142 316.501 130.285Z" fill="#FFB8B8"/>
<path d="M324.91 135.64C325.131 135.27 325.46 134.978 325.852 134.8L329.509 133.147C329.906 132.969 330.347 132.917 330.774 132.998C331.201 133.079 331.592 133.289 331.896 133.6L342.457 144.476L368.188 154.47C368.958 154.927 369.631 155.531 370.167 156.248C370.704 156.965 371.094 157.781 371.315 158.648C371.537 159.516 371.585 160.419 371.457 161.306C371.33 162.193 371.029 163.045 370.571 163.815C370.114 164.585 369.51 165.258 368.793 165.794C368.076 166.33 367.26 166.719 366.393 166.94C365.525 167.16 364.623 167.208 363.737 167.079C362.851 166.95 361.999 166.648 361.23 166.19L344.703 160.74C339.687 159.086 335.441 155.666 332.756 151.115L324.902 137.804C324.751 137.548 324.656 137.263 324.622 136.968C324.588 136.673 324.617 136.373 324.707 136.09C324.756 135.932 324.824 135.781 324.91 135.64Z" fill="#4368FF"/>
<path opacity="0.1" d="M392.315 176.618L391.845 191.663L383.189 206.713L390.416 189.941L392.315 176.618Z" fill="black"/>
<path d="M381.633 138.746C380.908 138.841 380.174 138.668 379.566 138.262C378.959 137.855 378.519 137.242 378.33 136.536C378.147 135.723 377.746 134.975 377.171 134.372C376.595 133.77 375.867 133.336 375.064 133.116C372.947 132.632 370.36 133.629 368.809 132.024C368.477 131.658 368.236 131.217 368.108 130.74C367.979 130.262 367.965 129.761 368.068 129.277C368.354 127.717 369.469 126.539 370.682 125.597C373.235 123.623 376.325 122.467 379.546 122.282C381.214 122.234 382.882 122.317 384.536 122.53C386.268 122.64 387.982 122.953 389.641 123.464C391.53 124.177 393.21 125.356 394.524 126.891C395.838 128.426 396.744 130.268 397.159 132.247C397.538 134.231 397.48 136.274 396.988 138.234C396.497 140.193 395.584 142.022 394.313 143.592C392.792 145.487 390.83 146.982 388.599 147.945C388.068 148.196 387.459 148.227 386.905 148.031C385.516 147.478 385.743 145.756 386.376 144.607C387.054 143.377 388.097 142.187 387.552 140.691C387.279 139.997 386.754 139.432 386.083 139.108C384.702 138.403 383.157 138.57 381.672 138.742L381.633 138.746Z" fill="#2F2E41"/>
<path d="M312.645 145.267H169.815C167.759 145.265 165.789 144.447 164.336 142.993C162.882 141.538 162.065 139.567 162.062 137.51V106.949C162.065 104.892 162.882 102.921 164.336 101.466C165.789 100.012 167.759 99.1939 169.815 99.1915H312.645C314.701 99.1939 316.671 100.012 318.124 101.466C319.578 102.921 320.395 104.892 320.398 106.949V137.51C320.395 139.567 319.578 141.538 318.124 142.993C316.671 144.447 314.701 145.265 312.645 145.267Z" fill="white"/>
<path d="M312.645 145.503H169.814C167.697 145.5 165.667 144.657 164.169 143.159C162.672 141.661 161.83 139.629 161.827 137.51V106.949C161.83 104.83 162.672 102.799 164.169 101.3C165.667 99.8017 167.697 98.9589 169.814 98.9565H312.645C314.762 98.9589 316.793 99.8017 318.29 101.3C319.787 102.799 320.63 104.83 320.632 106.949V137.51C320.63 139.629 319.787 141.661 318.29 143.159C316.793 144.657 314.762 145.5 312.645 145.503ZM169.814 99.8968C167.946 99.8989 166.155 100.643 164.833 101.965C163.512 103.287 162.769 105.079 162.767 106.949V137.51C162.769 139.38 163.512 141.172 164.833 142.494C166.155 143.816 167.946 144.56 169.814 144.562H312.645C314.513 144.56 316.305 143.816 317.626 142.494C318.947 141.172 319.69 139.38 319.692 137.51V106.949C319.69 105.079 318.947 103.287 317.626 101.965C316.305 100.643 314.513 99.8989 312.645 99.8968H169.814Z" fill="#3F3D56"/>
<path d="M295.261 137.745H187.199C185.143 137.743 183.173 136.925 181.719 135.47C180.266 134.016 179.449 132.044 179.446 129.987V114.002C179.449 111.945 180.266 109.973 181.719 108.519C183.173 107.064 185.143 106.246 187.199 106.244H295.261C297.316 106.246 299.287 107.064 300.74 108.519C302.194 109.973 303.011 111.945 303.013 114.002V129.987C303.011 132.044 302.194 134.016 300.74 135.47C299.287 136.925 297.316 137.743 295.261 137.745Z" fill="#F2F2F2"/>
<path d="M210.453 129.129C215.573 129.129 219.724 124.975 219.724 119.851C219.724 114.728 215.573 110.574 210.453 110.574C205.332 110.574 201.182 114.728 201.182 119.851C201.182 124.975 205.332 129.129 210.453 129.129Z" fill="#FF6584"/>
<path d="M288.546 136.809L275.46 125.826L262.599 115.033C262.26 114.748 261.831 114.592 261.388 114.593C260.945 114.594 260.517 114.751 260.179 115.037L247.36 125.88L244.229 128.529L239.508 124.566L225.16 112.525C224.821 112.24 224.392 112.085 223.949 112.085C223.506 112.086 223.078 112.244 222.74 112.53L208.439 124.626L193.913 136.913C193.839 136.975 193.786 137.059 193.762 137.152C193.737 137.245 193.742 137.344 193.775 137.434C193.808 137.525 193.868 137.603 193.947 137.658C194.026 137.713 194.121 137.743 194.217 137.742L223.998 137.685L233.425 137.667L233.333 137.745L261.433 137.691L288.245 137.639C288.341 137.639 288.435 137.609 288.514 137.554C288.593 137.498 288.653 137.42 288.686 137.329C288.719 137.239 288.723 137.14 288.698 137.047C288.673 136.954 288.62 136.871 288.546 136.809Z" fill="#3F3D56"/>
<path d="M411.235 311H321.026C320.902 311 320.782 310.95 320.694 310.862C320.606 310.774 320.557 310.655 320.557 310.53C320.557 310.405 320.606 310.286 320.694 310.197C320.782 310.109 320.902 310.06 321.026 310.06H411.235C411.36 310.06 411.479 310.109 411.567 310.197C411.655 310.286 411.705 310.405 411.705 310.53C411.705 310.655 411.655 310.774 411.567 310.862C411.479 310.95 411.36 311 411.235 311Z" fill="#CCCCCC"/>
<path d="M283.808 62.0203C283.432 61.4101 282.937 60.8827 282.351 60.4705C281.765 60.0582 281.102 59.7697 280.401 59.6224C280.144 59.5684 279.884 59.5354 279.622 59.5237L243.825 27.4962C243.121 26.773 242.183 26.3245 241.179 26.2315C240.981 26.2087 240.782 26.2024 240.583 26.2127C239.757 26.2502 238.96 26.5278 238.289 27.0114C237.618 27.4951 237.103 28.1638 236.806 28.9359C236.509 29.708 236.443 30.55 236.616 31.3589C236.79 32.1678 237.195 32.9087 237.782 33.4908L251.488 45.447L273.993 65.0763C274.011 65.446 274.066 65.813 274.157 66.1718C274.427 67.2113 275.005 68.1443 275.817 68.8471C276.628 69.5499 277.634 69.9893 278.7 70.1071C279.673 70.2208 280.659 70.0578 281.543 69.6369C282.244 69.3087 282.866 68.8323 283.366 68.2405C283.418 68.1794 283.465 68.123 283.512 68.0571C284.169 67.2004 284.549 66.1636 284.602 65.085C284.655 64.0063 284.378 62.9372 283.808 62.0203H283.808Z" fill="#FFB8B8"/>
<path d="M222.579 92.8865L222.245 79.3176L221.963 68.0572L221.77 60.1773L221.39 44.817C221.315 43.9947 221.002 43.212 220.489 42.5646C219.977 41.9172 219.287 41.433 218.505 41.1713C217.722 40.9096 216.88 40.8815 216.082 41.0906C215.283 41.2997 214.563 41.7368 214.009 42.3487C213.878 42.4885 213.76 42.6395 213.656 42.8001C213.078 43.6291 212.818 44.639 212.923 45.6445L213.76 68.0572L214.178 79.3176L214.714 93.6811C214.559 93.8921 214.419 94.1136 214.296 94.344C213.961 94.978 213.759 95.6734 213.702 96.3878C213.645 97.1023 213.733 97.821 213.962 98.5003C214.201 99.2126 214.587 99.8662 215.097 100.418C215.606 100.97 216.227 101.408 216.917 101.702C217.608 101.997 218.353 102.141 219.104 102.127C219.855 102.112 220.594 101.939 221.272 101.617C222.061 101.244 222.745 100.683 223.265 99.9823C223.785 99.2818 224.125 98.4638 224.254 97.6008C224.383 96.7378 224.298 95.8562 224.006 95.034C223.713 94.2118 223.223 93.4742 222.579 92.8865H222.579Z" fill="#FFB8B8"/>
<path d="M254.81 54.4506L251.488 45.447L246.113 30.8626C245.726 29.8014 245.104 28.8413 244.295 28.0534C243.485 27.2655 242.509 26.6701 241.438 26.3114C241.354 26.2832 241.265 26.255 241.18 26.2314C240.143 25.9164 239.05 25.8298 237.976 25.9775C236.902 26.1252 235.873 26.5037 234.96 27.0871L216.857 38.5779C215.199 39.6279 214.014 41.2816 213.552 43.1897C213.09 45.0979 213.387 47.1111 214.381 48.804C216.644 52.7212 219.111 56.5175 221.771 60.1772C223.881 63.0499 227.809 63.3555 228.49 68.0571H241.838L255.35 55.9175L254.81 54.4506Z" fill="#CCCCCC"/>
<path d="M47.5305 164.488C53.5431 164.488 58.4174 159.611 58.4174 153.594C58.4174 147.577 53.5431 142.699 47.5305 142.699C41.5178 142.699 36.6436 147.577 36.6436 153.594C36.6436 159.611 41.5178 164.488 47.5305 164.488Z" fill="#A0616A"/>
<path d="M74.2581 146.095C74.3654 146.18 74.4694 146.271 74.5701 146.366C75.0702 146.838 75.4652 147.41 75.729 148.045C75.9929 148.679 76.1197 149.363 76.1012 150.05C76.0827 150.738 75.9193 151.413 75.6217 152.033C75.324 152.653 74.8989 153.202 74.3741 153.646C74.2518 153.749 74.1242 153.845 73.9918 153.935L74.7286 178.827C74.7496 179.642 74.5074 180.442 74.0381 181.109C73.5688 181.775 72.8973 182.272 72.1233 182.526L72.0785 182.536L51.8808 184.688C51.3317 184.747 50.7764 184.696 50.2471 184.538C49.7178 184.381 49.2249 184.12 48.7969 183.771C48.3689 183.422 48.0143 182.991 47.7535 182.504C47.4927 182.017 47.3309 181.483 47.2774 180.933C47.224 180.383 47.28 179.828 47.4421 179.299C47.6043 178.771 47.8694 178.28 48.2222 177.855C48.5749 177.43 49.0084 177.079 49.4975 176.823C49.9865 176.566 50.5216 176.409 51.0717 176.36L65.4695 175.091L67.9594 153.534C67.7965 153.39 67.644 153.234 67.5029 153.069C66.7222 152.144 66.3128 150.962 66.3541 149.752C66.3954 148.542 66.8845 147.391 67.7264 146.522C68.5683 145.653 69.7029 145.128 70.91 145.049C72.117 144.97 73.3103 145.343 74.2582 146.095H74.2581Z" fill="#A0616A"/>
<path d="M65.4609 305.218H70.8955L73.4806 284.242H65.46L65.4609 305.218Z" fill="#A0616A"/>
<path d="M64.0752 303.442L74.7771 303.442H74.7776C75.6732 303.442 76.5601 303.618 77.3876 303.961C78.215 304.304 78.9669 304.807 79.6002 305.441C80.2335 306.074 80.7359 306.827 81.0786 307.655C81.4214 308.483 81.5978 309.37 81.5978 310.267V310.488L64.0755 310.489L64.0752 303.442Z" fill="#2F2E41"/>
<path d="M11.4482 297.699L16.1175 300.481L29.0629 283.782L22.1713 279.676L11.4482 297.699Z" fill="#A0616A"/>
<path d="M11.165 295.464L20.3605 300.943L20.3609 300.943C21.1304 301.401 21.8022 302.007 22.3378 302.725C22.8734 303.444 23.2624 304.26 23.4826 305.129C23.7027 305.998 23.7497 306.902 23.6208 307.789C23.492 308.676 23.1898 309.528 22.7316 310.298L22.6182 310.489L7.5625 301.519L11.165 295.464Z" fill="#2F2E41"/>
<path d="M72.1786 297.809H66.0935C65.6007 297.81 65.1252 297.628 64.7588 297.298C64.3925 296.968 64.1613 296.514 64.11 296.024L57.9753 238.317C57.9598 238.172 57.897 238.036 57.7966 237.93C57.6961 237.824 57.5636 237.754 57.4194 237.731C57.2753 237.708 57.1276 237.733 56.999 237.802C56.8704 237.871 56.7682 237.981 56.7081 238.114L45.6409 262.637L26.047 294.609C25.7934 295.019 25.4008 295.324 24.941 295.468C24.4812 295.612 23.985 295.585 23.5433 295.392L15.7157 291.946C15.4569 291.832 15.2252 291.664 15.0361 291.454C14.847 291.243 14.7048 290.995 14.6188 290.726C14.5329 290.456 14.5052 290.171 14.5375 289.89C14.5699 289.609 14.6616 289.338 14.8066 289.095L32.8188 258.914L38.343 233.485C36.6056 222.458 44.0539 206.063 44.1294 205.898L44.1663 205.818L64.6829 197.793L64.7858 197.919C72.8769 224.49 77.8073 253.085 74.1669 295.98C74.122 296.478 73.8935 296.941 73.5259 297.279C73.1582 297.617 72.6779 297.806 72.1786 297.809Z" fill="#2F2E41"/>
<path d="M43.3392 208.505L43.2437 208.304C43.198 208.208 38.636 198.579 35.1193 188.288C34.4434 186.298 34.1879 184.189 34.369 182.095C34.55 180.001 35.1637 177.968 36.171 176.124C37.1915 174.26 38.5876 172.629 40.2709 171.334C41.9541 170.039 43.8879 169.107 45.9496 168.599C49.5288 167.74 53.2971 168.197 56.5679 169.886C59.8388 171.575 62.3945 174.383 63.7694 177.8C66.559 184.78 65.6699 192.231 64.8333 198.091L64.8166 198.208L64.7099 198.259L43.3392 208.505Z" fill="#3F3D56"/>
<path d="M60.7305 147.44H43.4434V139.899C47.2377 138.391 50.9506 137.108 53.1951 139.899C55.1936 139.899 57.1102 140.694 58.5234 142.108C59.9365 143.522 60.7305 145.44 60.7305 147.44V147.44Z" fill="#2F2E41"/>
<path d="M42.487 138.569C32.1524 138.569 29.2598 151.531 29.2598 158.845C29.2598 162.923 31.1029 164.382 33.9993 164.875L35.0221 159.416L37.4178 165.11C38.2314 165.114 39.0861 165.098 39.9722 165.082L40.7845 163.408L42.5958 165.052C49.8505 165.063 55.714 166.121 55.714 158.845C55.714 151.531 53.1771 138.569 42.487 138.569Z" fill="#2F2E41"/>
<path d="M90.6785 311H0.469837C0.345228 311 0.225723 310.95 0.137612 310.862C0.0495002 310.774 0 310.655 0 310.53C0 310.405 0.0495002 310.286 0.137612 310.197C0.225723 310.109 0.345228 310.06 0.469837 310.06H90.6785C90.8031 310.06 90.9226 310.109 91.0108 310.197C91.0989 310.286 91.1484 310.405 91.1484 310.53C91.1484 310.655 91.0989 310.774 91.0108 310.862C90.9226 310.95 90.8031 311 90.6785 311Z" fill="#CCCCCC"/>
<path d="M92.3744 156.316H72.1715C70.9881 156.315 69.8536 155.844 69.0168 155.007C68.1801 154.169 67.7094 153.034 67.708 151.85V131.633C67.7094 130.449 68.1801 129.313 69.0168 128.476C69.8536 127.639 70.9881 127.168 72.1715 127.166H92.3744C93.5578 127.168 94.6923 127.639 95.5291 128.476C96.3659 129.313 96.8366 130.449 96.8379 131.633V151.85C96.8366 153.034 96.3659 154.169 95.5291 155.007C94.6923 155.844 93.5578 156.315 92.3744 156.316Z" fill="white"/>
<path d="M92.3744 156.316H72.1715C70.9881 156.315 69.8536 155.844 69.0168 155.007C68.1801 154.169 67.7094 153.034 67.708 151.85V131.633C67.7094 130.449 68.1801 129.313 69.0168 128.476C69.8536 127.639 70.9881 127.168 72.1715 127.166H92.3744C93.5578 127.168 94.6923 127.639 95.5291 128.476C96.3659 129.313 96.8366 130.449 96.8379 131.633V151.85C96.8366 153.034 96.3659 154.169 95.5291 155.007C94.6923 155.844 93.5578 156.315 92.3744 156.316ZM72.1715 128.107C71.2372 128.108 70.3415 128.479 69.6809 129.141C69.0203 129.802 68.6487 130.698 68.6477 131.633V151.85C68.6487 152.785 69.0203 153.681 69.6809 154.342C70.3415 155.003 71.2372 155.375 72.1715 155.376H92.3744C93.3087 155.375 94.2044 155.003 94.865 154.342C95.5256 153.681 95.8972 152.785 95.8982 151.85V131.633C95.8972 130.698 95.5256 129.802 94.865 129.141C94.2044 128.479 93.3087 128.108 92.3744 128.107H72.1715Z" fill="#3F3D56"/>
<path d="M88.8511 148.089H75.6956C75.3219 148.088 74.9637 147.939 74.6994 147.675C74.4352 147.411 74.2865 147.052 74.2861 146.678V136.805C74.2865 136.431 74.4352 136.072 74.6994 135.808C74.9637 135.543 75.3219 135.395 75.6956 135.394H79.3991C79.6399 135.393 79.877 135.455 80.0873 135.572C80.2976 135.69 80.474 135.859 80.5996 136.065L81.6324 137.745H88.8511C89.2248 137.745 89.5831 137.894 89.8473 138.159C90.1115 138.423 90.2602 138.782 90.2606 139.155V146.678C90.2602 147.052 90.1115 147.411 89.8473 147.675C89.5831 147.939 89.2248 148.088 88.8511 148.089Z" fill="#4368FF"/>
<path d="M88.4233 153.077C88.4891 153.197 88.5498 153.321 88.6055 153.448C88.8836 154.077 89.0258 154.757 89.0228 155.445C89.0199 156.132 88.8717 156.812 88.5882 157.438C88.3046 158.064 87.892 158.623 87.3773 159.079C86.8627 159.535 86.2577 159.876 85.602 160.081C85.4494 160.129 85.2944 160.168 85.1377 160.199L76.1641 183.427C75.8674 184.186 75.3341 184.83 74.6432 185.261C73.9523 185.693 73.1406 185.891 72.3287 185.824L72.2836 185.816L52.8339 179.957C52.3051 179.797 51.8131 179.535 51.3863 179.184C50.9595 178.833 50.6063 178.402 50.3472 177.914C50.0881 177.425 49.9281 176.891 49.8766 176.341C49.8251 175.79 49.8831 175.235 50.0471 174.708C50.2111 174.18 50.478 173.69 50.8323 173.266C51.1866 172.842 51.6214 172.493 52.1114 172.238C52.6015 171.983 53.1371 171.828 53.6874 171.782C54.2377 171.735 54.7917 171.798 55.3175 171.967L69.0792 176.388L79.7334 157.487C79.6392 157.291 79.559 157.088 79.4932 156.881C79.1323 155.726 79.2133 154.477 79.7205 153.378C80.2276 152.279 81.1248 151.408 82.2377 150.934C83.3507 150.46 84.6 150.417 85.743 150.813C86.8861 151.209 87.8414 152.015 88.4233 153.077H88.4233Z" fill="#A0616A"/>
</g>
<defs>
<clipPath id="clip0">
<rect width="411.705" height="311" fill="white"/>
</clipPath>
</defs>
</svg>
