<svg width="60" height="60" viewBox="0 0 60 60" fill="none" xmlns="http://www.w3.org/2000/svg">
<path d="M37.5 0H22.5C19.186 0.00396964 16.0089 1.3222 13.6655 3.66555C11.3222 6.00889 10.004 9.18601 10 12.5V47.5C10.004 50.814 11.3222 53.9911 13.6655 56.3345C16.0089 58.6778 19.186 59.996 22.5 60H37.5C40.814 59.996 43.9911 58.6778 46.3345 56.3345C48.6778 53.9911 49.996 50.814 50 47.5V12.5C49.996 9.18601 48.6778 6.00889 46.3345 3.66555C43.9911 1.3222 40.814 0.00396964 37.5 0V0ZM22.5 5H37.5C39.4891 5 41.3968 5.79018 42.8033 7.1967C44.2098 8.60322 45 10.5109 45 12.5V40H15V12.5C15 10.5109 15.7902 8.60322 17.1967 7.1967C18.6032 5.79018 20.5109 5 22.5 5ZM37.5 55H22.5C20.5109 55 18.6032 54.2098 17.1967 52.8033C15.7902 51.3968 15 49.4891 15 47.5V45H45V47.5C45 49.4891 44.2098 51.3968 42.8033 52.8033C41.3968 54.2098 39.4891 55 37.5 55Z" fill="#4368FF"/>
<path d="M30 52.5C31.3807 52.5 32.5 51.3807 32.5 50C32.5 48.6193 31.3807 47.5 30 47.5C28.6193 47.5 27.5 48.6193 27.5 50C27.5 51.3807 28.6193 52.5 30 52.5Z" fill="#4368FF"/>
</svg>
