<svg width="429" height="114" viewBox="0 0 429 114" fill="none" xmlns="http://www.w3.org/2000/svg">
<g clip-path="url(#clip0)">
<path d="M0 34.38L14.73 33.46C14.8901 35.4226 15.5625 37.3087 16.68 38.93C17.4995 39.9378 18.5475 40.7356 19.7371 41.2574C20.9267 41.7791 22.2235 42.0097 23.52 41.93C25.3552 42.0521 27.1719 41.5011 28.63 40.38C29.1784 39.9496 29.6237 39.4021 29.9334 38.7775C30.2431 38.1529 30.4093 37.4671 30.42 36.77C30.4068 36.1002 30.2469 35.4414 29.9514 34.8401C29.656 34.2388 29.2322 33.7097 28.71 33.29C27.57 32.2833 24.9267 31.3267 20.78 30.42C13.9933 28.8933 9.15 26.8667 6.25 24.34C4.84298 23.1569 3.71978 21.6728 2.96339 19.9973C2.207 18.3218 1.83675 16.4978 1.88 14.66C1.89016 12.0621 2.66961 9.52538 4.12 7.37C5.78426 4.95509 8.1259 3.08665 10.85 2C13.85 0.666667 17.9567 0 23.17 0C29.5767 0 34.46 1.19 37.82 3.57C41.18 5.95 43.18 9.74 43.82 14.94L29.22 15.79C29.0291 13.9087 28.1621 12.1605 26.78 10.87C25.3019 9.76653 23.4813 9.22106 21.64 9.33C20.1902 9.22186 18.7488 9.62914 17.57 10.48C17.1441 10.8076 16.7991 11.2286 16.5616 11.7106C16.324 12.1926 16.2003 12.7227 16.2 13.26C16.2141 13.6818 16.323 14.095 16.5186 14.4689C16.7142 14.8429 16.9915 15.1679 17.33 15.42C18.0567 16.0867 19.7867 16.7 22.52 17.26C29.2867 18.72 34.1367 20.1967 37.07 21.69C39.6798 22.9019 41.8947 24.8256 43.46 27.24C44.8003 29.4807 45.4927 32.0493 45.46 34.66C45.4751 37.82 44.5453 40.9123 42.79 43.54C40.9752 46.2915 38.3814 48.4396 35.34 49.71C31.5083 51.2368 27.4024 51.9552 23.28 51.82C14.7467 51.82 8.84333 50.1767 5.57 46.89C2.25438 43.5357 0.27426 39.0884 0 34.38H0ZM51.3 25.94C51.3 17.76 53.58 11.3933 58.14 6.84C62.7 2.28667 69.0467 0.00666667 77.18 0C85.52 0 91.9467 2.24 96.46 6.72C100.973 11.2 103.227 17.47 103.22 25.53C103.22 31.39 102.22 36.1933 100.22 39.94C98.2976 43.6377 95.3223 46.6826 91.67 48.69C87.95 50.77 83.3067 51.8133 77.74 51.82C72.1733 51.8267 67.5067 50.9267 63.74 49.12C59.9509 47.2364 56.8153 44.2576 54.74 40.57C52.4467 36.67 51.3 31.7933 51.3 25.94ZM66.79 26C66.79 31.06 67.73 34.6933 69.61 36.9C70.5527 37.9992 71.7332 38.8694 73.0621 39.4446C74.391 40.0198 75.8334 40.285 77.28 40.22C78.7269 40.305 80.1741 40.0591 81.5117 39.5012C82.8494 38.9433 84.0423 38.0879 85 37C86.82 34.84 87.73 30.9567 87.73 25.35C87.73 20.63 86.78 17.1833 84.88 15.01C83.9133 13.9221 82.7158 13.064 81.3749 12.4982C80.0341 11.9325 78.5838 11.6734 77.13 11.74C75.7137 11.684 74.303 11.9481 73.0028 12.5125C71.7026 13.0769 70.5463 13.9271 69.62 15C67.7333 17.24 66.79 20.9067 66.79 26ZM111.56 0.85H127.05V38.62H151.21V51H111.56V0.85ZM189.05 0.85H204.5V30.71C204.519 33.5623 204.049 36.3967 203.11 39.09C202.207 41.6902 200.723 44.0501 198.77 45.99C197.031 47.8093 194.915 49.2258 192.57 50.14C189.085 51.3372 185.414 51.9061 181.73 51.82C179.055 51.8079 176.384 51.6343 173.73 51.3C171.219 51.0781 168.768 50.4004 166.5 49.3C164.479 48.2167 162.683 46.7572 161.21 45C159.714 43.3322 158.589 41.3655 157.91 39.23C157.024 36.4909 156.539 33.638 156.47 30.76V0.85H171.92V31.42C171.851 32.5852 172.017 33.7525 172.409 34.8521C172.8 35.9516 173.41 36.961 174.2 37.82C175.96 39.2991 178.186 40.1099 180.485 40.1099C182.784 40.1099 185.01 39.2991 186.77 37.82C187.565 36.9559 188.177 35.9399 188.569 34.8332C188.96 33.7264 189.124 32.5517 189.05 31.38V0.85ZM211.23 0.85H258.3V13.23H242.5V51H227V13.23H211.23V0.85ZM265.92 0.85H281.44V75.08H265.92V0.85ZM290.6 25.94C290.6 17.76 292.877 11.3933 297.43 6.84C301.983 2.28667 308.317 0.00666667 316.43 0C324.81 0 331.25 2.24 335.75 6.72C340.25 11.2 342.503 17.47 342.51 25.53C342.51 31.39 341.527 36.1933 339.56 39.94C337.635 43.6391 334.656 46.6842 331 48.69C327.28 50.77 322.637 51.8133 317.07 51.82C311.503 51.8267 306.837 50.9267 303.07 49.12C299.281 47.2364 296.145 44.2576 294.07 40.57C291.757 36.67 290.6 31.7933 290.6 25.94ZM306.08 26.01C306.08 31.07 307.02 34.7033 308.9 36.91C309.891 37.9527 311.083 38.7841 312.404 39.3544C313.724 39.9248 315.147 40.2221 316.585 40.2286C318.024 40.2352 319.449 39.9508 320.774 39.3925C322.1 38.8342 323.299 38.0136 324.3 36.98C326.1 34.82 327 30.9367 327 25.33C327 20.61 326.05 17.1633 324.15 14.99C323.184 13.9035 321.988 13.0461 320.649 12.4804C319.31 11.9147 317.862 11.6549 316.41 11.72C314.995 11.6673 313.587 11.935 312.29 12.5029C310.993 13.0709 309.841 13.9245 308.92 15C307.02 17.24 306.073 20.9067 306.08 26V26.01ZM351 0.85H365.45L384.32 28.58V0.85H398.92V51H384.32L365.52 23.45V51H351V0.85ZM124.44 95.6L139.67 94.6C139.83 96.6292 140.52 98.5809 141.67 100.26C142.513 101.309 143.595 102.142 144.824 102.69C146.054 103.238 147.396 103.484 148.74 103.41C150.641 103.537 152.522 102.965 154.03 101.8C154.598 101.356 155.058 100.791 155.379 100.145C155.699 99.4995 155.87 98.7905 155.88 98.07C155.866 97.3757 155.7 96.6929 155.394 96.0694C155.088 95.4459 154.65 94.8966 154.11 94.46C152.94 93.4 150.2 92.4 145.91 91.46C138.89 89.88 133.89 87.78 130.91 85.16C129.453 83.9401 128.289 82.4077 127.505 80.6766C126.72 78.9454 126.336 77.06 126.38 75.16C126.387 72.4689 127.195 69.8407 128.7 67.61C130.426 65.0921 132.863 63.1459 135.7 62.02C138.8 60.6867 143.05 60.02 148.45 60.02C155.07 60.02 160.12 61.25 163.6 63.71C167.08 66.17 169.147 70.09 169.8 75.47L154.7 76.36C154.664 75.3919 154.428 74.4418 154.006 73.5698C153.584 72.6978 152.985 71.9228 152.249 71.294C151.512 70.6652 150.652 70.1961 149.725 69.9166C148.797 69.6371 147.822 69.5531 146.86 69.67C145.361 69.5607 143.87 69.9819 142.65 70.86C142.209 71.1995 141.851 71.6357 141.605 72.135C141.359 72.6342 141.231 73.1833 141.23 73.74C141.234 74.1778 141.338 74.6089 141.534 75.0005C141.73 75.3922 142.012 75.734 142.36 76C143.12 76.6667 144.91 77.3033 147.73 77.91C154.743 79.4233 159.76 80.95 162.78 82.49C165.482 83.7434 167.774 85.7371 169.39 88.24C170.778 90.5554 171.494 93.2109 171.46 95.91C171.476 99.183 170.515 102.386 168.7 105.11C166.817 107.952 164.134 110.172 160.99 111.49C157.024 113.068 152.776 113.81 148.51 113.67C139.697 113.67 133.593 111.973 130.2 108.58C126.761 105.101 124.712 100.484 124.44 95.6ZM175.88 60.9H224.56V73.7H208.23V112.76H192.23V73.7H175.88V60.9ZM265.88 60.9H281.53V91.79C281.547 94.7409 281.074 97.6742 280.13 100.47C279.218 103.15 277.714 105.59 275.73 107.61C273.977 109.486 271.833 110.954 269.45 111.91C265.917 113.142 262.191 113.728 258.45 113.64C255.749 113.623 253.05 113.446 250.37 113.11C247.822 112.864 245.341 112.152 243.05 111.01C240.983 109.875 239.154 108.354 237.66 106.53C236.14 104.785 235.003 102.741 234.32 100.53C233.425 97.6898 232.937 94.7371 232.87 91.76V60.9H248.52V92.53C248.447 93.7322 248.613 94.9369 249.008 96.0748C249.402 97.2127 250.018 98.2612 250.82 99.16C252.591 100.686 254.852 101.525 257.19 101.525C259.528 101.525 261.789 100.686 263.56 99.16C264.367 98.2588 264.987 97.2055 265.382 96.0619C265.776 94.9183 265.939 93.7073 265.86 92.5L265.88 60.9ZM292.35 60.9H316.15C320.027 60.7573 323.893 61.4073 327.51 62.81C330.314 64.0146 332.775 65.8978 334.67 68.29C336.595 70.7513 337.991 73.5838 338.77 76.61C339.633 79.8728 340.064 83.2349 340.05 86.61C340.05 92.15 339.417 96.4467 338.15 99.5C336.989 102.416 335.196 105.039 332.9 107.18C330.871 109.125 328.395 110.54 325.69 111.3C322.585 112.185 319.378 112.662 316.15 112.72H292.35V60.9ZM308.35 72.64V101H312.27C315.603 101 317.983 100.627 319.41 99.88C320.943 99.0171 322.125 97.6442 322.75 96C323.55 94.1533 323.95 91.1533 323.95 87C323.95 81.51 323.05 77.74 321.26 75.72C319.47 73.7 316.5 72.72 312.35 72.72L308.35 72.64ZM349.09 60.9H365.14V112.76H349.09V60.9ZM374.61 86.9C374.61 78.44 376.97 71.85 381.69 67.13C386.41 62.41 392.973 60.0333 401.38 60C410.007 60 416.653 62.3167 421.32 66.95C425.987 71.5833 428.32 78.0733 428.32 86.42C428.32 92.48 427.3 97.45 425.26 101.33C423.277 105.157 420.199 108.307 416.42 110.38C412.567 112.54 407.763 113.62 402.01 113.62C396.257 113.62 391.42 112.69 387.5 110.83C383.582 108.876 380.339 105.794 378.19 101.98C375.803 97.9933 374.61 92.9533 374.61 86.86V86.9ZM390.61 86.97C390.61 92.21 391.583 95.9733 393.53 98.26C394.553 99.3431 395.785 100.207 397.151 100.8C398.518 101.393 399.99 101.702 401.48 101.708C402.97 101.715 404.445 101.419 405.817 100.838C407.188 100.257 408.428 99.4041 409.46 98.33C411.34 96.09 412.28 92.07 412.28 86.27C412.28 81.3833 411.297 77.8167 409.33 75.57C408.331 74.4476 407.095 73.5619 405.711 72.9772C404.328 72.3925 402.831 72.1236 401.33 72.19C399.858 72.1356 398.393 72.4161 397.046 73.0102C395.698 73.6044 394.503 74.4967 393.55 75.62C391.61 77.8733 390.637 81.6433 390.63 86.93L390.61 86.97Z" fill="white"/>
</g>
<defs>
<clipPath id="clip0">
<rect width="428.32" height="113.64" fill="white"/>
</clipPath>
</defs>
</svg>
