<svg width="80" height="69" viewBox="0 0 80 69" fill="none" xmlns="http://www.w3.org/2000/svg">
<g clip-path="url(#clip0)">
<path d="M63.9106 22.5366C71.5872 34.123 67.034 48.9305 53.7378 55.62C40.4415 62.3094 23.4489 58.3418 15.7723 46.7553C8.0957 35.1688 12.6489 20.3613 25.9451 13.6719C39.2414 6.98242 56.234 10.9501 63.9106 22.5366ZM48.3544 27.1041L45.5583 37.0245L35.3266 21.5815C34.5813 20.4567 32.9433 20.0742 31.6525 20.7237L30.0997 21.5049C28.8088 22.1543 28.3699 23.5817 29.1152 24.7065L39.3469 40.1495L28.0897 37.2994C26.6436 36.9332 25.1281 37.6731 24.7384 38.9404L24.2969 40.4029C23.9113 41.6569 24.763 42.9424 26.1964 43.27L46.5013 48.0182C47.9403 48.3542 49.4155 47.612 49.7914 46.3629L55.2347 28.6606C55.6203 27.4066 54.7686 26.1211 53.3352 25.7936L51.6609 25.3955C50.2066 25.0559 48.7135 25.8297 48.3544 27.1041Z" fill="#494949" fill-opacity="0.63"/>
</g>
<defs>
<clipPath id="clip0">
<rect width="55.6256" height="51.943" fill="white" transform="matrix(0.893314 -0.449433 0.552321 0.833631 0.651367 25.4953)"/>
</clipPath>
</defs>
</svg>
