<svg width="93" height="76" viewBox="0 0 93 76" fill="none" xmlns="http://www.w3.org/2000/svg">
<g clip-path="url(#clip0)">
<path d="M63.0827 18.52L66.6689 23.9326L69.7994 22.3576L73.3855 27.7703L70.255 29.3453L73.8412 34.758L26.883 58.383L16.1246 42.145L63.0827 18.52ZM61.0618 12.3198L10.9732 37.5198C8.3797 38.8246 7.48151 41.6998 8.96696 43.9418L21.5185 62.8861C23.0039 65.1282 26.3104 65.8879 28.9039 64.5831L78.9926 39.3831C81.586 38.0783 82.4842 35.2032 80.9988 32.9611L80.1022 31.608L80.8849 31.2142C82.1816 30.5618 82.6307 29.1242 81.888 28.0032L73.8191 15.8247C73.0764 14.7037 71.4232 14.3238 70.1264 14.9762L69.3438 15.37L68.4473 14.0168C66.9618 11.7748 63.6553 11.015 61.0618 12.3198ZM42.962 32.2513L21.0482 43.2763L28.2205 54.1016L50.1343 43.0766L42.962 32.2513Z" fill="#494949" fill-opacity="0.63"/>
</g>
<defs>
<clipPath id="clip0">
<rect width="70.0883" height="51.943" fill="white" transform="matrix(0.893314 -0.449433 0.552321 0.833631 0.898438 31.7633)"/>
</clipPath>
</defs>
</svg>
