<svg width="79" height="69" viewBox="0 0 79 69" fill="none" xmlns="http://www.w3.org/2000/svg">
<g clip-path="url(#clip0)">
<path d="M25.7938 13.4398C12.4975 20.1293 7.94434 34.9368 15.6209 46.5232C23.2975 58.1097 40.2902 62.0774 53.5864 55.3879C66.8827 48.6985 71.4358 33.891 63.7592 22.3045C56.0826 10.718 39.09 6.75037 25.7938 13.4398ZM50.8968 51.3284C40.1724 56.7239 26.4712 53.5248 20.2795 44.1795C14.0878 34.8342 17.759 22.8948 28.4834 17.4993C39.2077 12.1038 52.909 15.303 59.1007 24.6482C65.2924 33.9935 61.6212 45.9329 50.8968 51.3284ZM51.0448 39.4815L39.3477 38.4088C38.918 38.3657 38.5415 38.1491 38.3286 37.8277L29.1279 23.9409C28.7581 23.3827 28.9796 22.6623 29.6201 22.3401L32.7258 20.7776C33.3664 20.4553 34.193 20.6483 34.5629 21.2065L42.5028 33.1905L51.7092 34.039C52.4518 34.1051 52.9788 34.6857 52.9029 35.3329L52.5296 38.4413C52.448 39.0799 51.7874 39.5476 51.0448 39.4815Z" fill="#494949" fill-opacity="0.63"/>
</g>
<defs>
<clipPath id="clip0">
<rect width="55.6256" height="51.943" fill="white" transform="matrix(0.893314 -0.449433 0.552321 0.833631 0.5 25.2632)"/>
</clipPath>
</defs>
</svg>
