<svg width="57" height="58" viewBox="0 0 57 58" fill="none" xmlns="http://www.w3.org/2000/svg">
<g clip-path="url(#clip0)">
<path d="M33.6669 23.8334L21.4611 26.4109C20.0516 26.7141 18.5554 26.1475 17.8269 25.048C16.9136 23.6695 17.4494 21.9115 19.0243 21.1191L25.4303 17.8962C26.6091 17.3031 27.9759 17.0327 29.3231 17.1217C30.1423 17.1719 30.8785 16.6888 31.0952 16.0047L32.5525 11.4375C32.8519 10.5088 32.1108 9.58484 31.0057 9.45298C27.5627 9.02015 24.0065 9.60272 20.9669 11.1207L18.2773 7.06116C17.7842 6.31692 16.6851 6.058 15.8349 6.48577L12.743 8.04133C11.8927 8.46911 11.6005 9.42803 12.0936 10.1723L14.7832 14.2318L14.5416 14.3533C8.38681 17.4498 6.50482 24.5648 10.7115 29.7668C13.7004 33.4615 19.2028 34.9218 24.2212 33.8629L35.8059 31.4175C37.221 31.1228 38.7116 31.6809 39.4401 32.7803C40.3534 34.1589 39.8176 35.9169 38.2427 36.7093L31.8367 39.9322C30.6579 40.5252 29.2911 40.7956 27.9439 40.7067C27.1248 40.6564 26.3885 41.1396 26.1718 41.8237L24.7145 46.3909C24.4152 47.3196 25.1562 48.2435 26.2613 48.3754C29.7044 48.8082 33.2605 48.2257 36.3001 46.7077L38.9897 50.7672C39.4828 51.5115 40.5819 51.7704 41.4322 51.3426L44.5241 49.787C45.3743 49.3593 45.6666 48.4003 45.1735 47.6561L42.4726 43.5797C46.9248 41.2383 49.595 36.7713 48.6119 32.2931C47.2376 26.0382 40.2082 22.4481 33.6669 23.8334Z" fill="#494949" fill-opacity="0.63"/>
</g>
<defs>
<clipPath id="clip0">
<rect width="31.1503" height="51.943" fill="white" transform="matrix(0.893314 -0.449433 0.552321 0.833631 0.375977 14.2632)"/>
</clipPath>
</defs>
</svg>
