<svg width="80" height="70" viewBox="0 0 80 70" fill="none" xmlns="http://www.w3.org/2000/svg">
<g clip-path="url(#clip0)">
<path d="M60.2181 17.3734C60.4229 16.9208 61.1483 16.8828 61.4228 17.2972L72.8817 34.5924C74.3666 36.8335 73.4847 39.7017 70.9128 40.9956L30.5387 61.3081C27.9668 62.6021 24.6755 61.8335 23.1906 59.5924L11.7373 42.3057C11.4571 41.8828 11.8534 41.3677 12.4154 41.4346C15.5643 41.8124 19.6851 42.2312 33.7366 43.5176C36.6474 43.7898 41.918 44.7916 45.3521 43.0413C48.8337 41.3235 50.502 36.7517 51.6429 34.5088C57.3902 23.2615 59.0191 19.9387 60.2181 17.3734ZM43.5534 40.3265C45.8275 39.2276 47.4105 35.0933 48.3574 33.2412C55.8402 18.6174 56.3498 17.4138 57.9748 13.8899C58.2856 13.2261 58.2233 12.4681 57.8087 11.8423L56.744 10.2354C55.2591 7.99422 51.9678 7.22571 49.3959 8.51965L9.02183 28.8322C6.44992 30.1261 5.568 32.9942 7.05289 35.2354L8.11753 36.8423C8.53218 37.4681 9.24879 37.8857 10.0695 37.9915C14.3785 38.5186 15.835 38.7443 34.11 40.4092C36.4241 40.6207 41.3242 41.4932 43.5534 40.3265Z" fill="#494949" fill-opacity="0.63"/>
</g>
<defs>
<clipPath id="clip0">
<rect width="55.6256" height="51.943" fill="white" transform="matrix(0.893314 -0.449433 0.552321 0.833631 0.777344 25.7632)"/>
</clipPath>
</defs>
</svg>
