<svg width="79" height="69" viewBox="0 0 79 69" fill="none" xmlns="http://www.w3.org/2000/svg">
<g clip-path="url(#clip0)">
<path d="M63.7143 22.5365C56.0377 10.95 39.0451 6.98236 25.7488 13.6718C12.4526 20.3613 7.89942 35.1688 15.576 46.7552C22.5119 57.2237 37.0626 61.4726 49.6126 57.2583L39.9014 42.601L33.7871 45.6772L29.77 39.6141L35.8844 36.538L32.8227 31.9169C29.3402 26.6607 31.0075 21.9507 36.5075 19.1836C39.1415 17.8584 42.1671 16.882 42.1671 16.882L45.5852 22.0409L42.5493 23.5683C39.5601 25.0722 39.6988 27.1584 40.7976 28.8169L43.406 32.7538L50.0813 29.3954L53.0307 35.9955L47.423 38.8168L57.1342 53.4741C67.5975 46.1103 70.6501 33.0049 63.7143 22.5365Z" fill="#494949" fill-opacity="0.63"/>
</g>
<defs>
<clipPath id="clip0">
<rect width="55.6256" height="51.943" fill="white" transform="matrix(0.893314 -0.449433 0.552321 0.833631 0.455078 25.4952)"/>
</clipPath>
</defs>
</svg>
