<svg width="67" height="25" viewBox="0 0 67 25" fill="none" xmlns="http://www.w3.org/2000/svg">
<g clip-path="url(#clip0)">
<path d="M44.4826 -27.1853L44.8221 -26.6729L32.4805 -20.4637L25.3082 -31.289L25.8924 -31.5829C26.5061 -31.8917 27.2364 -31.974 27.9226 -31.8117L42.8539 -28.2796C43.54 -28.1172 44.1259 -27.7236 44.4826 -27.1853ZM33.5022 -17.3693C32.2295 -16.729 30.583 -17.1185 29.8434 -18.2348L22.2228 -29.7367L2.93905 -20.0349C1.66102 -19.392 1.22708 -17.962 1.96981 -16.841L27.9694 22.4008C28.7121 23.5218 30.3502 23.9093 31.6282 23.2663L64.0249 6.96731C65.3029 6.32432 65.7369 4.89436 64.9942 3.77335L46.6151 -23.9665L33.5022 -17.3693ZM34.9461 9.0245C34.9283 9.09179 34.8955 9.15527 34.8496 9.21134C34.8037 9.26741 34.7456 9.31495 34.6785 9.35127C34.6114 9.38758 34.5368 9.41195 34.4588 9.42299C34.3808 9.43402 34.301 9.4315 34.2239 9.41558L24.5621 7.41912C24.4819 7.40254 24.4063 7.37176 24.34 7.3287C24.2737 7.28563 24.2182 7.23119 24.1768 7.16874C24.1354 7.10628 24.1091 7.03715 24.0994 6.9656C24.0898 6.89405 24.097 6.82162 24.1206 6.75277L26.9674 -1.53686C26.9901 -1.60297 27.0275 -1.66446 27.0775 -1.7178C27.1274 -1.77115 27.189 -1.81531 27.2586 -1.84776C27.3282 -1.88021 27.4045 -1.90032 27.4832 -1.90694C27.5619 -1.91355 27.6414 -1.90655 27.7171 -1.88632L30.7752 -1.06977C30.8525 -1.04914 30.9243 -1.01516 30.9864 -0.969863C31.0486 -0.924562 31.0997 -0.86886 31.1369 -0.806064C31.174 -0.743268 31.1964 -0.67466 31.2027 -0.60431C31.2089 -0.533961 31.199 -0.463306 31.1734 -0.396542L29.2532 4.61479L35.1937 5.67139C35.2728 5.68546 35.348 5.71328 35.4148 5.7532C35.4816 5.79311 35.5386 5.8443 35.5824 5.90373C35.6263 5.96316 35.656 6.02961 35.67 6.09915C35.684 6.16869 35.6818 6.23989 35.6637 6.30853L34.9461 9.0245ZM42.7204 10.8054L39.6268 11.4631C39.4718 11.496 39.3079 11.4737 39.171 11.401C39.0341 11.3284 38.9356 11.2113 38.8969 11.0757L32.9627 -9.80254C32.9242 -9.93824 32.9488 -10.0815 33.0311 -10.2007C33.1134 -10.32 33.2467 -10.4055 33.4017 -10.4385L36.4952 -11.0961C36.5719 -11.1124 36.6517 -11.1153 36.7299 -11.1047C36.8081 -11.094 36.8833 -11.07 36.951 -11.0341C37.0188 -10.9981 37.0779 -10.9508 37.1249 -10.895C37.1719 -10.8392 37.2059 -10.7758 37.225 -10.7086L43.1592 10.1695C43.1783 10.2367 43.1822 10.3065 43.1705 10.3748C43.1588 10.4431 43.1318 10.5087 43.091 10.5677C43.0503 10.6268 42.9966 10.6781 42.933 10.7189C42.8694 10.7597 42.7972 10.7891 42.7204 10.8054ZM52.0015 -6.38586L49.1547 1.90377C49.132 1.96988 49.0946 2.03137 49.0447 2.08472C48.9947 2.13806 48.9331 2.18222 48.8635 2.21467C48.7939 2.24712 48.7176 2.26723 48.6389 2.27385C48.5602 2.28046 48.4807 2.27346 48.405 2.25323L45.3468 1.43673C45.2696 1.4161 45.1977 1.38212 45.1356 1.33682C45.0735 1.29152 45.0223 1.23582 44.9852 1.17302C44.948 1.11023 44.9256 1.04162 44.9194 0.971271C44.9131 0.90092 44.923 0.830266 44.9486 0.7635L46.8689 -4.2478L40.9285 -5.30439C40.8493 -5.31847 40.7741 -5.34629 40.7074 -5.3862C40.6406 -5.42611 40.5836 -5.4773 40.5398 -5.53673C40.4959 -5.59616 40.4661 -5.66262 40.4522 -5.73215C40.4382 -5.80169 40.4404 -5.87289 40.4585 -5.94153L41.1761 -8.65764C41.1939 -8.72492 41.2267 -8.78841 41.2726 -8.84448C41.3185 -8.90054 41.3767 -8.94809 41.4437 -8.98441C41.5108 -9.02072 41.5854 -9.04509 41.6634 -9.05612C41.7414 -9.06716 41.8212 -9.06464 41.8983 -9.04872L51.5601 -7.05226C51.6404 -7.03567 51.7159 -7.00488 51.7822 -6.96181C51.8485 -6.91874 51.904 -6.86429 51.9454 -6.80183C51.9867 -6.73937 52.0131 -6.67023 52.0227 -6.59868C52.0324 -6.52714 52.0252 -6.4547 52.0015 -6.38586Z" fill="#494949" fill-opacity="0.63"/>
</g>
<defs>
<clipPath id="clip0">
<rect width="41.4465" height="51.943" fill="white" transform="matrix(0.893314 -0.449433 0.552321 0.833631 0.625 -18.8707)"/>
</clipPath>
</defs>
</svg>
