<svg width="79" height="53" viewBox="0 0 79 53" fill="none" xmlns="http://www.w3.org/2000/svg">
<g clip-path="url(#clip0)">
<path d="M25.7284 14.1097C12.0062 21.0134 7.10422 35.9998 14.7791 47.5837C22.4541 59.1677 39.7989 62.9615 53.521 56.0578C67.2432 49.1541 72.1452 34.1677 64.4703 22.5837C56.7954 10.9998 39.4506 7.20595 25.7284 14.1097ZM54.0101 40.2052C53.8368 40.7299 53.6551 41.2803 53.5091 41.7293C53.3776 42.1337 53.3736 42.553 53.4911 42.946C53.657 43.5008 53.8552 44.0461 53.9585 44.6132L54.8415 49.4519C53.631 50.3992 52.2991 51.2599 50.8314 51.9983L49.2972 49.6827C48.7594 48.5302 46.5 47.0012 44.1584 46.489C43.221 46.2839 42.4273 45.7654 41.9516 45.0474L40.158 42.3402C39.5057 41.3558 38.278 40.7669 36.9417 40.8043C35.0566 40.8563 32.3863 40.9469 30.5887 41.0563C29.1147 41.1461 27.6383 41.0589 26.1991 40.8121L26.0786 40.7915C25.049 40.6144 24.0514 40.3311 23.1072 39.9478C21.3959 39.256 18.5959 38.1106 16.7763 37.3662C16.2775 32.4864 17.9258 27.5367 21.406 23.5474L24.4843 23.353C25.8484 23.2666 26.6695 21.9818 26.0027 20.9754L25.3696 20.0197C26.0978 19.5079 26.8663 19.0288 27.6775 18.5857L32.0984 19.5527C33.0748 19.7663 33.6424 20.623 33.3664 21.4666L33.1588 22.0988L32.7023 23.4945C32.5646 23.9156 32.8486 24.3444 33.336 24.451L34.0687 24.6112C34.5561 24.7178 34.8402 25.1466 34.7024 25.5677L34.3492 26.6476C34.2828 26.85 34.126 27.0238 33.9133 27.1307L33.0127 27.5839C32.8043 27.6887 32.6493 27.858 32.5808 28.0571L32.1277 29.3732C32.0723 29.5347 32.0776 29.7056 32.1429 29.8615C32.2082 30.0173 32.3301 30.1499 32.4911 30.2402L35.8007 32.0923C36.3653 32.4081 36.3283 33.1326 35.7332 33.432L35.1682 33.7163C34.9748 33.8136 34.7493 33.8481 34.5334 33.8146L33.1521 33.6007C32.8396 33.5525 32.5156 33.5752 32.212 33.6667C31.9084 33.7581 31.6356 33.9151 31.4205 34.1223L28.88 36.5721C28.686 36.7591 28.564 36.9922 28.5311 37.2382C28.4983 37.4843 28.5563 37.7308 28.6969 37.9429C28.9507 38.3261 29.4386 38.5463 29.9581 38.5139L31.3786 38.4239C32.5852 38.348 33.7624 38.032 34.8163 37.5017C35.8703 36.9715 38.6086 38.6711 39.8153 38.5952L46.5026 35.2307C47.3531 34.8028 48.3564 34.6781 49.2947 34.8826L51.4334 35.3504C52.3269 35.546 53.0835 36.0402 53.5366 36.7245C53.8799 37.243 54.0985 37.8174 54.1797 38.4148C54.261 39.0121 54.2033 39.6206 54.0101 40.2052ZM57.5784 28.109C56.9171 28.2782 56.2122 28.2325 55.6021 27.9791L52.2896 26.6044C51.8052 26.4037 51.405 26.0828 51.1396 25.6821C50.8741 25.2814 50.7552 24.8189 50.798 24.3531L51.1143 20.8809C51.1523 20.4705 51.3129 20.0717 51.5833 19.7259L52.5201 18.5228C55.383 20.118 57.8611 22.2858 59.6615 25.0031C60.1473 25.7363 60.5489 26.4917 60.9102 27.2548L57.5784 28.109Z" fill="#494949" fill-opacity="0.63"/>
</g>
<defs>
<clipPath id="clip0">
<rect width="55.6256" height="51.943" fill="white" transform="matrix(0.893314 -0.449433 0.552321 0.833631 0.43457 25.9331)"/>
</clipPath>
</defs>
</svg>
