<svg width="81" height="71" viewBox="0 0 81 71" fill="none" xmlns="http://www.w3.org/2000/svg">
<g clip-path="url(#clip0)">
<path d="M65.4266 23.1561C73.6725 35.6018 69.6739 49.4231 55.1025 56.7541C41.132 63.7827 23.3928 59.7135 15.3975 47.646C7.40217 35.5784 12.2276 20.1567 26.1982 13.128C33.0002 9.7059 40.1505 8.98172 46.9139 10.3169L43.8227 19.4832C29.8664 16.5129 16.8762 30.554 24.9997 42.815C30.0405 50.4232 41.1617 53.0489 49.7762 48.7149C59.7755 43.6842 59.4202 35.6068 57.8837 32.0993L43.5466 39.3124L38.5758 31.8098L62.6169 19.7145C63.5912 20.7137 64.4651 21.7048 65.4266 23.1561Z" fill="#494949" fill-opacity="0.63"/>
</g>
<defs>
<clipPath id="clip0">
<rect width="55.6256" height="54.0207" fill="white" transform="matrix(0.893314 -0.449433 0.552321 0.833631 0.479492 25.1293)"/>
</clipPath>
</defs>
</svg>
