<svg width="79" height="69" viewBox="0 0 79 69" fill="none" xmlns="http://www.w3.org/2000/svg">
<g clip-path="url(#clip0)">
<path d="M50.4626 5.63229L50.9802 5.37187C51.8378 4.94043 52.232 4.13621 51.8607 3.57575L50.5159 1.546C50.1446 0.985538 49.1482 0.880933 48.2906 1.31238L1.70519 24.7499C0.847631 25.1813 0.453412 25.9855 0.824747 26.546L2.16955 28.5757C2.54089 29.1362 3.53724 29.2408 4.3948 28.8094L4.91242 28.549C9.42671 35.3625 18.3684 40.4761 29.1429 39.8133C23.07 47.6476 23.7341 56.957 28.2224 63.7312L27.7048 63.9917C26.8472 64.4231 26.453 65.2273 26.8243 65.7878L28.1691 67.8175C28.5405 68.378 29.5368 68.4826 30.3944 68.0511L76.9798 44.6136C77.8374 44.1822 78.2316 43.378 77.8603 42.8175L76.5155 40.7878C76.1441 40.2273 75.1478 40.1227 74.2902 40.5542L73.7726 40.8146C69.2583 34.001 60.3166 28.8874 49.5421 29.5503C55.6151 21.7158 54.9509 12.4066 50.4626 5.63229ZM11.1238 25.424L44.2512 8.75729C49.9454 17.3516 47.1457 28.0496 37.9977 32.652C28.8497 37.2544 16.818 34.0183 11.1238 25.424ZM67.5612 43.9396L34.4338 60.6062C28.7397 52.012 31.5395 41.3139 40.6873 36.7115C49.8351 32.1092 61.8671 35.3453 67.5612 43.9396Z" fill="#494949" fill-opacity="0.63"/>
</g>
<defs>
<clipPath id="clip0">
<rect width="55.6256" height="51.943" fill="white" transform="matrix(0.893314 -0.449433 0.552321 0.833631 0.152344 25.5311)"/>
</clipPath>
</defs>
</svg>
