<svg width="80" height="69" viewBox="0 0 80 69" fill="none" xmlns="http://www.w3.org/2000/svg">
<g clip-path="url(#clip0)">
<path d="M72.6405 43.3048L32.2665 63.6173C29.6936 64.9117 26.4038 64.1436 24.9183 61.9016L5.1945 32.1319C3.70904 29.8899 4.59055 27.0231 7.16343 25.7287L47.5375 5.4162C50.1104 4.12177 53.4002 4.88992 54.8856 7.13194L74.6095 36.9016C76.0949 39.1436 75.2134 42.0104 72.6405 43.3048ZM19.8586 29.2649C17.7146 30.3435 16.98 32.7326 18.2178 34.6009C19.4557 36.4692 22.1973 37.1093 24.3413 36.0307C26.4853 34.952 27.2199 32.5629 25.9821 30.6946C24.7442 28.8263 22.0026 28.1862 19.8586 29.2649ZM25.2378 37.3838C23.0938 38.4625 22.3592 40.8516 23.5971 42.7199C24.8349 44.5882 27.5765 45.2283 29.7205 44.1497C31.8645 43.071 32.5991 40.6819 31.3613 38.8136C30.1235 36.9453 27.3818 36.3052 25.2378 37.3838ZM30.6171 45.5028C28.4731 46.5815 27.7385 48.9706 28.9763 50.8389C30.2141 52.7072 32.9558 53.3473 35.0998 52.2687C37.2438 51.19 37.9784 48.8009 36.7405 46.9326C35.5027 45.0643 32.7611 44.4242 30.6171 45.5028ZM50.9478 19.9384L49.1547 17.2321C48.7834 16.6716 47.9608 16.4796 47.3177 16.8032L27.9071 26.5688C27.2639 26.8924 27.0435 27.6091 27.4148 28.1696L29.2079 30.8759C29.5792 31.4364 30.4018 31.6285 31.0449 31.3049L50.4555 21.5392C51.0987 21.2157 51.3191 20.4989 50.9478 19.9384ZM56.327 28.0574L54.5339 25.3511C54.1626 24.7906 53.34 24.5986 52.6969 24.9222L33.2863 34.6878C32.6431 35.0114 32.4227 35.7281 32.794 36.2886L34.5871 38.9949C34.9585 39.5554 35.781 39.7474 36.4242 39.4239L55.8348 29.6582C56.4779 29.3347 56.6983 28.6179 56.327 28.0574ZM61.7062 36.1764L59.9131 33.4701C59.5418 32.9096 58.7193 32.7176 58.0761 33.0411L38.6655 42.8068C38.0223 43.1304 37.8019 43.8471 38.1733 44.4076L39.9663 47.1139C40.3377 47.6744 41.1602 47.8664 41.8034 47.5428L61.214 37.7772C61.8572 37.4536 62.0776 36.7369 61.7062 36.1764Z" fill="#494949" fill-opacity="0.63"/>
</g>
<defs>
<clipPath id="clip0">
<rect width="55.6256" height="51.943" fill="white" transform="matrix(0.893314 -0.449433 0.552321 0.833631 0.711914 25.3661)"/>
</clipPath>
</defs>
</svg>
