<svg width="79" height="69" viewBox="0 0 79 69" fill="none" xmlns="http://www.w3.org/2000/svg">
<g clip-path="url(#clip0)">
<path d="M43.3236 4.56062L16.392 45.1621C14.1685 48.5248 17.3409 52.6684 21.7585 52.1486L35.5021 50.5678L40.2313 57.7058C42.8313 61.6299 49.647 60.3547 50.2387 55.896L51.178 48.7591L64.627 47.2025C65.3341 47.1174 66.003 46.9161 66.6048 46.6134C67.4006 46.213 68.0691 45.6399 68.5478 44.9367C69.3866 43.7028 69.5235 42.1906 68.9342 40.852L53.003 5.20502C51.3481 1.5158 45.5666 1.18817 43.3236 4.56062ZM44.8899 55.362L41.2701 49.8986L45.6683 49.3886L44.8899 55.362ZM63.9152 42.5539L45.4303 44.6933L47.7015 20.7386C47.8715 18.9052 44.9024 18.3692 44.2135 20.1028L34.0137 46.0167L21.0523 47.5085L47.9783 6.89851L63.9152 42.5539Z" fill="#494949" fill-opacity="0.63"/>
</g>
<defs>
<clipPath id="clip0">
<rect width="55.6256" height="51.943" fill="white" transform="matrix(0.893314 -0.449433 0.552321 0.833631 0.257812 25.4952)"/>
</clipPath>
</defs>
</svg>
