<svg width="93" height="75" viewBox="0 0 93 75" fill="none" xmlns="http://www.w3.org/2000/svg">
<g clip-path="url(#clip0)">
<path d="M56.4875 39.7926L43.9653 46.0926C42.2367 46.9623 41.6377 48.8795 42.6279 50.3739L49.8002 61.1992C50.7903 62.6936 52.9951 63.2002 54.7238 62.3305L67.2459 56.0305C68.9746 55.1608 69.5735 53.2436 68.5834 51.7492L61.4111 40.9239C60.421 39.4295 58.2161 38.9229 56.4875 39.7926ZM21.5666 24.8856C20.5764 23.3912 18.3716 22.8846 16.6429 23.7543L4.12078 30.0543C2.39213 30.924 1.7932 32.8412 2.78331 34.3356L9.95561 45.1609C10.9457 46.6553 13.1506 47.1619 14.8792 46.2922L24.2435 41.581L38.5752 48.8089C38.5931 46.6506 39.8635 44.5478 42.1722 43.3862L42.1996 43.3725L29.6079 37.0226L26.9458 33.0046L48.8596 21.9796L45.2734 16.5669L23.3596 27.5919L21.5666 24.8856ZM60.4705 1.70427L47.9484 8.00427C46.2197 8.87397 45.6208 10.7912 46.6109 12.2856L53.7832 23.1109C54.7733 24.6053 56.9782 25.1119 58.7068 24.2422L71.229 17.9422C72.9576 17.0726 73.5566 15.1553 72.5664 13.6609L65.3941 2.8356C64.404 1.3412 62.1992 0.834576 60.4705 1.70427Z" fill="#494949" fill-opacity="0.63"/>
</g>
<defs>
<clipPath id="clip0">
<rect width="70.0883" height="51.943" fill="white" transform="matrix(0.893314 -0.449433 0.552321 0.833631 0.990234 31.6293)"/>
</clipPath>
</defs>
</svg>
