<svg width="79" height="69" viewBox="0 0 79 69" fill="none" xmlns="http://www.w3.org/2000/svg">
<g clip-path="url(#clip0)">
<path d="M74.3256 38.4114L59.0629 34.8477C58.374 34.6869 57.6419 34.7733 57.0208 35.0858L55.4388 35.8817C56.1395 31.5486 55.2433 26.9928 52.5368 22.9079C46.0986 13.1905 31.8462 9.86267 20.6948 15.473C9.54345 21.0834 5.72454 33.503 12.1628 43.2204C18.6011 52.9378 32.8534 56.2657 44.0048 50.6553C48.6925 48.2969 52.0827 44.7419 53.9621 40.6841L54.8755 42.0626C55.2341 42.6039 55.8185 42.9977 56.5074 43.1586L71.7701 46.7223C73.2091 47.0583 74.6844 46.3161 75.0602 45.0671L76.2211 41.2918C76.6067 40.0378 75.755 38.7523 74.3256 38.4114ZM39.5221 43.8895C32.6605 47.3416 23.8942 45.3019 19.927 39.3142C15.9655 33.3349 18.3062 25.6959 25.1775 22.2388C32.0392 18.7867 40.8054 20.8264 44.7726 26.8142C48.7342 32.7935 46.3935 40.4325 39.5221 43.8895Z" fill="#494949" fill-opacity="0.63"/>
</g>
<defs>
<clipPath id="clip0">
<rect width="55.6256" height="51.943" fill="white" transform="matrix(0.893314 -0.449433 0.552321 0.833631 0.507812 25.6293)"/>
</clipPath>
</defs>
</svg>
