<svg width="80" height="70" viewBox="0 0 80 70" fill="none" xmlns="http://www.w3.org/2000/svg">
<g clip-path="url(#clip0)">
<path d="M62.2185 27.2423C62.2376 25.5582 61.8314 23.9764 60.7584 22.3568C58.292 18.6343 52.3509 16.9364 47.6339 19.3095L44.0934 21.0908C43.8531 19.7671 43.3761 18.2796 42.3445 16.7226C38.2656 10.5662 32.8182 9.70563 27.2299 12.5172C21.2508 15.5253 26.9112 23.3825 26.3506 25.2057C25.4176 28.2401 25.2586 33.2479 24.3505 35.6165L14.7655 40.4387C13.0503 41.3017 12.4626 43.2129 13.4529 44.7076L26.901 65.005C27.8912 66.4997 30.0845 67.0118 31.7997 66.1489L38.0111 63.0239C39.4565 62.2967 40.1011 60.8251 39.6756 59.4857C44.0514 57.3971 49.1984 59.1985 59.1698 54.1818C59.8705 53.8293 60.6475 53.4395 61.3269 53.0977C68.8113 49.3322 69.9865 44.2955 66.9464 39.5207C67.2066 37.3122 66.5002 34.8826 64.8756 33.0085C64.798 30.9668 63.9412 28.9294 62.2185 27.2423ZM59.2418 34.81C61.6448 35.9838 62.1327 38.9272 61.1147 40.3595C64.5954 44.109 63.0984 46.7927 59.6519 48.5266L55.9814 50.3733C49.0286 53.8713 42.4071 52.9379 37.204 55.5556L26.7722 39.8107L27.832 39.2775C30.5845 37.8927 30.4575 29.9628 31.5464 26.4188C32.7097 22.6356 29.1438 19.0993 29.9195 16.5766C34.5072 14.2685 36.3552 17.0578 37.686 19.0664C39.8808 22.3791 38.1118 25.2481 40.231 28.4466L50.3235 23.369C52.3723 22.3382 55.0449 23.126 56.1133 24.7209C57.181 26.3149 56.9877 28.5445 56.0705 29.006C58.1952 29.5783 60.1941 32.0323 59.2418 34.81ZM33.6485 58.0018C34.3913 59.1228 33.9505 60.5562 32.6641 61.2034C31.3776 61.8507 29.7327 61.4666 28.99 60.3456C28.2473 59.2246 28.688 57.7912 29.9745 57.1439C31.2609 56.4967 32.9058 56.8808 33.6485 58.0018Z" fill="#494949" fill-opacity="0.63"/>
</g>
<defs>
<clipPath id="clip0">
<rect width="55.6256" height="51.943" fill="white" transform="matrix(0.893314 -0.449433 0.552321 0.833631 0.901367 25.7632)"/>
</clipPath>
</defs>
</svg>
