<svg width="85" height="73" viewBox="0 0 85 73" fill="none" xmlns="http://www.w3.org/2000/svg">
<g clip-path="url(#clip0)">
<path d="M40.9992 15.6121L22.4478 24.9455C12.2059 30.0983 8.71537 41.5521 14.6549 50.5168C20.5945 59.4815 33.7228 62.5742 43.9647 57.4214L62.5161 48.0881C72.758 42.9353 76.2486 31.4815 70.309 22.5168C64.3694 13.5521 51.2411 10.4594 40.9992 15.6121ZM58.93 42.6754C52.0891 46.1171 43.3517 44.0516 39.3901 38.0723C35.4229 32.0846 37.7542 24.4616 44.5854 21.0248C51.4262 17.5831 60.1636 19.6486 64.1252 25.6279C68.0924 31.6157 65.7611 39.2386 58.93 42.6754Z" fill="#494949" fill-opacity="0.63"/>
</g>
<defs>
<clipPath id="clip0">
<rect width="62.3007" height="51.943" fill="white" transform="matrix(0.893314 -0.449433 0.552321 0.833631 0.310547 28.8661)"/>
</clipPath>
</defs>
</svg>
