<svg width="92" height="64" viewBox="0 0 92 64" fill="none" xmlns="http://www.w3.org/2000/svg">
<g clip-path="url(#clip0)">
<path d="M58.0215 -9.00823L4.80226 17.7668C3.55685 18.3933 2.64582 19.422 2.26959 20.6263C1.89335 21.8307 2.08273 23.1121 2.79606 24.1888L20.7268 51.2521C21.4401 52.3287 22.619 53.1124 24.004 53.4306C25.3891 53.7488 26.8668 53.5756 28.1122 52.9491L51.5913 41.1366L53.3844 43.8429L36.1664 52.5054C35.7513 52.7142 35.4476 53.0571 35.3222 53.4586C35.1968 53.86 35.2599 54.2872 35.4977 54.646L37.2907 57.3524C37.5285 57.7113 37.9215 57.9725 38.3831 58.0786C38.8448 58.1846 39.3374 58.1269 39.7525 57.918L80.4496 37.443C80.8647 37.2342 81.1684 36.8913 81.2938 36.4899C81.4192 36.0884 81.3561 35.6613 81.1183 35.3024L79.3252 32.596C79.0875 32.2372 78.6945 31.976 78.2328 31.8699C77.7712 31.7638 77.2786 31.8215 76.8634 32.0304L59.6455 40.6929L57.8524 37.9866L81.3314 26.1741C82.5769 25.5475 83.4879 24.5189 83.8641 23.3145C84.2403 22.1102 84.051 20.8287 83.3376 19.7521L65.4069 -7.31123C64.6936 -8.38788 63.5147 -9.17152 62.1297 -9.48977C60.7446 -9.80802 59.2669 -9.6348 58.0215 -9.00823V-9.00823ZM76.18 21.5489L26.0914 46.7489L9.95368 22.3919L60.0423 -2.80807L76.18 21.5489Z" fill="#494949" fill-opacity="0.63"/>
</g>
<defs>
<clipPath id="clip0">
<rect width="70.0883" height="51.943" fill="white" transform="matrix(0.893314 -0.449433 0.552321 0.833631 0.106445 20.1293)"/>
</clipPath>
</defs>
</svg>
