<svg width="79" height="69" viewBox="0 0 79 69" fill="none" xmlns="http://www.w3.org/2000/svg">
<g clip-path="url(#clip0)">
<path d="M53.6383 15.432C53.9247 15.8007 54.1796 16.1855 54.4344 16.5701C62.2074 28.302 60.9165 46.9754 42.1877 56.398C36.4177 59.3009 30.0928 60.5414 23.9094 60.2821C24.7838 59.9521 25.5901 59.583 26.4415 59.1547C31.2024 56.7594 34.6568 53.1533 36.5729 49.0021C32.041 51.1722 26.596 50.5047 22.9731 47.6382C23.6584 47.4033 24.3253 47.141 24.9875 46.8079C25.9019 46.3479 26.7434 45.7778 27.4673 45.1573C22.2548 46.6807 16.3884 44.8698 13.5304 40.5562L13.4576 40.4463C15.2502 40.4236 17.0999 40.0425 18.8072 39.2568C15.0083 39.0432 11.409 37.2274 9.37016 34.1501C8.27795 32.5016 7.78113 30.7367 7.79023 28.9737C16.3714 31.8366 26.2372 31.5622 34.942 27.6957C34.3475 27.1155 33.7978 26.4763 33.3427 25.7894C30.1024 20.8988 32.0032 14.6306 37.647 11.7911C40.5793 10.3159 43.9377 10.055 46.9449 10.85C48.9916 9.30738 50.7072 7.4551 51.9886 5.45499C52.5971 7.89646 52.136 10.4364 50.7516 12.5981C52.6737 11.3748 54.3324 9.88076 55.706 8.27392C55.4839 10.7301 54.7872 13.1687 53.6383 15.432Z" fill="#494949" fill-opacity="0.63"/>
</g>
<defs>
<clipPath id="clip0">
<rect width="55.6256" height="51.943" fill="white" transform="matrix(0.893314 -0.449433 0.552321 0.833631 0.553711 25.0311)"/>
</clipPath>
</defs>
</svg>
