<svg width="80" height="70" viewBox="0 0 80 70" fill="none" xmlns="http://www.w3.org/2000/svg">
<g clip-path="url(#clip0)">
<path d="M45.8568 3.20508L14.7999 18.8301C12.2279 20.124 11.346 22.9921 12.8309 25.2333L15.5205 29.2928L10.862 31.6366C8.29008 32.9305 7.40817 35.7986 8.89306 38.0398L26.8238 65.1031C28.3087 67.3443 31.6001 68.1128 34.172 66.8189L65.2289 51.1939C67.8008 49.8999 68.6827 47.0318 67.1979 44.7906L64.5082 40.7311L69.1668 38.3874C71.7387 37.0934 72.6206 34.2253 71.1357 31.9841L53.205 4.92082C51.7201 2.67964 48.4287 1.91113 45.8568 3.20508ZM62.5393 47.1344L31.4823 62.7594L19.8274 45.1682L50.8843 29.5432L62.5393 47.1344ZM66.4772 34.3279L61.8186 36.6716L49.2671 17.7273C47.7822 15.4861 44.4909 14.7176 41.9189 16.0116L20.1791 26.9491L17.4895 22.8896L48.5464 7.26457L66.4772 34.3279Z" fill="#494949" fill-opacity="0.63"/>
</g>
<defs>
<clipPath id="clip0">
<rect width="55.6256" height="51.943" fill="white" transform="matrix(0.893314 -0.449433 0.552321 0.833631 0.824219 25.8613)"/>
</clipPath>
</defs>
</svg>
